#N canvas 0 27 1920 995 12;
#X declare -path ./audio/instruments;
#X declare -path ./audio/objects;
#X declare -path ./visuals/objects;
#X declare -lib Gem;
#X declare -path ./visuals/vfx;
#X declare -path ./lib;
#X declare -lib Gem;
#X declare -stdpath ./;
#X declare -path ./lib;
#N canvas -280 298 1920 995 pattern_bank 0;
#X listbox 216 193 70 0 0 0 - - - 0;
#X obj 74 495 else/sequencer;
#X floatatom 74 520 5 0 0 0 - - - 0;
#N canvas 0 0 1920 995 patterns 0;
#X obj 111 233 print;
#X obj 83 40 bng 15 250 50 0 empty empty empty 17 7 0 10 #fcfcfc #000000 #000000;
#X floatatom 152 30 5 0 0 0 - - - 0;
#X floatatom 155 111 5 0 0 0 - - - 0;
#X floatatom 169 186 5 0 0 0 - - - 0;
#X obj 111 208 randseq;
#X listbox 88 287 81 0 0 0 - - - 0;
#X obj 94 259 list;
#X obj 702 252 print;
#X floatatom 743 49 5 0 0 0 - - - 0;
#X floatatom 746 130 5 0 0 0 - - - 0;
#X floatatom 778 208 5 0 0 0 - - - 0;
#X obj 702 227 randseq;
#X listbox 679 306 81 0 0 0 - - - 0;
#X obj 685 278 list;
#X obj 1299 242 print;
#X floatatom 1340 39 5 0 0 0 - - - 0;
#X floatatom 1343 120 5 0 0 0 - - - 0;
#X floatatom 1357 195 5 0 0 0 - - - 0;
#X obj 1299 217 randseq;
#X listbox 1276 296 81 0 0 0 - - - 0;
#X obj 1282 268 list;
#X obj 228 874 outlet;
#X obj 622 855 outlet;
#X obj 1209 859 outlet;
#X obj 129 501 print;
#X floatatom 157 332 5 0 0 0 - - - 0;
#X floatatom 173 379 5 0 0 0 - - - 0;
#X floatatom 187 454 5 0 0 0 - - - 0;
#X obj 129 476 randseq;
#X listbox 106 555 81 0 0 0 - - - 0;
#X obj 112 527 list;
#X obj 720 520 print;
#X floatatom 721 358 5 0 0 0 - - - 0;
#X floatatom 764 398 5 0 0 0 - - - 0;
#X floatatom 778 473 5 0 0 0 - - - 0;
#X obj 720 495 randseq;
#X listbox 697 574 81 0 0 0 - - - 0;
#X obj 703 546 list;
#X obj 1317 510 print;
#X floatatom 1334 348 5 0 0 0 - - - 0;
#X floatatom 1361 388 5 0 0 0 - - - 0;
#X floatatom 1375 463 5 0 0 0 - - - 0;
#X obj 1317 485 randseq;
#X listbox 1294 564 81 0 0 0 - - - 0;
#X obj 1300 536 list;
#X obj 103 851 outlet;
#X obj 686 851 outlet;
#X obj 1304 852 outlet;
#X obj 85 -29 inlet;
#X obj 772 -17 inlet;
#X obj 988 -16 inlet;
#X obj 1199 -20 inlet;
#X connect 1 0 5 0;
#X connect 1 0 12 0;
#X connect 1 0 19 0;
#X connect 1 0 29 0;
#X connect 1 0 36 0;
#X connect 1 0 43 0;
#X connect 2 0 5 1;
#X connect 3 0 5 2;
#X connect 4 0 5 3;
#X connect 5 0 0 0;
#X connect 5 0 7 0;
#X connect 6 0 22 0;
#X connect 7 0 6 0;
#X connect 9 0 12 1;
#X connect 10 0 12 2;
#X connect 11 0 12 3;
#X connect 12 0 8 0;
#X connect 12 0 14 0;
#X connect 13 0 23 0;
#X connect 14 0 13 0;
#X connect 16 0 19 1;
#X connect 17 0 19 2;
#X connect 18 0 19 3;
#X connect 19 0 15 0;
#X connect 19 0 21 0;
#X connect 20 0 24 0;
#X connect 21 0 20 0;
#X connect 26 0 29 1;
#X connect 27 0 29 2;
#X connect 28 0 29 3;
#X connect 29 0 25 0;
#X connect 29 0 31 0;
#X connect 30 0 46 0;
#X connect 31 0 30 0;
#X connect 33 0 36 1;
#X connect 34 0 36 2;
#X connect 35 0 36 3;
#X connect 36 0 32 0;
#X connect 36 0 38 0;
#X connect 37 0 47 0;
#X connect 38 0 37 0;
#X connect 40 0 43 1;
#X connect 41 0 43 2;
#X connect 42 0 43 3;
#X connect 43 0 39 0;
#X connect 43 0 45 0;
#X connect 44 0 48 0;
#X connect 45 0 44 0;
#X connect 49 0 1 0;
#X connect 50 0 2 0;
#X connect 50 0 26 0;
#X connect 50 0 9 0;
#X connect 50 0 33 0;
#X connect 50 0 16 0;
#X connect 50 0 40 0;
#X connect 51 0 3 0;
#X connect 51 0 27 0;
#X connect 51 0 10 0;
#X connect 51 0 34 0;
#X connect 51 0 17 0;
#X connect 51 0 41 0;
#X connect 52 0 18 0;
#X connect 52 0 11 0;
#X connect 52 0 42 0;
#X connect 52 0 35 0;
#X connect 52 0 28 0;
#X connect 52 0 4 0;
#X restore 216 143 pd patterns;
#X f 51;
#X obj 214 116 bng 15 250 50 0 empty empty empty 17 7 0 10 #fcfcfc #000000 #000000;
#X listbox 287 237 70 0 0 0 - - - 0;
#X listbox 357 288 70 0 0 0 - - - 0;
#X listbox 428 336 70 0 0 0 - - - 0;
#X listbox 501 387 70 0 0 0 - - - 0;
#X listbox 581 429 72 0 0 0 - - - 0;
#X floatatom 337 114 5 0 0 0 - - - 0;
#X floatatom 449 118 5 0 0 0 - - - 0;
#X floatatom 566 116 5 0 0 0 - - - 0;
#X obj 197 494 else/sequencer;
#X floatatom 197 519 5 0 0 0 - - - 0;
#X obj 312 501 else/sequencer;
#X floatatom 312 526 5 0 0 0 - - - 0;
#X obj 429 502 else/sequencer;
#X floatatom 429 527 6 0 0 0 - - - 0;
#X obj 554 503 else/sequencer;
#X floatatom 555 532 6 0 0 0 - - - 0;
#X obj 671 498 else/sequencer;
#X floatatom 674 527 6 0 0 0 - - - 0;
#X obj 332 23 inlet;
#X obj 444 24 inlet;
#X obj 563 21 inlet;
#X obj 211 24 inlet;
#X obj 72 636 outlet;
#X obj 193 635 outlet;
#X obj 315 631 outlet;
#X obj 436 630 outlet;
#X obj 559 626 outlet;
#X obj 680 625 outlet;
#X obj 72 403 inlet;
#X connect 0 0 1 1;
#X connect 1 0 2 0;
#X connect 2 0 27 0;
#X connect 3 0 7 0;
#X connect 3 1 0 0;
#X connect 3 2 5 0;
#X connect 3 3 8 0;
#X connect 3 4 6 0;
#X connect 3 5 9 0;
#X connect 4 0 3 0;
#X connect 5 0 13 1;
#X connect 6 0 15 1;
#X connect 7 0 17 1;
#X connect 8 0 19 1;
#X connect 9 0 21 1;
#X connect 10 0 3 1;
#X connect 11 0 3 2;
#X connect 12 0 3 3;
#X connect 13 0 14 0;
#X connect 14 0 28 0;
#X connect 15 0 16 0;
#X connect 16 0 29 0;
#X connect 17 0 18 0;
#X connect 18 0 30 0;
#X connect 19 0 20 0;
#X connect 20 0 31 0;
#X connect 21 0 22 0;
#X connect 22 0 32 0;
#X connect 23 0 10 0;
#X connect 24 0 11 0;
#X connect 25 0 12 0;
#X connect 26 0 4 0;
#X connect 33 0 1 0;
#X connect 33 0 13 0;
#X connect 33 0 15 0;
#X connect 33 0 17 0;
#X connect 33 0 19 0;
#X connect 33 0 21 0;
#X restore 1086 163 pd pattern_bank;
#X f 35;
#X obj 730 731 else/out~;
#N canvas 281 187 630 372 spectrolog 0;
#N canvas 556 61 872 789 FFT_Analyse 0;
#X obj 101 102 inlet~;
#X obj 101 332 *~;
#X obj 132 331 *~;
#X obj 101 356 +~;
#X obj 102 377 powtodb~;
#N canvas 0 22 346 535 init_input_window 0;
#X obj 73 217 / 10;
#X obj 55 278 line 0 0.1;
#X msg 119 246 0;
#X obj 54 176 t f f b;
#X obj 54 239 pack;
#X obj 55 301 t f f;
#X obj 54 152 - 1;
#X obj 74 114 t f f;
#X obj 55 359 * 3.14159;
#X obj 55 381 sin;
#X msg 55 401 \$1 \$1;
#X obj 55 423 *;
#X text 119 334 0...0.99;
#X text 128 359 0...pi;
#X text 79 423 hanning;
#X msg 55 88 4096;
#X obj 100 88 f 4096;
#X obj 99 60 bng 15 250 50 0 empty empty empty 0 -6 0 8 #fcfcfc #000000 #000000;
#X obj 99 39 loadbang;
#X obj 74 333 / 4096;
#X obj 55 448 tabwrite \$0-window;
#X text 86 381 half-sine;
#X connect 0 0 4 1;
#X connect 1 0 5 0;
#X connect 2 0 1 0;
#X connect 3 0 4 0;
#X connect 3 1 0 0;
#X connect 3 2 2 0;
#X connect 4 0 1 0;
#X connect 5 0 19 0;
#X connect 5 1 20 1;
#X connect 6 0 3 0;
#X connect 7 0 6 0;
#X connect 7 1 19 1;
#X connect 8 0 9 0;
#X connect 9 0 10 0;
#X connect 10 0 11 0;
#X connect 11 0 20 0;
#X connect 15 0 7 0;
#X connect 16 0 7 0;
#X connect 17 0 16 0;
#X connect 18 0 17 0;
#X connect 19 0 8 0;
#X restore 161 276 pd init_input_window;
#N canvas 0 22 450 300 (subpatch) 0;
#X array \$0-lin_scope 2048 float 0;
#A color 0;
#A width 1;
#X coords 0 100 2047 0 200 140 1;
#X restore 110 621 graph;
#N canvas 0 22 822 328 init_norm 0;
#X obj 43 230 outlet;
#X obj 43 187 - 100;
#X floatatom 43 208 9 0 0 0 - - - 0;
#X text 108 169 leistung - techn. dB;
#X msg 43 69 4096;
#X obj 80 68 f 4096;
#X obj 80 47 bng 15 250 50 0 empty empty empty 0 -6 0 8 #fcfcfc #000000 #000000;
#X obj 80 26 loadbang;
#X obj 43 167 rmstodb;
#X obj 43 110 / 4;
#X text 74 103 faktor 2 wegen hanning;
#X text 74 114 weiterer faktor 2 \, weil wir nur die;
#X text 73 124 erste haelfte des konjungiert komplexen spektrum sehen;
#X text 108 135 bzw. bearbeiten \, somit nur die haelfte der spektralen energie;
#X connect 1 0 2 0;
#X connect 2 0 0 0;
#X connect 4 0 9 0;
#X connect 5 0 9 0;
#X connect 6 0 5 0;
#X connect 7 0 6 0;
#X connect 8 0 1 0;
#X connect 9 0 8 0;
#X restore 153 421 pd init_norm;
#X obj 100 231 *~;
#X obj 102 443 -~ 60.206;
#X obj 113 517 *~ 0.98;
#X obj 100 539 +~;
#X obj 101 471 *~ 0.02;
#X msg 314 481 1 \$1;
#X obj 314 502 -;
#X obj 314 458 clip 0 1;
#X obj 314 437 / 100;
#X floatatom 314 413 5 0.5 100 0 - - - 0;
#X obj 333 366 loadbang;
#X obj 100 277 fft~;
#X obj 463 557 line 0 0.1;
#X obj 463 602 / 2;
#X obj 463 622 mtof;
#X msg 463 536 6 \, 273 26.7;
#X obj 463 580 t f f;
#X obj 494 602 - 6;
#X obj 463 642 / 44100;
#X obj 463 663 * 4096;
#X msg 656 633 6;
#X obj 656 653 / 2;
#X obj 656 673 mtof;
#X floatatom 656 693 9 0 0 0 - - - 0;
#X text 723 694 Hz;
#X obj 754 654 / 2;
#X obj 754 673 mtof;
#X floatatom 754 693 9 0 0 0 - - - 0;
#X text 822 693 Hz;
#X msg 754 634 273;
#X obj 656 612 t b b;
#X obj 463 498 tgl 15 0 empty empty empty 0 -6 0 8 #fcfcfc #000000 #000000 0 1;
#X obj 463 458 loadbang;
#X msg 463 478 1;
#X obj 656 592 loadbang;
#X obj 468 245 loadbang;
#X obj 703 102 inlet;
#X obj 130 253 table \$0-window 4096;
#X obj 137 214 tabreceive~ \$0-window;
#X text 353 403 temporal lowpass;
#X text 355 415 parameter between 0 .. 100 %;
#X text 23 23 spectrum~;
#X text 120 23 draws the power of a spectrum in a logarithmic scale;
#X text 118 36 (by Thomas Musil);
#X obj 113 496 tabreceive~ \$0-lin_scope;
#X obj 100 564 tabsend~ \$0-lin_scope;
#X obj 463 685 tabread4 \$0-lin_scope;
#X obj 468 267 f \$0;
#X text 553 536 transformation to log scale;
#X msg 333 385 100;
#X obj 314 341 max 0.5;
#X obj 314 319 min 100;
#X obj 440 107 inlet;
#X text 96 81 audio sig;
#X text 700 81 ON/OFF;
#X text 427 86 (0 .. 100);
#X text 408 72 temporal lowpass;
#X obj 533 244 bng 15 250 50 0 empty empty empty 0 -6 0 8 #fcfcfc #000000 #000000;
#X obj 463 735 tabwrite \$0-s;
#X msg 468 296 \; \$1-s xticks 0 12 2;
#X msg 491 330 \; \$1-s yticks 0 5 2;
#X obj 462 516 metro 100;
#X obj 704 166 switch~ 4096 2;
#X obj 463 711 clip 0 100;
#X obj 773 101 loadbang;
#X msg 773 123 1;
#X connect 0 0 8 0;
#X connect 1 0 3 0;
#X connect 2 0 3 1;
#X connect 3 0 4 0;
#X connect 4 0 9 0;
#X connect 7 0 9 1;
#X connect 8 0 19 0;
#X connect 9 0 12 0;
#X connect 10 0 11 1;
#X connect 11 0 53 0;
#X connect 12 0 11 0;
#X connect 13 0 14 0;
#X connect 14 0 10 1;
#X connect 15 0 13 0;
#X connect 15 0 12 1;
#X connect 16 0 15 0;
#X connect 17 0 16 0;
#X connect 18 0 57 0;
#X connect 19 0 1 0;
#X connect 19 0 1 1;
#X connect 19 1 2 0;
#X connect 19 1 2 1;
#X connect 20 0 24 0;
#X connect 21 0 22 0;
#X connect 22 0 26 0;
#X connect 23 0 20 0;
#X connect 24 0 21 0;
#X connect 24 1 25 0;
#X connect 25 0 66 1;
#X connect 26 0 27 0;
#X connect 27 0 54 0;
#X connect 28 0 29 0;
#X connect 29 0 30 0;
#X connect 30 0 31 0;
#X connect 33 0 34 0;
#X connect 34 0 35 0;
#X connect 37 0 33 0;
#X connect 38 0 28 0;
#X connect 38 1 37 0;
#X connect 39 0 69 0;
#X connect 40 0 41 0;
#X connect 41 0 39 0;
#X connect 42 0 38 0;
#X connect 43 0 55 0;
#X connect 44 0 70 0;
#X connect 46 0 8 1;
#X connect 52 0 10 0;
#X connect 54 0 71 0;
#X connect 55 0 67 0;
#X connect 55 0 68 0;
#X connect 57 0 17 0;
#X connect 58 0 17 0;
#X connect 59 0 58 0;
#X connect 60 0 59 0;
#X connect 65 0 55 0;
#X connect 69 0 23 0;
#X connect 71 0 66 0;
#X connect 72 0 73 0;
#X connect 73 0 70 0;
#X restore 17 320 pd FFT_Analyse;
#X obj 63 299 inlet;
#X obj 17 299 inlet~;
#X obj 110 299 inlet;
#N canvas 0 22 450 300 (subpatch) 0;
#X array \$0-s 268 float 0;
#A color 0;
#A width 1;
#X coords 0 100 267 0 267 140 1;
#X xticks 0 12 2;
#X yticks 0 5 2;
#X restore 23 27 graph;
#X obj 297 42 cnv 15 1 1 empty empty -10 0 0 0 10 #fcfcfc #000000 0;
#X obj 297 154 cnv 15 1 1 empty empty -90 0 0 0 10 #fcfcfc #000000 0;
#X obj 297 98 cnv 15 1 1 empty empty -50 0 0 0 10 #fcfcfc #000000 0;
#X obj 297 70 cnv 15 1 1 empty empty -30 0 0 0 10 #fcfcfc #000000 0;
#X obj 297 126 cnv 15 1 1 empty empty -70 0 0 0 10 #fcfcfc #000000 0;
#X obj 18 171 cnv 15 1 1 empty empty 10 0 5 0 10 #fcfcfc #000000 0;
#X obj 66 171 cnv 15 1 1 empty empty 40 0 5 0 10 #fcfcfc #000000 0;
#X obj 115 171 cnv 15 1 1 empty empty 160 0 5 0 10 #fcfcfc #000000 0;
#X obj 162 171 cnv 15 1 1 empty empty 640 0 5 0 10 #fcfcfc #000000 0;
#X obj 210 171 cnv 15 1 1 empty empty 2k56 0 5 0 10 #fcfcfc #000000 0;
#X obj 258 171 cnv 15 1 1 empty empty 10k2 0 5 0 10 #fcfcfc #000000 0;
#X obj 138 184 cnv 15 1 1 empty empty 320 0 5 0 10 #fcfcfc #000000 0;
#X obj 282 184 cnv 15 1 1 empty empty 20k5 0 5 0 10 #fcfcfc #000000 0;
#X obj 42 181 cnv 15 1 1 empty empty 20 0 9 0 10 #fcfcfc #000000 0;
#X obj 90 184 cnv 15 1 1 empty empty 80 0 5 0 10 #fcfcfc #000000 0;
#X obj 186 184 cnv 15 1 1 empty empty 1k28 0 5 0 10 #fcfcfc #000000 0;
#X obj 234 184 cnv 15 1 1 empty empty 5k12 0 5 0 10 #fcfcfc #000000 0;
#X obj 46 168 cnv 15 1 1 empty empty | 0 7 0 10 #fcfcfc #000000 0;
#X obj 94 168 cnv 15 1 1 empty empty | 0 7 0 10 #fcfcfc #000000 0;
#X obj 142 168 cnv 15 1 1 empty empty | 0 7 0 10 #fcfcfc #000000 0;
#X obj 190 168 cnv 15 1 1 empty empty | 0 7 0 10 #fcfcfc #000000 0;
#X obj 238 168 cnv 15 1 1 empty empty | 0 7 0 10 #fcfcfc #000000 0;
#X obj 286 168 cnv 15 1 1 empty empty | 0 7 0 10 #fcfcfc #000000 0;
#X connect 1 0 0 1;
#X connect 2 0 0 0;
#X connect 3 0 0 2;
#X coords 0 -1 1 1 330 210 1 0 0;
#X restore 353 701 pd spectrolog;
#X obj 1097 87 bng 20 250 50 0 empty empty empty 0 -10 0 12 #fcfcfc #000000 #000000;
#X obj 105 74 tgl 20 0 empty empty empty 0 -10 0 12 #fcfcfc #000000 #000000 0 1;
#X obj 74 208 s clock;
#X obj 1655 734 pdcontrol;
#X msg 1655 706 dir;
#X obj 1655 679 bng 15 250 50 0 empty empty empty 17 7 0 10 #fcfcfc #000000 #000000;
#X floatatom 1578 646 5 0 0 0 - - - 0;
#N canvas 33 446 622 529 imports 0;
#X obj 6 6 declare -path ./audio/instruments;
#X obj 6 28 declare -path ./audio/objects;
#X obj 6 51 declare -path ./visuals/objects;
#X obj 6 97 declare -lib Gem;
#X obj 6 74 declare -path ./visuals/vfx;
#X obj 26 155 declare -path ./lib;
#X restore 103 10 pd imports;
#X obj 104 -13 declare -lib Gem;
#X obj 104 -38 declare -stdpath ./;
#X obj 1599 790 playdir2~;
#X obj 188 11 declare -path ./lib;
#X obj 1443 228 t b b;
#X msg 1444 287 1 10;
#X msg 1485 266 0;
#X obj 1516 266 del 10;
#X obj 1444 321 noise~;
#X obj 1498 322 line~;
#X obj 1460 368 *~;
#X obj 1519 292 0 10;
#X obj 1637 256 osc~ 0.54;
#X obj 1636 280 *~ 10;
#X obj 1635 305 +~ 15;
#X obj 1634 331 vd~ DEL;
#X obj 1634 354 *~ 0.5;
#X obj 1735 280 *~ 10;
#X obj 1734 305 +~ 15;
#X obj 1733 331 vd~ DEL;
#X obj 1733 354 *~ 0.5;
#X obj 1736 256 osc~ 0.21;
#X floatatom 1786 215 5 0 0 0 - - - 0;
#X floatatom 1686 220 5 0 0 0 - - - 0;
#X obj 1442 509 delwrite~ DEL 5000;
#X floatatom 1052 490 5 0 0 0 - - - 0;
#X text 1101 452 modulation index;
#X floatatom 1098 489 5 0 0 0 - - - 0;
#X text 1047 467 harmonicity;
#X floatatom 1150 485 5 0 0 0 - - - 0;
#X floatatom 1274 487 5 0 0 0 - - - 0;
#X text 1312 484 decay;
#N canvas 444 84 921 623 FM 0;
#N canvas 273 177 645 473 FM_synth 0;
#X obj 66 363 osc~;
#X obj 266 245 osc~ 40;
#X text 118 83 freq;
#X obj 74 312 +~;
#X text 475 173 modulation index;
#X text 298 77 harmonicity;
#X obj 253 141 *~;
#X obj 404 228 *~;
#X obj 266 282 *~;
#X obj 66 384 outlet~;
#X obj 74 80 inlet~;
#X obj 296 101 inlet~;
#X obj 429 171 inlet~;
#X connect 0 0 9 0;
#X connect 1 0 8 0;
#X connect 3 0 0 0;
#X connect 6 0 1 0;
#X connect 6 0 7 0;
#X connect 7 0 8 1;
#X connect 8 0 3 1;
#X connect 10 0 6 0;
#X connect 10 0 3 0;
#X connect 11 0 6 1;
#X connect 12 0 7 1;
#X restore 97 336 pd FM_synth;
#N canvas 629 351 408 265 env 0;
#X obj 41 19 inlet;
#X obj 41 127 line~;
#X obj 41 169 *~;
#X obj 41 190 outlet~;
#X obj 41 148 *~;
#X obj 41 40 bng 15 250 50 0 empty empty empty 17 7 0 10 #fcfcfc #000000 #000000;
#X obj 114 78 del 10;
#X obj 41 76 pack 1 3;
#X obj 112 98 pack 0 500;
#X obj 201 53 inlet;
#X floatatom 201 74 5 0 0 0 - - - 0;
#X text 238 74 decay time;
#X text 72 168 square the output;
#X text 67 151 square the output - steeper decay curve;
#X connect 0 0 5 0;
#X connect 1 0 4 0;
#X connect 1 0 4 1;
#X connect 2 0 3 0;
#X connect 4 0 2 0;
#X connect 4 0 2 1;
#X connect 5 0 6 0;
#X connect 5 0 7 0;
#X connect 6 0 8 0;
#X connect 7 0 1 0;
#X connect 8 0 1 0;
#X connect 9 0 10 0;
#X connect 10 0 8 1;
#X restore 231 239 pd env;
#X obj 96 143 mtof;
#X obj 96 180 t f b;
#N canvas 629 351 408 265 env 0;
#X obj 41 19 inlet;
#X obj 41 127 line~;
#X obj 41 169 *~;
#X obj 41 190 outlet~;
#X obj 41 148 *~;
#X obj 41 40 bng 15 250 50 0 empty empty empty 17 7 0 10 #fcfcfc #000000 #000000;
#X obj 114 78 del 10;
#X obj 41 76 pack 1 3;
#X obj 112 98 pack 0 500;
#X obj 201 53 inlet;
#X floatatom 201 74 5 0 0 0 - - - 0;
#X text 238 74 decay time;
#X text 72 168 square the output;
#X text 67 151 square the output - steeper decay curve;
#X connect 0 0 5 0;
#X connect 1 0 4 0;
#X connect 1 0 4 1;
#X connect 2 0 3 0;
#X connect 4 0 2 0;
#X connect 4 0 2 1;
#X connect 5 0 6 0;
#X connect 5 0 7 0;
#X connect 6 0 8 0;
#X connect 7 0 1 0;
#X connect 8 0 1 0;
#X connect 9 0 10 0;
#X connect 10 0 8 1;
#X restore 327 360 pd env;
#X obj 101 421 *~;
#X obj 222 295 *~;
#X obj 101 88 inlet;
#X obj 255 268 inlet;
#X obj 131 286 inlet;
#X obj 322 214 inlet;
#X obj 381 313 inlet;
#X obj 101 442 outlet~;
#X connect 0 0 5 0;
#X connect 1 0 6 0;
#X connect 2 0 3 0;
#X connect 3 0 0 0;
#X connect 3 1 1 0;
#X connect 3 1 4 0;
#X connect 4 0 5 1;
#X connect 5 0 12 0;
#X connect 6 0 0 2;
#X connect 7 0 2 0;
#X connect 8 0 6 1;
#X connect 9 0 0 1;
#X connect 10 0 1 1;
#X connect 11 0 4 1;
#X restore 1001 515 pd FM;
#X f 33;
#X text 1184 485 mod decay;
#X obj 998 462 + 11;
#X obj 1444 185 bng 20 250 50 0 empty empty empty 0 -10 0 12 #fcfcfc #000000 #000000;
#X floatatom 1010 364 5 0 0 0 - - - 0;
#X obj 996 598 throw~ main;
#X obj 441 72 catch~ main;
#X obj 1671 489 throw~ main;
#X obj 1597 858 throw~ main;
#X obj 1597 816 *~ 1;
#X msg 1654 761 \$1/sounds/ai2;
#X obj 1837 731 pdcontrol;
#X msg 1837 703 dir;
#X obj 1837 676 bng 15 250 50 0 empty empty empty 17 7 0 10 #fcfcfc #000000 #000000;
#X floatatom 1760 643 5 0 0 0 - - - 0;
#X obj 1781 787 playdir2~;
#X obj 1774 864 throw~ main;
#X obj 1254 708 pdcontrol;
#X msg 1254 680 dir;
#X obj 1254 653 bng 15 250 50 0 empty empty empty 17 7 0 10 #fcfcfc #000000 #000000;
#X floatatom 1177 620 5 0 0 0 - - - 0;
#X obj 1198 764 playdir2~;
#X obj 1194 863 throw~ main;
#X obj 1450 711 pdcontrol;
#X msg 1450 683 dir;
#X obj 1450 656 bng 15 250 50 0 empty empty empty 17 7 0 10 #fcfcfc #000000 #000000;
#X floatatom 1373 623 5 0 0 0 - - - 0;
#X obj 1394 767 playdir2~;
#X obj 1387 859 throw~ main;
#N canvas 1040 633 531 411 kicks 0;
#X obj 190 98 pdcontrol;
#X msg 190 70 dir;
#X obj 190 43 bng 15 250 50 0 empty empty empty 17 7 0 10 #fcfcfc #000000 #000000;
#X obj 229 45 loadbang;
#X obj 81 153 playdir2~;
#X msg 189 125 \$1/sounds/kicks;
#X obj 41 23 inlet;
#X obj 84 235 throw~ drums;
#X obj 82 195 *~ 1.5;
#X connect 0 0 5 0;
#X connect 1 0 0 0;
#X connect 2 0 1 0;
#X connect 3 0 2 0;
#X connect 4 0 8 0;
#X connect 5 0 4 1;
#X connect 6 0 4 0;
#X connect 8 0 7 0;
#X restore 207 -230 pd kicks;
#N canvas 1176 627 583 417 snares 0;
#X obj 190 98 pdcontrol;
#X msg 190 70 dir;
#X obj 190 43 bng 15 250 50 0 empty empty empty 17 7 0 10 #fcfcfc #000000 #000000;
#X obj 229 45 loadbang;
#X obj 84 210 playdir2~;
#X obj 41 23 inlet;
#X msg 189 125 \$1/sounds/snares;
#X obj 82 269 throw~ drums;
#X obj 84 235 *~ 1.2;
#X connect 0 0 6 0;
#X connect 1 0 0 0;
#X connect 2 0 1 0;
#X connect 3 0 2 0;
#X connect 4 0 8 0;
#X connect 5 0 4 0;
#X connect 6 0 4 1;
#X connect 8 0 7 0;
#X restore 649 -191 pd snares;
#N canvas 283 605 450 302 claps 0;
#X obj 190 98 pdcontrol;
#X msg 190 70 dir;
#X obj 190 43 bng 15 250 50 0 empty empty empty 17 7 0 10 #fcfcfc #000000 #000000;
#X obj 229 45 loadbang;
#X obj 82 208 playdir2~;
#X obj 41 23 inlet;
#X msg 189 125 \$1/sounds/claps;
#X obj 86 261 throw~ drums;
#X obj 81 237 *~ 1;
#X connect 0 0 6 0;
#X connect 1 0 0 0;
#X connect 2 0 1 0;
#X connect 3 0 2 0;
#X connect 4 0 8 0;
#X connect 5 0 4 0;
#X connect 6 0 4 1;
#X connect 8 0 7 0;
#X restore 823 -189 pd claps;
#N canvas 267 509 499 390 hihats 0;
#X obj 190 98 pdcontrol;
#X msg 190 70 dir;
#X obj 190 43 bng 15 250 50 0 empty empty empty 17 7 0 10 #fcfcfc #000000 #000000;
#X obj 229 45 loadbang;
#X obj 84 210 playdir2~;
#X obj 41 23 inlet;
#X msg 189 125 \$1/sounds/hihats;
#X obj 87 283 throw~ drums;
#X obj 84 239 *~ 0.5;
#X connect 0 0 6 0;
#X connect 1 0 0 0;
#X connect 2 0 1 0;
#X connect 3 0 2 0;
#X connect 4 0 8 0;
#X connect 5 0 4 0;
#X connect 6 0 4 1;
#X connect 8 0 7 0;
#X restore 910 -191 pd hihats;
#N canvas 136 612 505 432 openhihats 0;
#X obj 190 98 pdcontrol;
#X msg 190 70 dir;
#X obj 190 43 bng 15 250 50 0 empty empty empty 17 7 0 10 #fcfcfc #000000 #000000;
#X obj 229 45 loadbang;
#X obj 84 210 playdir2~;
#X obj 41 23 inlet;
#X msg 189 125 \$1/sounds/openhihats;
#X obj 102 294 throw~ drums;
#X obj 91 250 *~ 0.7;
#X connect 0 0 6 0;
#X connect 1 0 0 0;
#X connect 2 0 1 0;
#X connect 3 0 2 0;
#X connect 4 0 8 0;
#X connect 5 0 4 0;
#X connect 6 0 4 1;
#X connect 8 0 7 0;
#X restore 1127 -350 pd openhihats;
#N canvas 279 581 450 300 cymbals 0;
#X obj 190 98 pdcontrol;
#X msg 190 70 dir;
#X obj 190 43 bng 15 250 50 0 empty empty empty 17 7 0 10 #fcfcfc #000000 #000000;
#X obj 229 45 loadbang;
#X obj 107 173 playdir2~;
#X obj 41 23 inlet;
#X msg 189 125 \$1/sounds/cymbals;
#X obj 106 254 throw~ drums;
#X obj 107 198 *~ 0.6;
#X connect 0 0 6 0;
#X connect 1 0 0 0;
#X connect 2 0 1 0;
#X connect 3 0 2 0;
#X connect 4 0 8 0;
#X connect 5 0 4 0;
#X connect 6 0 4 1;
#X connect 8 0 7 0;
#X restore 1175 -498 pd cymbals;
#N canvas 253 597 850 443 cymbals2 0;
#X obj 190 98 pdcontrol;
#X msg 190 70 dir;
#X obj 190 43 bng 15 250 50 0 empty empty empty 17 7 0 10 #fcfcfc #000000 #000000;
#X obj 229 45 loadbang;
#X obj 91 177 playdir2~;
#X obj 41 23 inlet;
#X msg 189 125 \$1/sounds/cymbals2;
#X obj 65 267 throw~ drums;
#X obj 91 202 *~ 0.6;
#X connect 0 0 6 0;
#X connect 1 0 0 0;
#X connect 2 0 1 0;
#X connect 3 0 2 0;
#X connect 4 0 8 0;
#X connect 5 0 4 0;
#X connect 6 0 4 1;
#X connect 8 0 7 0;
#X restore 1264 -474 pd cymbals2;
#N canvas 291 653 450 300 fx 0;
#X obj 190 98 pdcontrol;
#X msg 190 70 dir;
#X obj 190 43 bng 15 250 50 0 empty empty empty 17 7 0 10 #fcfcfc #000000 #000000;
#X obj 229 45 loadbang;
#X obj 104 159 playdir2~;
#X obj 41 23 inlet;
#X obj 84 235 throw~ drums;
#X msg 189 125 \$1/sounds/fx;
#X floatatom 109 106 5 0 0 0 - - - 0;
#X obj 91 202 *~ 0.2;
#X connect 0 0 7 0;
#X connect 1 0 0 0;
#X connect 2 0 1 0;
#X connect 3 0 2 0;
#X connect 4 0 9 0;
#X connect 5 0 4 0;
#X connect 7 0 4 1;
#X connect 8 0 4 0;
#X connect 9 0 6 0;
#X restore 1500 -306 pd fx;
#N canvas 299 701 450 300 hihats2 0;
#X obj 190 98 pdcontrol;
#X msg 190 70 dir;
#X obj 190 43 bng 15 250 50 0 empty empty empty 17 7 0 10 #fcfcfc #000000 #000000;
#X obj 229 45 loadbang;
#X obj 84 210 playdir2~;
#X obj 41 23 inlet;
#X obj 84 270 throw~ drums;
#X msg 189 125 \$1/sounds/hihats2;
#X obj 91 243 *~ 0.6;
#X connect 0 0 7 0;
#X connect 1 0 0 0;
#X connect 2 0 1 0;
#X connect 3 0 2 0;
#X connect 4 0 8 0;
#X connect 5 0 4 0;
#X connect 7 0 4 1;
#X connect 8 0 6 0;
#X restore 990 -186 pd hihats2;
#N canvas 299 701 450 300 hihats3 0;
#X obj 190 98 pdcontrol;
#X msg 190 70 dir;
#X obj 190 43 bng 15 250 50 0 empty empty empty 17 7 0 10 #fcfcfc #000000 #000000;
#X obj 229 45 loadbang;
#X obj 84 210 playdir2~;
#X obj 41 23 inlet;
#X obj 75 266 throw~ drums;
#X msg 189 125 \$1/sounds/hihats3;
#X obj 89 232 *~ 0.6;
#X connect 0 0 7 0;
#X connect 1 0 0 0;
#X connect 2 0 1 0;
#X connect 3 0 2 0;
#X connect 4 0 8 0;
#X connect 5 0 4 0;
#X connect 7 0 4 1;
#X connect 8 0 6 0;
#X restore 1049 -258 pd hihats3;
#N canvas 299 701 450 300 misc 0;
#X obj 190 98 pdcontrol;
#X msg 190 70 dir;
#X obj 190 43 bng 15 250 50 0 empty empty empty 17 7 0 10 #fcfcfc #000000 #000000;
#X obj 229 45 loadbang;
#X obj 84 122 playdir2~;
#X obj 41 23 inlet;
#X obj 84 235 throw~ drums;
#X msg 189 125 \$1/sounds/misc;
#X obj 84 147 *~ 0.33;
#X connect 0 0 7 0;
#X connect 1 0 0 0;
#X connect 2 0 1 0;
#X connect 3 0 2 0;
#X connect 4 0 8 0;
#X connect 5 0 4 0;
#X connect 7 0 4 1;
#X connect 8 0 6 0;
#X restore 821 -144 pd misc;
#N canvas 299 701 450 300 modular 0;
#X obj 190 98 pdcontrol;
#X msg 190 70 dir;
#X obj 190 43 bng 15 250 50 0 empty empty empty 17 7 0 10 #fcfcfc #000000 #000000;
#X obj 229 45 loadbang;
#X obj 94 180 playdir2~;
#X obj 41 23 inlet;
#X obj 84 235 throw~ drums;
#X msg 189 125 \$1/sounds/modular;
#X obj 94 205 *~ 0.33;
#X connect 0 0 7 0;
#X connect 1 0 0 0;
#X connect 2 0 1 0;
#X connect 3 0 2 0;
#X connect 4 0 8 0;
#X connect 5 0 4 0;
#X connect 7 0 4 1;
#X connect 8 0 6 0;
#X restore 1540 -254 pd modular;
#N canvas 299 701 450 300 perc 0;
#X obj 190 98 pdcontrol;
#X msg 190 70 dir;
#X obj 190 43 bng 15 250 50 0 empty empty empty 17 7 0 10 #fcfcfc #000000 #000000;
#X obj 229 45 loadbang;
#X obj 84 210 playdir2~;
#X obj 41 23 inlet;
#X obj 84 235 throw~ drums;
#X msg 189 125 \$1/sounds/perc;
#X connect 0 0 7 0;
#X connect 1 0 0 0;
#X connect 2 0 1 0;
#X connect 3 0 2 0;
#X connect 4 0 6 0;
#X connect 5 0 4 0;
#X connect 7 0 4 1;
#X restore 657 -140 pd perc;
#N canvas 315 744 450 300 perc2 0;
#X obj 190 98 pdcontrol;
#X msg 190 70 dir;
#X obj 190 43 bng 15 250 50 0 empty empty empty 17 7 0 10 #fcfcfc #000000 #000000;
#X obj 229 45 loadbang;
#X obj 90 142 playdir2~;
#X obj 41 23 inlet;
#X obj 84 235 throw~ drums;
#X msg 189 125 \$1/sounds/perc2;
#X obj 90 167 *~ 0.33;
#X connect 0 0 7 0;
#X connect 1 0 0 0;
#X connect 2 0 1 0;
#X connect 3 0 2 0;
#X connect 4 0 8 0;
#X connect 5 0 4 0;
#X connect 7 0 4 1;
#X connect 8 0 6 0;
#X restore 735 -139 pd perc2;
#N canvas 275 557 450 300 snares2 0;
#X obj 190 98 pdcontrol;
#X msg 190 70 dir;
#X obj 190 43 bng 15 250 50 0 empty empty empty 17 7 0 10 #fcfcfc #000000 #000000;
#X obj 229 45 loadbang;
#X obj 84 210 playdir2~;
#X obj 41 23 inlet;
#X obj 83 271 throw~ drums;
#X msg 189 125 \$1/sounds/snares2;
#X obj 84 235 *~ 1;
#X connect 0 0 7 0;
#X connect 1 0 0 0;
#X connect 2 0 1 0;
#X connect 3 0 2 0;
#X connect 4 0 8 0;
#X connect 5 0 4 0;
#X connect 7 0 4 1;
#X connect 8 0 6 0;
#X restore 733 -186 pd snares2;
#N canvas 255 437 450 300 wine-glass 0;
#X obj 190 98 pdcontrol;
#X msg 190 70 dir;
#X obj 190 43 bng 15 250 50 0 empty empty empty 17 7 0 10 #fcfcfc #000000 #000000;
#X obj 229 45 loadbang;
#X obj 89 162 playdir2~;
#X obj 41 23 inlet;
#X obj 84 235 throw~ drums;
#X msg 189 125 \$1/sounds/wine-glass;
#X obj 89 187 *~ 0.4;
#X connect 0 0 7 0;
#X connect 1 0 0 0;
#X connect 2 0 1 0;
#X connect 3 0 2 0;
#X connect 4 0 8 0;
#X connect 5 0 4 0;
#X connect 7 0 4 1;
#X connect 8 0 6 0;
#X restore 1669 -300 pd wine-glass;
#N canvas 283 495 829 549 ai4 0;
#X obj 190 98 pdcontrol;
#X msg 190 70 dir;
#X obj 190 43 bng 15 250 50 0 empty empty empty 17 7 0 10 #fcfcfc #000000 #000000;
#X obj 229 45 loadbang;
#X obj 89 157 playdir2~;
#X obj 41 23 inlet;
#X obj 99 357 throw~ ai;
#X msg 189 125 \$1/sounds/ai4;
#X obj 359 243 *~ -1;
#X obj 317 289 rev3~ 111 79 3000 92;
#X obj 293 335 *~ 0.3;
#X obj 323 192 *~ 1;
#X obj 89 182 *~ 0.3;
#X connect 0 0 7 0;
#X connect 1 0 0 0;
#X connect 2 0 1 0;
#X connect 3 0 2 0;
#X connect 4 0 12 0;
#X connect 5 0 4 0;
#X connect 7 0 4 1;
#X connect 8 0 9 1;
#X connect 9 0 10 0;
#X connect 10 0 6 0;
#X connect 11 0 8 0;
#X connect 11 0 9 0;
#X connect 12 0 6 0;
#X connect 12 0 11 0;
#X restore 1666 -331 pd ai4;
#N canvas 473 495 829 549 aibass 0;
#X obj 190 98 pdcontrol;
#X msg 190 70 dir;
#X obj 190 43 bng 15 250 50 0 empty empty empty 17 7 0 10 #fcfcfc #000000 #000000;
#X obj 229 45 loadbang;
#X obj 89 157 playdir2~;
#X obj 41 23 inlet;
#X obj 84 235 throw~ ai;
#X msg 189 125 \$1/sounds/aibass;
#X obj 89 182 *~ 0.33;
#X floatatom 216 226 5 0 0 0 - - - 0;
#X connect 0 0 7 0;
#X connect 1 0 0 0;
#X connect 2 0 1 0;
#X connect 3 0 2 0;
#X connect 4 0 8 0;
#X connect 5 0 4 0;
#X connect 7 0 4 1;
#X connect 8 0 6 0;
#X connect 9 0 4 0;
#X restore 1723 -326 pd aibass;
#N canvas 291 495 829 549 pad 0;
#X obj 190 98 pdcontrol;
#X msg 190 70 dir;
#X obj 190 43 bng 15 250 50 0 empty empty empty 17 7 0 10 #fcfcfc #000000 #000000;
#X obj 229 45 loadbang;
#X obj 89 157 playdir2~;
#X obj 41 23 inlet;
#X obj 84 235 throw~ ai;
#X msg 189 125 \$1/sounds/pads;
#X obj 89 182 *~ 0.13;
#X connect 0 0 7 0;
#X connect 1 0 0 0;
#X connect 2 0 1 0;
#X connect 3 0 2 0;
#X connect 4 0 8 0;
#X connect 5 0 4 0;
#X connect 7 0 4 1;
#X connect 8 0 6 0;
#X restore 1669 -265 pd pad;
#N canvas 303 495 829 549 atmos 0;
#X obj 190 98 pdcontrol;
#X msg 190 70 dir;
#X obj 190 43 bng 15 250 50 0 empty empty empty 17 7 0 10 #fcfcfc #000000 #000000;
#X obj 229 45 loadbang;
#X obj 89 157 playdir2~;
#X obj 41 23 inlet;
#X obj 84 235 throw~ ai;
#X msg 189 125 \$1/sounds/atmos;
#X obj 89 182 *~ 0.43;
#X connect 0 0 7 0;
#X connect 1 0 0 0;
#X connect 2 0 1 0;
#X connect 3 0 2 0;
#X connect 4 0 8 0;
#X connect 5 0 4 0;
#X connect 7 0 4 1;
#X connect 8 0 6 0;
#X restore 1752 -264 pd atmos;
#N canvas 299 495 829 549 crunch 0;
#X obj 190 98 pdcontrol;
#X msg 190 70 dir;
#X obj 190 43 bng 15 250 50 0 empty empty empty 17 7 0 10 #fcfcfc #000000 #000000;
#X obj 229 45 loadbang;
#X obj 89 157 playdir2~;
#X obj 41 23 inlet;
#X obj 84 235 throw~ ai;
#X msg 189 125 \$1/sounds/crunch;
#X obj 89 182 *~ 0.3;
#X connect 0 0 7 0;
#X connect 1 0 0 0;
#X connect 2 0 1 0;
#X connect 3 0 2 0;
#X connect 4 0 8 0;
#X connect 5 0 4 0;
#X connect 7 0 4 1;
#X connect 8 0 6 0;
#X restore 1666 -373 pd crunch;
#N canvas 299 495 829 549 vocals2 0;
#X obj 190 98 pdcontrol;
#X msg 190 70 dir;
#X obj 190 43 bng 15 250 50 0 empty empty empty 17 7 0 10 #fcfcfc #000000 #000000;
#X obj 229 45 loadbang;
#X obj 89 157 playdir2~;
#X obj 41 23 inlet;
#X obj 84 235 throw~ ai;
#X msg 189 125 \$1/sounds/vocals2;
#X floatatom 115 72 5 0 0 0 - - - 0;
#X obj 89 182 *~ 0;
#X connect 0 0 7 0;
#X connect 1 0 0 0;
#X connect 2 0 1 0;
#X connect 3 0 2 0;
#X connect 4 0 9 0;
#X connect 5 0 4 0;
#X connect 7 0 4 1;
#X connect 8 0 4 0;
#X connect 9 0 6 0;
#X restore 1746 -376 pd vocals2;
#N canvas 210 495 829 549 bass 0;
#X obj 190 98 pdcontrol;
#X msg 190 70 dir;
#X obj 190 43 bng 15 250 50 0 empty empty empty 17 7 0 10 #fcfcfc #000000 #000000;
#X obj 229 45 loadbang;
#X obj 89 157 playdir2~;
#X obj 41 23 inlet;
#X obj 84 235 throw~ ai;
#X msg 189 125 \$1/sounds/bass;
#X floatatom 118 64 5 0 0 0 - - - 0;
#X obj 89 182 *~ 0.33;
#X connect 0 0 7 0;
#X connect 1 0 0 0;
#X connect 2 0 1 0;
#X connect 3 0 2 0;
#X connect 4 0 9 0;
#X connect 5 0 4 0;
#X connect 7 0 4 1;
#X connect 8 0 4 0;
#X connect 9 0 6 0;
#X restore 1448 -389 pd bass;
#N canvas 307 495 829 549 glitch 0;
#X obj 190 98 pdcontrol;
#X msg 190 70 dir;
#X obj 190 43 bng 15 250 50 0 empty empty empty 17 7 0 10 #fcfcfc #000000 #000000;
#X obj 229 45 loadbang;
#X obj 89 157 playdir2~;
#X obj 41 23 inlet;
#X obj 84 235 throw~ ai;
#X msg 189 125 \$1/sounds/glitch;
#X obj 89 182 *~ 0.33;
#X connect 0 0 7 0;
#X connect 1 0 0 0;
#X connect 2 0 1 0;
#X connect 3 0 2 0;
#X connect 4 0 8 0;
#X connect 5 0 4 0;
#X connect 7 0 4 1;
#X connect 8 0 6 0;
#X restore 1529 -387 pd glitch;
#N canvas 321 465 829 549 toms 0;
#X obj 190 98 pdcontrol;
#X msg 190 70 dir;
#X obj 190 43 bng 15 250 50 0 empty empty empty 17 7 0 10 #fcfcfc #000000 #000000;
#X obj 229 45 loadbang;
#X obj 89 157 playdir2~;
#X obj 41 23 inlet;
#X obj 84 235 throw~ ai;
#X msg 189 125 \$1/sounds/toms;
#X obj 88 181 *~ 1.5;
#X floatatom 110 66 5 0 0 0 - - - 0;
#X connect 0 0 7 0;
#X connect 1 0 0 0;
#X connect 2 0 1 0;
#X connect 3 0 2 0;
#X connect 4 0 8 0;
#X connect 5 0 4 0;
#X connect 7 0 4 1;
#X connect 8 0 6 0;
#X connect 9 0 4 0;
#X restore 1617 -379 pd toms;
#N canvas 303 495 829 549 wooddblock 0;
#X obj 190 98 pdcontrol;
#X msg 190 70 dir;
#X obj 190 43 bng 15 250 50 0 empty empty empty 17 7 0 10 #fcfcfc #000000 #000000;
#X obj 229 45 loadbang;
#X obj 89 157 playdir2~;
#X obj 41 23 inlet;
#X obj 84 235 throw~ ai;
#X msg 189 125 \$1/sounds/woodblock;
#X obj 89 182 *~ 0.33;
#X connect 0 0 7 0;
#X connect 1 0 0 0;
#X connect 2 0 1 0;
#X connect 3 0 2 0;
#X connect 4 0 8 0;
#X connect 5 0 4 0;
#X connect 7 0 4 1;
#X connect 8 0 6 0;
#X restore 1468 -338 pd wooddblock;
#N canvas 299 495 829 549 metallic 0;
#X obj 190 98 pdcontrol;
#X msg 190 70 dir;
#X obj 190 43 bng 15 250 50 0 empty empty empty 17 7 0 10 #fcfcfc #000000 #000000;
#X obj 229 45 loadbang;
#X obj 89 157 playdir2~;
#X obj 41 23 inlet;
#X obj 84 235 throw~ ai;
#X msg 189 125 \$1/sounds/metallic;
#X obj 89 182 *~ 0.33;
#X connect 0 0 7 0;
#X connect 1 0 0 0;
#X connect 2 0 1 0;
#X connect 3 0 2 0;
#X connect 4 0 8 0;
#X connect 5 0 4 0;
#X connect 7 0 4 1;
#X connect 8 0 6 0;
#X restore 1568 -288 pd metallic;
#X obj 2976 -893 bng 15 250 50 0 empty empty empty 17 7 0 10 #fcfcfc #000000 #000000;
#X obj 228 -564 prob 95;
#X obj 238 -466 else/sequencer;
#N canvas -280 298 1920 995 pattern_bank 0;
#X listbox 216 193 70 0 0 0 - - - 0;
#X obj 74 495 else/sequencer;
#X floatatom 74 520 5 0 0 0 - - - 0;
#N canvas 0 0 1920 995 patterns 0;
#X obj 111 233 print;
#X obj 83 40 bng 15 250 50 0 empty empty empty 17 7 0 10 #fcfcfc #000000 #000000;
#X floatatom 152 30 5 0 0 0 - - - 0;
#X floatatom 155 111 5 0 0 0 - - - 0;
#X floatatom 169 186 5 0 0 0 - - - 0;
#X obj 111 208 randseq;
#X listbox 88 287 81 0 0 0 - - - 0;
#X obj 94 259 list;
#X obj 702 252 print;
#X floatatom 743 49 5 0 0 0 - - - 0;
#X floatatom 746 130 5 0 0 0 - - - 0;
#X floatatom 778 208 5 0 0 0 - - - 0;
#X obj 702 227 randseq;
#X listbox 679 306 81 0 0 0 - - - 0;
#X obj 685 278 list;
#X obj 1299 242 print;
#X floatatom 1340 39 5 0 0 0 - - - 0;
#X floatatom 1343 120 5 0 0 0 - - - 0;
#X floatatom 1357 195 5 0 0 0 - - - 0;
#X obj 1299 217 randseq;
#X listbox 1276 296 81 0 0 0 - - - 0;
#X obj 1282 268 list;
#X obj 228 874 outlet;
#X obj 622 855 outlet;
#X obj 1209 859 outlet;
#X obj 129 501 print;
#X floatatom 157 332 5 0 0 0 - - - 0;
#X floatatom 173 379 5 0 0 0 - - - 0;
#X floatatom 187 454 5 0 0 0 - - - 0;
#X obj 129 476 randseq;
#X listbox 106 555 81 0 0 0 - - - 0;
#X obj 112 527 list;
#X obj 720 520 print;
#X floatatom 721 358 5 0 0 0 - - - 0;
#X floatatom 764 398 5 0 0 0 - - - 0;
#X floatatom 778 473 5 0 0 0 - - - 0;
#X obj 720 495 randseq;
#X listbox 697 574 81 0 0 0 - - - 0;
#X obj 703 546 list;
#X obj 1317 510 print;
#X floatatom 1334 348 5 0 0 0 - - - 0;
#X floatatom 1361 388 5 0 0 0 - - - 0;
#X floatatom 1375 463 5 0 0 0 - - - 0;
#X obj 1317 485 randseq;
#X listbox 1294 564 81 0 0 0 - - - 0;
#X obj 1300 536 list;
#X obj 103 851 outlet;
#X obj 686 851 outlet;
#X obj 1304 852 outlet;
#X obj 85 -29 inlet;
#X obj 772 -17 inlet;
#X obj 988 -16 inlet;
#X obj 1199 -20 inlet;
#X connect 1 0 5 0;
#X connect 1 0 12 0;
#X connect 1 0 19 0;
#X connect 1 0 29 0;
#X connect 1 0 36 0;
#X connect 1 0 43 0;
#X connect 2 0 5 1;
#X connect 3 0 5 2;
#X connect 4 0 5 3;
#X connect 5 0 0 0;
#X connect 5 0 7 0;
#X connect 6 0 22 0;
#X connect 7 0 6 0;
#X connect 9 0 12 1;
#X connect 10 0 12 2;
#X connect 11 0 12 3;
#X connect 12 0 8 0;
#X connect 12 0 14 0;
#X connect 13 0 23 0;
#X connect 14 0 13 0;
#X connect 16 0 19 1;
#X connect 17 0 19 2;
#X connect 18 0 19 3;
#X connect 19 0 15 0;
#X connect 19 0 21 0;
#X connect 20 0 24 0;
#X connect 21 0 20 0;
#X connect 26 0 29 1;
#X connect 27 0 29 2;
#X connect 28 0 29 3;
#X connect 29 0 25 0;
#X connect 29 0 31 0;
#X connect 30 0 46 0;
#X connect 31 0 30 0;
#X connect 33 0 36 1;
#X connect 34 0 36 2;
#X connect 35 0 36 3;
#X connect 36 0 32 0;
#X connect 36 0 38 0;
#X connect 37 0 47 0;
#X connect 38 0 37 0;
#X connect 40 0 43 1;
#X connect 41 0 43 2;
#X connect 42 0 43 3;
#X connect 43 0 39 0;
#X connect 43 0 45 0;
#X connect 44 0 48 0;
#X connect 45 0 44 0;
#X connect 49 0 1 0;
#X connect 50 0 2 0;
#X connect 50 0 26 0;
#X connect 50 0 9 0;
#X connect 50 0 33 0;
#X connect 50 0 16 0;
#X connect 50 0 40 0;
#X connect 51 0 3 0;
#X connect 51 0 27 0;
#X connect 51 0 10 0;
#X connect 51 0 34 0;
#X connect 51 0 17 0;
#X connect 51 0 41 0;
#X connect 52 0 18 0;
#X connect 52 0 11 0;
#X connect 52 0 42 0;
#X connect 52 0 35 0;
#X connect 52 0 28 0;
#X connect 52 0 4 0;
#X restore 216 143 pd patterns;
#X f 51;
#X obj 214 116 bng 15 250 50 0 empty empty empty 17 7 0 10 #fcfcfc #000000 #000000;
#X listbox 287 237 70 0 0 0 - - - 0;
#X listbox 357 288 70 0 0 0 - - - 0;
#X listbox 428 336 70 0 0 0 - - - 0;
#X listbox 501 387 70 0 0 0 - - - 0;
#X listbox 581 429 72 0 0 0 - - - 0;
#X floatatom 337 114 5 0 0 0 - - - 0;
#X floatatom 449 118 5 0 0 0 - - - 0;
#X floatatom 566 116 5 0 0 0 - - - 0;
#X obj 197 494 else/sequencer;
#X floatatom 197 519 5 0 0 0 - - - 0;
#X obj 312 501 else/sequencer;
#X floatatom 312 526 5 0 0 0 - - - 0;
#X obj 429 502 else/sequencer;
#X floatatom 429 527 6 0 0 0 - - - 0;
#X obj 554 503 else/sequencer;
#X floatatom 555 532 6 0 0 0 - - - 0;
#X obj 671 498 else/sequencer;
#X floatatom 674 527 6 0 0 0 - - - 0;
#X obj 332 23 inlet;
#X obj 444 24 inlet;
#X obj 563 21 inlet;
#X obj 211 24 inlet;
#X obj 72 636 outlet;
#X obj 193 635 outlet;
#X obj 315 631 outlet;
#X obj 436 630 outlet;
#X obj 559 626 outlet;
#X obj 680 625 outlet;
#X obj 72 403 inlet;
#X connect 0 0 1 1;
#X connect 1 0 2 0;
#X connect 2 0 27 0;
#X connect 3 0 7 0;
#X connect 3 1 0 0;
#X connect 3 2 5 0;
#X connect 3 3 8 0;
#X connect 3 4 6 0;
#X connect 3 5 9 0;
#X connect 4 0 3 0;
#X connect 5 0 13 1;
#X connect 6 0 15 1;
#X connect 7 0 17 1;
#X connect 8 0 19 1;
#X connect 9 0 21 1;
#X connect 10 0 3 1;
#X connect 11 0 3 2;
#X connect 12 0 3 3;
#X connect 13 0 14 0;
#X connect 14 0 28 0;
#X connect 15 0 16 0;
#X connect 16 0 29 0;
#X connect 17 0 18 0;
#X connect 18 0 30 0;
#X connect 19 0 20 0;
#X connect 20 0 31 0;
#X connect 21 0 22 0;
#X connect 22 0 32 0;
#X connect 23 0 10 0;
#X connect 24 0 11 0;
#X connect 25 0 12 0;
#X connect 26 0 4 0;
#X connect 33 0 1 0;
#X connect 33 0 13 0;
#X connect 33 0 15 0;
#X connect 33 0 17 0;
#X connect 33 0 19 0;
#X connect 33 0 21 0;
#X restore 895 -413 pd pattern_bank;
#X f 35;
#X floatatom 1016 -437 5 0 0 0 - - - 0;
#X floatatom 1065 -436 5 0 0 0 - - - 0;
#X floatatom 1108 -435 5 0 0 0 - - - 0;
#X obj 862 -480 r clock;
#X obj 955 -464 bng 20 250 50 0 empty empty empty 0 -10 0 12 #fcfcfc #000000 #000000;
#N canvas -280 298 1920 995 pattern_bank 0;
#X listbox 216 193 70 0 0 0 - - - 0;
#X obj 74 495 else/sequencer;
#X floatatom 74 520 5 0 0 0 - - - 0;
#N canvas 0 0 1920 995 patterns 0;
#X obj 111 233 print;
#X obj 83 40 bng 15 250 50 0 empty empty empty 17 7 0 10 #fcfcfc #000000 #000000;
#X floatatom 152 30 5 0 0 0 - - - 0;
#X floatatom 155 111 5 0 0 0 - - - 0;
#X floatatom 169 186 5 0 0 0 - - - 0;
#X obj 111 208 randseq;
#X listbox 88 287 81 0 0 0 - - - 0;
#X obj 94 259 list;
#X obj 702 252 print;
#X floatatom 743 49 5 0 0 0 - - - 0;
#X floatatom 746 130 5 0 0 0 - - - 0;
#X floatatom 778 208 5 0 0 0 - - - 0;
#X obj 702 227 randseq;
#X listbox 679 306 81 0 0 0 - - - 0;
#X obj 685 278 list;
#X obj 1299 242 print;
#X floatatom 1340 39 5 0 0 0 - - - 0;
#X floatatom 1343 120 5 0 0 0 - - - 0;
#X floatatom 1357 195 5 0 0 0 - - - 0;
#X obj 1299 217 randseq;
#X listbox 1276 296 81 0 0 0 - - - 0;
#X obj 1282 268 list;
#X obj 228 874 outlet;
#X obj 622 855 outlet;
#X obj 1209 859 outlet;
#X obj 129 501 print;
#X floatatom 157 332 5 0 0 0 - - - 0;
#X floatatom 173 379 5 0 0 0 - - - 0;
#X floatatom 187 454 5 0 0 0 - - - 0;
#X obj 129 476 randseq;
#X listbox 106 555 81 0 0 0 - - - 0;
#X obj 112 527 list;
#X obj 720 520 print;
#X floatatom 721 358 5 0 0 0 - - - 0;
#X floatatom 764 398 5 0 0 0 - - - 0;
#X floatatom 778 473 5 0 0 0 - - - 0;
#X obj 720 495 randseq;
#X listbox 697 574 81 0 0 0 - - - 0;
#X obj 703 546 list;
#X obj 1317 510 print;
#X floatatom 1334 348 5 0 0 0 - - - 0;
#X floatatom 1361 388 5 0 0 0 - - - 0;
#X floatatom 1375 463 5 0 0 0 - - - 0;
#X obj 1317 485 randseq;
#X listbox 1294 564 81 0 0 0 - - - 0;
#X obj 1300 536 list;
#X obj 103 851 outlet;
#X obj 686 851 outlet;
#X obj 1304 852 outlet;
#X obj 85 -29 inlet;
#X obj 772 -17 inlet;
#X obj 988 -16 inlet;
#X obj 1199 -20 inlet;
#X connect 1 0 5 0;
#X connect 1 0 12 0;
#X connect 1 0 19 0;
#X connect 1 0 29 0;
#X connect 1 0 36 0;
#X connect 1 0 43 0;
#X connect 2 0 5 1;
#X connect 3 0 5 2;
#X connect 4 0 5 3;
#X connect 5 0 0 0;
#X connect 5 0 7 0;
#X connect 6 0 22 0;
#X connect 7 0 6 0;
#X connect 9 0 12 1;
#X connect 10 0 12 2;
#X connect 11 0 12 3;
#X connect 12 0 8 0;
#X connect 12 0 14 0;
#X connect 13 0 23 0;
#X connect 14 0 13 0;
#X connect 16 0 19 1;
#X connect 17 0 19 2;
#X connect 18 0 19 3;
#X connect 19 0 15 0;
#X connect 19 0 21 0;
#X connect 20 0 24 0;
#X connect 21 0 20 0;
#X connect 26 0 29 1;
#X connect 27 0 29 2;
#X connect 28 0 29 3;
#X connect 29 0 25 0;
#X connect 29 0 31 0;
#X connect 30 0 46 0;
#X connect 31 0 30 0;
#X connect 33 0 36 1;
#X connect 34 0 36 2;
#X connect 35 0 36 3;
#X connect 36 0 32 0;
#X connect 36 0 38 0;
#X connect 37 0 47 0;
#X connect 38 0 37 0;
#X connect 40 0 43 1;
#X connect 41 0 43 2;
#X connect 42 0 43 3;
#X connect 43 0 39 0;
#X connect 43 0 45 0;
#X connect 44 0 48 0;
#X connect 45 0 44 0;
#X connect 49 0 1 0;
#X connect 50 0 2 0;
#X connect 50 0 26 0;
#X connect 50 0 9 0;
#X connect 50 0 33 0;
#X connect 50 0 16 0;
#X connect 50 0 40 0;
#X connect 51 0 3 0;
#X connect 51 0 27 0;
#X connect 51 0 10 0;
#X connect 51 0 34 0;
#X connect 51 0 17 0;
#X connect 51 0 41 0;
#X connect 52 0 18 0;
#X connect 52 0 11 0;
#X connect 52 0 42 0;
#X connect 52 0 35 0;
#X connect 52 0 28 0;
#X connect 52 0 4 0;
#X restore 216 143 pd patterns;
#X f 51;
#X obj 214 116 bng 15 250 50 0 empty empty empty 17 7 0 10 #fcfcfc #000000 #000000;
#X listbox 287 237 70 0 0 0 - - - 0;
#X listbox 357 288 70 0 0 0 - - - 0;
#X listbox 428 336 70 0 0 0 - - - 0;
#X listbox 501 387 70 0 0 0 - - - 0;
#X listbox 581 429 72 0 0 0 - - - 0;
#X floatatom 337 114 5 0 0 0 - - - 0;
#X floatatom 449 118 5 0 0 0 - - - 0;
#X floatatom 566 116 5 0 0 0 - - - 0;
#X obj 197 494 else/sequencer;
#X floatatom 197 519 5 0 0 0 - - - 0;
#X obj 312 501 else/sequencer;
#X floatatom 312 526 5 0 0 0 - - - 0;
#X obj 429 502 else/sequencer;
#X floatatom 429 527 6 0 0 0 - - - 0;
#X obj 554 503 else/sequencer;
#X floatatom 555 532 6 0 0 0 - - - 0;
#X obj 671 498 else/sequencer;
#X floatatom 674 527 6 0 0 0 - - - 0;
#X obj 332 23 inlet;
#X obj 444 24 inlet;
#X obj 563 21 inlet;
#X obj 211 24 inlet;
#X obj 72 636 outlet;
#X obj 193 635 outlet;
#X obj 315 631 outlet;
#X obj 436 630 outlet;
#X obj 559 626 outlet;
#X obj 680 625 outlet;
#X obj 72 403 inlet;
#X connect 0 0 1 1;
#X connect 1 0 2 0;
#X connect 2 0 27 0;
#X connect 3 0 7 0;
#X connect 3 1 0 0;
#X connect 3 2 5 0;
#X connect 3 3 8 0;
#X connect 3 4 6 0;
#X connect 3 5 9 0;
#X connect 4 0 3 0;
#X connect 5 0 13 1;
#X connect 6 0 15 1;
#X connect 7 0 17 1;
#X connect 8 0 19 1;
#X connect 9 0 21 1;
#X connect 10 0 3 1;
#X connect 11 0 3 2;
#X connect 12 0 3 3;
#X connect 13 0 14 0;
#X connect 14 0 28 0;
#X connect 15 0 16 0;
#X connect 16 0 29 0;
#X connect 17 0 18 0;
#X connect 18 0 30 0;
#X connect 19 0 20 0;
#X connect 20 0 31 0;
#X connect 21 0 22 0;
#X connect 22 0 32 0;
#X connect 23 0 10 0;
#X connect 24 0 11 0;
#X connect 25 0 12 0;
#X connect 26 0 4 0;
#X connect 33 0 1 0;
#X connect 33 0 13 0;
#X connect 33 0 15 0;
#X connect 33 0 17 0;
#X connect 33 0 19 0;
#X connect 33 0 21 0;
#X restore 674 -519 pd pattern_bank;
#X f 35;
#X floatatom 795 -543 5 0 0 0 - - - 0;
#X floatatom 844 -542 5 0 0 0 - - - 0;
#X floatatom 887 -541 5 0 0 0 - - - 0;
#X obj 734 -570 bng 20 250 50 0 empty empty empty 0 -10 0 12 #fcfcfc #000000 #000000;
#X obj 360 -436 else/sequencer;
#X msg 345 -625 -;
#X msg 347 -587 1 - - - - 2 - -;
#X msg 436 -519 - - 2 -;
#X obj 183 -610 prob 95;
#X obj 413 -679 prob 95;
#X obj 206 -320 + 0;
#X obj 382 -323 + 0;
#X msg 453 -545 2 - - - -;
#X msg 415 -625 11 - - - -;
#N canvas -280 298 1920 995 pattern_bank 0;
#X listbox 216 193 70 0 0 0 - - - 0;
#X obj 74 495 else/sequencer;
#X floatatom 74 520 5 0 0 0 - - - 0;
#N canvas 0 0 1920 995 patterns 0;
#X obj 111 233 print;
#X obj 83 40 bng 15 250 50 0 empty empty empty 17 7 0 10 #fcfcfc #000000 #000000;
#X floatatom 152 30 5 0 0 0 - - - 0;
#X floatatom 155 111 5 0 0 0 - - - 0;
#X floatatom 169 186 5 0 0 0 - - - 0;
#X obj 111 208 randseq;
#X listbox 88 287 81 0 0 0 - - - 0;
#X obj 94 259 list;
#X obj 702 252 print;
#X floatatom 743 49 5 0 0 0 - - - 0;
#X floatatom 746 130 5 0 0 0 - - - 0;
#X floatatom 778 208 5 0 0 0 - - - 0;
#X obj 702 227 randseq;
#X listbox 679 306 81 0 0 0 - - - 0;
#X obj 685 278 list;
#X obj 1299 242 print;
#X floatatom 1340 39 5 0 0 0 - - - 0;
#X floatatom 1343 120 5 0 0 0 - - - 0;
#X floatatom 1357 195 5 0 0 0 - - - 0;
#X obj 1299 217 randseq;
#X listbox 1276 296 81 0 0 0 - - - 0;
#X obj 1282 268 list;
#X obj 228 874 outlet;
#X obj 622 855 outlet;
#X obj 1209 859 outlet;
#X obj 129 501 print;
#X floatatom 157 332 5 0 0 0 - - - 0;
#X floatatom 173 379 5 0 0 0 - - - 0;
#X floatatom 187 454 5 0 0 0 - - - 0;
#X obj 129 476 randseq;
#X listbox 106 555 81 0 0 0 - - - 0;
#X obj 112 527 list;
#X obj 720 520 print;
#X floatatom 721 358 5 0 0 0 - - - 0;
#X floatatom 764 398 5 0 0 0 - - - 0;
#X floatatom 778 473 5 0 0 0 - - - 0;
#X obj 720 495 randseq;
#X listbox 697 574 81 0 0 0 - - - 0;
#X obj 703 546 list;
#X obj 1317 510 print;
#X floatatom 1334 348 5 0 0 0 - - - 0;
#X floatatom 1361 388 5 0 0 0 - - - 0;
#X floatatom 1375 463 5 0 0 0 - - - 0;
#X obj 1317 485 randseq;
#X listbox 1294 564 81 0 0 0 - - - 0;
#X obj 1300 536 list;
#X obj 103 851 outlet;
#X obj 686 851 outlet;
#X obj 1304 852 outlet;
#X obj 85 -29 inlet;
#X obj 772 -17 inlet;
#X obj 988 -16 inlet;
#X obj 1199 -20 inlet;
#X connect 1 0 5 0;
#X connect 1 0 12 0;
#X connect 1 0 19 0;
#X connect 1 0 29 0;
#X connect 1 0 36 0;
#X connect 1 0 43 0;
#X connect 2 0 5 1;
#X connect 3 0 5 2;
#X connect 4 0 5 3;
#X connect 5 0 0 0;
#X connect 5 0 7 0;
#X connect 6 0 22 0;
#X connect 7 0 6 0;
#X connect 9 0 12 1;
#X connect 10 0 12 2;
#X connect 11 0 12 3;
#X connect 12 0 8 0;
#X connect 12 0 14 0;
#X connect 13 0 23 0;
#X connect 14 0 13 0;
#X connect 16 0 19 1;
#X connect 17 0 19 2;
#X connect 18 0 19 3;
#X connect 19 0 15 0;
#X connect 19 0 21 0;
#X connect 20 0 24 0;
#X connect 21 0 20 0;
#X connect 26 0 29 1;
#X connect 27 0 29 2;
#X connect 28 0 29 3;
#X connect 29 0 25 0;
#X connect 29 0 31 0;
#X connect 30 0 46 0;
#X connect 31 0 30 0;
#X connect 33 0 36 1;
#X connect 34 0 36 2;
#X connect 35 0 36 3;
#X connect 36 0 32 0;
#X connect 36 0 38 0;
#X connect 37 0 47 0;
#X connect 38 0 37 0;
#X connect 40 0 43 1;
#X connect 41 0 43 2;
#X connect 42 0 43 3;
#X connect 43 0 39 0;
#X connect 43 0 45 0;
#X connect 44 0 48 0;
#X connect 45 0 44 0;
#X connect 49 0 1 0;
#X connect 50 0 2 0;
#X connect 50 0 26 0;
#X connect 50 0 9 0;
#X connect 50 0 33 0;
#X connect 50 0 16 0;
#X connect 50 0 40 0;
#X connect 51 0 3 0;
#X connect 51 0 27 0;
#X connect 51 0 10 0;
#X connect 51 0 34 0;
#X connect 51 0 17 0;
#X connect 51 0 41 0;
#X connect 52 0 18 0;
#X connect 52 0 11 0;
#X connect 52 0 42 0;
#X connect 52 0 35 0;
#X connect 52 0 28 0;
#X connect 52 0 4 0;
#X restore 216 143 pd patterns;
#X f 51;
#X obj 214 116 bng 15 250 50 0 empty empty empty 17 7 0 10 #fcfcfc #000000 #000000;
#X listbox 287 237 70 0 0 0 - - - 0;
#X listbox 357 288 70 0 0 0 - - - 0;
#X listbox 428 336 70 0 0 0 - - - 0;
#X listbox 501 387 70 0 0 0 - - - 0;
#X listbox 581 429 72 0 0 0 - - - 0;
#X floatatom 337 114 5 0 0 0 - - - 0;
#X floatatom 449 118 5 0 0 0 - - - 0;
#X floatatom 566 116 5 0 0 0 - - - 0;
#X obj 197 494 else/sequencer;
#X floatatom 197 519 5 0 0 0 - - - 0;
#X obj 312 501 else/sequencer;
#X floatatom 312 526 5 0 0 0 - - - 0;
#X obj 429 502 else/sequencer;
#X floatatom 429 527 6 0 0 0 - - - 0;
#X obj 554 503 else/sequencer;
#X floatatom 555 532 6 0 0 0 - - - 0;
#X obj 671 498 else/sequencer;
#X floatatom 674 527 6 0 0 0 - - - 0;
#X obj 332 23 inlet;
#X obj 444 24 inlet;
#X obj 563 21 inlet;
#X obj 211 24 inlet;
#X obj 72 636 outlet;
#X obj 193 635 outlet;
#X obj 315 631 outlet;
#X obj 436 630 outlet;
#X obj 559 626 outlet;
#X obj 680 625 outlet;
#X obj 72 403 inlet;
#X connect 0 0 1 1;
#X connect 1 0 2 0;
#X connect 2 0 27 0;
#X connect 3 0 7 0;
#X connect 3 1 0 0;
#X connect 3 2 5 0;
#X connect 3 3 8 0;
#X connect 3 4 6 0;
#X connect 3 5 9 0;
#X connect 4 0 3 0;
#X connect 5 0 13 1;
#X connect 6 0 15 1;
#X connect 7 0 17 1;
#X connect 8 0 19 1;
#X connect 9 0 21 1;
#X connect 10 0 3 1;
#X connect 11 0 3 2;
#X connect 12 0 3 3;
#X connect 13 0 14 0;
#X connect 14 0 28 0;
#X connect 15 0 16 0;
#X connect 16 0 29 0;
#X connect 17 0 18 0;
#X connect 18 0 30 0;
#X connect 19 0 20 0;
#X connect 20 0 31 0;
#X connect 21 0 22 0;
#X connect 22 0 32 0;
#X connect 23 0 10 0;
#X connect 24 0 11 0;
#X connect 25 0 12 0;
#X connect 26 0 4 0;
#X connect 33 0 1 0;
#X connect 33 0 13 0;
#X connect 33 0 15 0;
#X connect 33 0 17 0;
#X connect 33 0 19 0;
#X connect 33 0 21 0;
#X restore 1149 -562 pd pattern_bank;
#X f 35;
#X floatatom 1272 -591 5 0 0 0 - - - 0;
#X floatatom 1321 -590 5 0 0 0 - - - 0;
#X floatatom 1364 -589 5 0 0 0 - - - 0;
#X obj 1206 -597 bng 20 250 50 0 empty empty empty 0 -10 0 12 #fcfcfc #000000 #000000;
#X obj 353 -846 bng 20 250 50 0 empty empty empty 0 -10 0 12 #fcfcfc #000000 #000000;
#X floatatom 292 -370 5 0 0 0 - - - 0;
#X obj 549 -449 random 1000;
#X obj 684 -678 prob 95;
#X obj 1027 -570 prob 95;
#X obj 129 -680 prob 95;
#X obj 1282 -704 prob 95;
#X obj 850 -811 unpack 0 0 0;
#X msg 853 -866 0 0 0;
#X obj 852 -896 loadbang;
#X obj 245 -743 r clock;
#X obj 151 -753 bng 20 250 50 0 empty empty empty 0 -10 0 12 #fcfcfc #000000 #000000;
#X obj 534 70 catch~ drums;
#X floatatom 367 51 5 0 0 0 - - - 0;
#X obj 656 -748 r clock2;
#X obj 1020 -679 r clock2;
#X obj 135 253 s clock2;
#X obj 1400 97 r clock;
#X obj 1008 -10 r clock2;
#N canvas -280 298 1920 995 pattern_bank 0;
#X listbox 216 193 70 0 0 0 - - - 0;
#X obj 74 495 else/sequencer;
#X floatatom 74 520 5 0 0 0 - - - 0;
#N canvas 0 0 1920 995 patterns 0;
#X obj 111 233 print;
#X obj 83 40 bng 15 250 50 0 empty empty empty 17 7 0 10 #fcfcfc #000000 #000000;
#X floatatom 152 30 5 0 0 0 - - - 0;
#X floatatom 155 111 5 0 0 0 - - - 0;
#X floatatom 169 186 5 0 0 0 - - - 0;
#X obj 111 208 randseq;
#X listbox 88 287 81 0 0 0 - - - 0;
#X obj 94 259 list;
#X obj 702 252 print;
#X floatatom 743 49 5 0 0 0 - - - 0;
#X floatatom 746 130 5 0 0 0 - - - 0;
#X floatatom 778 208 5 0 0 0 - - - 0;
#X obj 702 227 randseq;
#X listbox 679 306 81 0 0 0 - - - 0;
#X obj 685 278 list;
#X obj 1299 242 print;
#X floatatom 1340 39 5 0 0 0 - - - 0;
#X floatatom 1343 120 5 0 0 0 - - - 0;
#X floatatom 1357 195 5 0 0 0 - - - 0;
#X obj 1299 217 randseq;
#X listbox 1276 296 81 0 0 0 - - - 0;
#X obj 1282 268 list;
#X obj 228 874 outlet;
#X obj 622 855 outlet;
#X obj 1209 859 outlet;
#X obj 129 501 print;
#X floatatom 157 332 5 0 0 0 - - - 0;
#X floatatom 173 379 5 0 0 0 - - - 0;
#X floatatom 187 454 5 0 0 0 - - - 0;
#X obj 129 476 randseq;
#X listbox 106 555 81 0 0 0 - - - 0;
#X obj 112 527 list;
#X obj 720 520 print;
#X floatatom 721 358 5 0 0 0 - - - 0;
#X floatatom 764 398 5 0 0 0 - - - 0;
#X floatatom 778 473 5 0 0 0 - - - 0;
#X obj 720 495 randseq;
#X listbox 697 574 81 0 0 0 - - - 0;
#X obj 703 546 list;
#X obj 1317 510 print;
#X floatatom 1334 348 5 0 0 0 - - - 0;
#X floatatom 1361 388 5 0 0 0 - - - 0;
#X floatatom 1375 463 5 0 0 0 - - - 0;
#X obj 1317 485 randseq;
#X listbox 1294 564 81 0 0 0 - - - 0;
#X obj 1300 536 list;
#X obj 103 851 outlet;
#X obj 686 851 outlet;
#X obj 1304 852 outlet;
#X obj 85 -29 inlet;
#X obj 772 -17 inlet;
#X obj 988 -16 inlet;
#X obj 1199 -20 inlet;
#X connect 1 0 5 0;
#X connect 1 0 12 0;
#X connect 1 0 19 0;
#X connect 1 0 29 0;
#X connect 1 0 36 0;
#X connect 1 0 43 0;
#X connect 2 0 5 1;
#X connect 3 0 5 2;
#X connect 4 0 5 3;
#X connect 5 0 0 0;
#X connect 5 0 7 0;
#X connect 6 0 22 0;
#X connect 7 0 6 0;
#X connect 9 0 12 1;
#X connect 10 0 12 2;
#X connect 11 0 12 3;
#X connect 12 0 8 0;
#X connect 12 0 14 0;
#X connect 13 0 23 0;
#X connect 14 0 13 0;
#X connect 16 0 19 1;
#X connect 17 0 19 2;
#X connect 18 0 19 3;
#X connect 19 0 15 0;
#X connect 19 0 21 0;
#X connect 20 0 24 0;
#X connect 21 0 20 0;
#X connect 26 0 29 1;
#X connect 27 0 29 2;
#X connect 28 0 29 3;
#X connect 29 0 25 0;
#X connect 29 0 31 0;
#X connect 30 0 46 0;
#X connect 31 0 30 0;
#X connect 33 0 36 1;
#X connect 34 0 36 2;
#X connect 35 0 36 3;
#X connect 36 0 32 0;
#X connect 36 0 38 0;
#X connect 37 0 47 0;
#X connect 38 0 37 0;
#X connect 40 0 43 1;
#X connect 41 0 43 2;
#X connect 42 0 43 3;
#X connect 43 0 39 0;
#X connect 43 0 45 0;
#X connect 44 0 48 0;
#X connect 45 0 44 0;
#X connect 49 0 1 0;
#X connect 50 0 2 0;
#X connect 50 0 26 0;
#X connect 50 0 9 0;
#X connect 50 0 33 0;
#X connect 50 0 16 0;
#X connect 50 0 40 0;
#X connect 51 0 3 0;
#X connect 51 0 27 0;
#X connect 51 0 10 0;
#X connect 51 0 34 0;
#X connect 51 0 17 0;
#X connect 51 0 41 0;
#X connect 52 0 18 0;
#X connect 52 0 11 0;
#X connect 52 0 42 0;
#X connect 52 0 35 0;
#X connect 52 0 28 0;
#X connect 52 0 4 0;
#X restore 216 143 pd patterns;
#X f 51;
#X obj 214 116 bng 15 250 50 0 empty empty empty 17 7 0 10 #fcfcfc #000000 #000000;
#X listbox 287 237 70 0 0 0 - - - 0;
#X listbox 357 288 70 0 0 0 - - - 0;
#X listbox 428 336 70 0 0 0 - - - 0;
#X listbox 501 387 70 0 0 0 - - - 0;
#X listbox 581 429 72 0 0 0 - - - 0;
#X floatatom 337 114 5 0 0 0 - - - 0;
#X floatatom 449 118 5 0 0 0 - - - 0;
#X floatatom 566 116 5 0 0 0 - - - 0;
#X obj 197 494 else/sequencer;
#X floatatom 197 519 5 0 0 0 - - - 0;
#X obj 312 501 else/sequencer;
#X floatatom 312 526 5 0 0 0 - - - 0;
#X obj 429 502 else/sequencer;
#X floatatom 429 527 6 0 0 0 - - - 0;
#X obj 554 503 else/sequencer;
#X floatatom 555 532 6 0 0 0 - - - 0;
#X obj 671 498 else/sequencer;
#X floatatom 674 527 6 0 0 0 - - - 0;
#X obj 332 23 inlet;
#X obj 444 24 inlet;
#X obj 563 21 inlet;
#X obj 211 24 inlet;
#X obj 72 636 outlet;
#X obj 193 635 outlet;
#X obj 315 631 outlet;
#X obj 436 630 outlet;
#X obj 559 626 outlet;
#X obj 680 625 outlet;
#X obj 72 403 inlet;
#X connect 0 0 1 1;
#X connect 1 0 2 0;
#X connect 2 0 27 0;
#X connect 3 0 7 0;
#X connect 3 1 0 0;
#X connect 3 2 5 0;
#X connect 3 3 8 0;
#X connect 3 4 6 0;
#X connect 3 5 9 0;
#X connect 4 0 3 0;
#X connect 5 0 13 1;
#X connect 6 0 15 1;
#X connect 7 0 17 1;
#X connect 8 0 19 1;
#X connect 9 0 21 1;
#X connect 10 0 3 1;
#X connect 11 0 3 2;
#X connect 12 0 3 3;
#X connect 13 0 14 0;
#X connect 14 0 28 0;
#X connect 15 0 16 0;
#X connect 16 0 29 0;
#X connect 17 0 18 0;
#X connect 18 0 30 0;
#X connect 19 0 20 0;
#X connect 20 0 31 0;
#X connect 21 0 22 0;
#X connect 22 0 32 0;
#X connect 23 0 10 0;
#X connect 24 0 11 0;
#X connect 25 0 12 0;
#X connect 26 0 4 0;
#X connect 33 0 1 0;
#X connect 33 0 13 0;
#X connect 33 0 15 0;
#X connect 33 0 17 0;
#X connect 33 0 19 0;
#X connect 33 0 21 0;
#X restore 1632 138 pd pattern_bank;
#X f 35;
#X obj 1629 1 bng 20 250 50 0 empty empty empty 0 -10 0 12 #fcfcfc #000000 #000000;
#X obj 1691 106 bng 20 250 50 0 empty empty empty 0 -10 0 12 #fcfcfc #000000 #000000;
#X obj 1557 79 r clock2;
#N canvas -280 298 1920 995 pattern_bank 0;
#X listbox 216 193 70 0 0 0 - - - 0;
#X obj 74 495 else/sequencer;
#X floatatom 74 520 5 0 0 0 - - - 0;
#N canvas 0 0 1920 995 patterns 0;
#X obj 111 233 print;
#X obj 83 40 bng 15 250 50 0 empty empty empty 17 7 0 10 #fcfcfc #000000 #000000;
#X floatatom 152 30 5 0 0 0 - - - 0;
#X floatatom 155 111 5 0 0 0 - - - 0;
#X floatatom 169 186 5 0 0 0 - - - 0;
#X obj 111 208 randseq;
#X listbox 88 287 81 0 0 0 - - - 0;
#X obj 94 259 list;
#X obj 702 252 print;
#X floatatom 743 49 5 0 0 0 - - - 0;
#X floatatom 746 130 5 0 0 0 - - - 0;
#X floatatom 778 208 5 0 0 0 - - - 0;
#X obj 702 227 randseq;
#X listbox 679 306 81 0 0 0 - - - 0;
#X obj 685 278 list;
#X obj 1299 242 print;
#X floatatom 1340 39 5 0 0 0 - - - 0;
#X floatatom 1343 120 5 0 0 0 - - - 0;
#X floatatom 1357 195 5 0 0 0 - - - 0;
#X obj 1299 217 randseq;
#X listbox 1276 296 81 0 0 0 - - - 0;
#X obj 1282 268 list;
#X obj 228 874 outlet;
#X obj 622 855 outlet;
#X obj 1209 859 outlet;
#X obj 129 501 print;
#X floatatom 157 332 5 0 0 0 - - - 0;
#X floatatom 173 379 5 0 0 0 - - - 0;
#X floatatom 187 454 5 0 0 0 - - - 0;
#X obj 129 476 randseq;
#X listbox 106 555 81 0 0 0 - - - 0;
#X obj 112 527 list;
#X obj 720 520 print;
#X floatatom 721 358 5 0 0 0 - - - 0;
#X floatatom 764 398 5 0 0 0 - - - 0;
#X floatatom 778 473 5 0 0 0 - - - 0;
#X obj 720 495 randseq;
#X listbox 697 574 81 0 0 0 - - - 0;
#X obj 703 546 list;
#X obj 1317 510 print;
#X floatatom 1334 348 5 0 0 0 - - - 0;
#X floatatom 1361 388 5 0 0 0 - - - 0;
#X floatatom 1375 463 5 0 0 0 - - - 0;
#X obj 1317 485 randseq;
#X listbox 1294 564 81 0 0 0 - - - 0;
#X obj 1300 536 list;
#X obj 103 851 outlet;
#X obj 686 851 outlet;
#X obj 1304 852 outlet;
#X obj 85 -29 inlet;
#X obj 772 -17 inlet;
#X obj 988 -16 inlet;
#X obj 1199 -20 inlet;
#X connect 1 0 5 0;
#X connect 1 0 12 0;
#X connect 1 0 19 0;
#X connect 1 0 29 0;
#X connect 1 0 36 0;
#X connect 1 0 43 0;
#X connect 2 0 5 1;
#X connect 3 0 5 2;
#X connect 4 0 5 3;
#X connect 5 0 0 0;
#X connect 5 0 7 0;
#X connect 6 0 22 0;
#X connect 7 0 6 0;
#X connect 9 0 12 1;
#X connect 10 0 12 2;
#X connect 11 0 12 3;
#X connect 12 0 8 0;
#X connect 12 0 14 0;
#X connect 13 0 23 0;
#X connect 14 0 13 0;
#X connect 16 0 19 1;
#X connect 17 0 19 2;
#X connect 18 0 19 3;
#X connect 19 0 15 0;
#X connect 19 0 21 0;
#X connect 20 0 24 0;
#X connect 21 0 20 0;
#X connect 26 0 29 1;
#X connect 27 0 29 2;
#X connect 28 0 29 3;
#X connect 29 0 25 0;
#X connect 29 0 31 0;
#X connect 30 0 46 0;
#X connect 31 0 30 0;
#X connect 33 0 36 1;
#X connect 34 0 36 2;
#X connect 35 0 36 3;
#X connect 36 0 32 0;
#X connect 36 0 38 0;
#X connect 37 0 47 0;
#X connect 38 0 37 0;
#X connect 40 0 43 1;
#X connect 41 0 43 2;
#X connect 42 0 43 3;
#X connect 43 0 39 0;
#X connect 43 0 45 0;
#X connect 44 0 48 0;
#X connect 45 0 44 0;
#X connect 49 0 1 0;
#X connect 50 0 2 0;
#X connect 50 0 26 0;
#X connect 50 0 9 0;
#X connect 50 0 33 0;
#X connect 50 0 16 0;
#X connect 50 0 40 0;
#X connect 51 0 3 0;
#X connect 51 0 27 0;
#X connect 51 0 10 0;
#X connect 51 0 34 0;
#X connect 51 0 17 0;
#X connect 51 0 41 0;
#X connect 52 0 18 0;
#X connect 52 0 11 0;
#X connect 52 0 42 0;
#X connect 52 0 35 0;
#X connect 52 0 28 0;
#X connect 52 0 4 0;
#X restore 216 143 pd patterns;
#X f 51;
#X obj 214 116 bng 15 250 50 0 empty empty empty 17 7 0 10 #fcfcfc #000000 #000000;
#X listbox 287 237 70 0 0 0 - - - 0;
#X listbox 357 288 70 0 0 0 - - - 0;
#X listbox 428 336 70 0 0 0 - - - 0;
#X listbox 501 387 70 0 0 0 - - - 0;
#X listbox 581 429 72 0 0 0 - - - 0;
#X floatatom 337 114 5 0 0 0 - - - 0;
#X floatatom 449 118 5 0 0 0 - - - 0;
#X floatatom 566 116 5 0 0 0 - - - 0;
#X obj 197 494 else/sequencer;
#X floatatom 197 519 5 0 0 0 - - - 0;
#X obj 312 501 else/sequencer;
#X floatatom 312 526 5 0 0 0 - - - 0;
#X obj 429 502 else/sequencer;
#X floatatom 429 527 6 0 0 0 - - - 0;
#X obj 554 503 else/sequencer;
#X floatatom 555 532 6 0 0 0 - - - 0;
#X obj 671 498 else/sequencer;
#X floatatom 674 527 6 0 0 0 - - - 0;
#X obj 332 23 inlet;
#X obj 444 24 inlet;
#X obj 563 21 inlet;
#X obj 211 24 inlet;
#X obj 72 636 outlet;
#X obj 193 635 outlet;
#X obj 315 631 outlet;
#X obj 436 630 outlet;
#X obj 559 626 outlet;
#X obj 680 625 outlet;
#X obj 72 403 inlet;
#X connect 0 0 1 1;
#X connect 1 0 2 0;
#X connect 2 0 27 0;
#X connect 3 0 7 0;
#X connect 3 1 0 0;
#X connect 3 2 5 0;
#X connect 3 3 8 0;
#X connect 3 4 6 0;
#X connect 3 5 9 0;
#X connect 4 0 3 0;
#X connect 5 0 13 1;
#X connect 6 0 15 1;
#X connect 7 0 17 1;
#X connect 8 0 19 1;
#X connect 9 0 21 1;
#X connect 10 0 3 1;
#X connect 11 0 3 2;
#X connect 12 0 3 3;
#X connect 13 0 14 0;
#X connect 14 0 28 0;
#X connect 15 0 16 0;
#X connect 16 0 29 0;
#X connect 17 0 18 0;
#X connect 18 0 30 0;
#X connect 19 0 20 0;
#X connect 20 0 31 0;
#X connect 21 0 22 0;
#X connect 22 0 32 0;
#X connect 23 0 10 0;
#X connect 24 0 11 0;
#X connect 25 0 12 0;
#X connect 26 0 4 0;
#X connect 33 0 1 0;
#X connect 33 0 13 0;
#X connect 33 0 15 0;
#X connect 33 0 17 0;
#X connect 33 0 19 0;
#X connect 33 0 21 0;
#X restore 1972 236 pd pattern_bank;
#X f 35;
#X obj 1969 99 bng 20 250 50 0 empty empty empty 0 -10 0 12 #fcfcfc #000000 #000000;
#X obj 2055 78 bng 20 250 50 0 empty empty empty 0 -10 0 12 #fcfcfc #000000 #000000;
#X obj 1897 177 r clock2;
#X msg 1836 758 \$1/sounds/glitch;
#X msg 1253 735 \$1/sounds/woodblock;
#X obj 129 -654 bng 20 250 50 0 empty empty empty 0 -10 0 12 #fcfcfc #000000 #000000;
#X obj 1150 124 bng 20 250 50 0 empty empty empty 0 -10 0 12 #fcfcfc #000000 #000000;
#X obj 1150 98 prob 80;
#X obj 1527 151 bng 20 250 50 0 empty empty empty 0 -10 0 12 #fcfcfc #000000 #000000;
#X obj 1546 123 prob 80;
#X obj 349 113 / 2;
#X floatatom 340 158 5 0 0 0 - - - 0;
#X obj 998 572 *~ 0.9;
#X obj 884 277 + 0;
#X floatatom 909 154 5 0 0 0 - - - 0;
#X obj 549 -631 prob 95;
#X obj 549 -605 bng 20 250 50 0 empty empty empty 0 -10 0 12 #fcfcfc #000000 #000000;
#X floatatom 1456 -557 5 0 0 0 - - - 0;
#X obj 885 322 chaotic~, f 38;
#X obj 60 -712 prob 90;
#X floatatom 1134 284 5 0 0 0 - - - 0;
#X obj 488 368 hsl 128 15 10 44100 1 0 empty empty empty -2 -8 0 10 #dcdcdc #000000 #000000 0 1;
#X obj 483 391 nbx 8 14 -1e+37 1e+37 0 0 empty empty empty 0 -8 0 10 #dcdcdc #000000 #000000 0 256;
#X obj 390 415 else/downsample~;
#X floatatom 528 205 8 1 10000 0 - - - 0;
#X obj 531 184 hsl 128 15 0 1 0 0 empty empty empty -2 -8 0 10 #dcdcdc #000000 #000000 0 1;
#X floatatom 691 254 8 1 10000 0 - - - 0;
#X obj 696 231 hsl 128 15 0 1 0 0 empty empty empty -2 -8 0 10 #dcdcdc #000000 #000000 0 1;
#X text 532 165 bit crushing (0-1);
#X text 697 204 decimation (0-1);
#X obj 535 234 else/f2s~;
#X obj 691 275 else/f2s~;
#X obj 391 323 else/crush~;
#X obj 771 376 m-sub~;
#X obj 776 324 random 40;
#X obj 776 349 + 30;
#X obj 123 148 metro 166;
#X obj 137 207 metro 83;
#X obj 771 401 *~ 1.7;
#X msg 1449 738 \$1/sounds/bass;
#X floatatom 1407 -93 5 0 0 0 - - - 0;
#X floatatom 1453 -93 5 0 0 0 - - - 0;
#X floatatom 1498 -91 5 0 0 0 - - - 0;
#X floatatom 955 -855 5 0 0 0 - - - 0;
#X floatatom 1001 -854 5 0 0 0 - - - 0;
#X floatatom 1045 -855 5 0 0 0 - - - 0;
#X obj 1196 790 *~ 0.66;
#X msg 800 99 450;
#X obj 798 72 loadbang;
#X obj 1392 793 *~ 0.2;
#X obj 1779 813 *~ 0.33;
#X connect 0 0 165 0;
#X connect 0 1 165 0;
#X connect 0 1 47 0;
#X connect 0 2 165 0;
#X connect 0 3 165 0;
#X connect 0 3 47 0;
#X connect 0 4 165 0;
#X connect 0 4 46 0;
#X connect 0 5 165 0;
#X connect 3 0 0 0;
#X connect 4 0 188 0;
#X connect 4 0 189 0;
#X connect 6 0 53 0;
#X connect 7 0 6 0;
#X connect 8 0 7 0;
#X connect 9 0 13 0;
#X connect 13 0 52 0;
#X connect 15 0 16 0;
#X connect 15 0 18 0;
#X connect 15 1 17 0;
#X connect 16 0 20 0;
#X connect 17 0 20 0;
#X connect 18 0 22 0;
#X connect 19 0 21 0;
#X connect 20 0 21 1;
#X connect 21 0 35 0;
#X connect 22 0 20 0;
#X connect 23 0 24 0;
#X connect 24 0 25 0;
#X connect 25 0 26 0;
#X connect 26 0 27 0;
#X connect 26 0 50 0;
#X connect 27 0 35 0;
#X connect 28 0 29 0;
#X connect 29 0 30 0;
#X connect 30 0 31 0;
#X connect 30 0 50 0;
#X connect 31 0 35 0;
#X connect 32 0 28 0;
#X connect 33 0 32 1;
#X connect 34 0 23 1;
#X connect 36 0 43 1;
#X connect 38 0 43 2;
#X connect 40 0 43 3;
#X connect 41 0 43 4;
#X connect 43 0 164 0;
#X connect 45 0 43 0;
#X connect 46 0 15 0;
#X connect 47 0 45 0;
#X connect 49 0 184 0;
#X connect 52 0 51 0;
#X connect 53 0 13 1;
#X connect 54 0 155 0;
#X connect 55 0 54 0;
#X connect 56 0 55 0;
#X connect 57 0 58 0;
#X connect 58 0 202 0;
#X connect 60 0 156 0;
#X connect 61 0 60 0;
#X connect 62 0 61 0;
#X connect 63 0 64 0;
#X connect 64 0 198 0;
#X connect 66 0 191 0;
#X connect 67 0 66 0;
#X connect 68 0 67 0;
#X connect 69 0 70 0;
#X connect 70 0 201 0;
#X connect 100 0 119 0;
#X connect 101 0 119 0;
#X connect 102 0 75 0;
#X connect 102 1 75 0;
#X connect 102 2 75 0;
#X connect 102 3 75 0;
#X connect 102 4 75 0;
#X connect 102 5 75 0;
#X connect 103 0 102 2;
#X connect 104 0 102 3;
#X connect 105 0 102 4;
#X connect 107 0 102 1;
#X connect 109 0 108 2;
#X connect 110 0 108 3;
#X connect 111 0 108 4;
#X connect 112 0 108 1;
#X connect 113 0 120 0;
#X connect 114 0 101 1;
#X connect 115 0 101 1;
#X connect 115 0 113 1;
#X connect 116 0 113 1;
#X connect 117 0 119 0;
#X connect 118 0 120 0;
#X connect 119 0 72 0;
#X connect 120 0 73 0;
#X connect 121 0 113 1;
#X connect 122 0 101 1;
#X connect 124 0 123 2;
#X connect 125 0 123 3;
#X connect 126 0 123 4;
#X connect 127 0 123 1;
#X connect 128 0 115 0;
#X connect 128 0 116 0;
#X connect 128 0 130 0;
#X connect 129 0 119 1;
#X connect 129 0 120 1;
#X connect 130 0 129 0;
#X connect 131 0 112 0;
#X connect 132 0 107 0;
#X connect 133 0 157 0;
#X connect 134 0 127 0;
#X connect 135 0 109 0;
#X connect 135 0 103 0;
#X connect 135 0 124 0;
#X connect 135 1 110 0;
#X connect 135 1 104 0;
#X connect 135 1 125 0;
#X connect 135 2 111 0;
#X connect 135 2 105 0;
#X connect 135 2 126 0;
#X connect 136 0 135 0;
#X connect 137 0 136 0;
#X connect 137 0 128 0;
#X connect 138 0 100 0;
#X connect 138 0 101 0;
#X connect 138 0 113 0;
#X connect 138 0 117 0;
#X connect 138 0 118 0;
#X connect 138 0 131 0;
#X connect 138 0 132 0;
#X connect 138 0 133 0;
#X connect 138 0 134 0;
#X connect 138 0 139 0;
#X connect 138 0 108 0;
#X connect 139 0 171 0;
#X connect 140 0 184 0;
#X connect 141 0 162 0;
#X connect 141 0 188 1;
#X connect 142 0 167 0;
#X connect 143 0 102 0;
#X connect 143 0 123 0;
#X connect 146 0 0 0;
#X connect 146 0 159 0;
#X connect 146 0 186 0;
#X connect 148 0 147 0;
#X connect 149 0 147 1;
#X connect 150 0 147 0;
#X connect 151 0 57 0;
#X connect 151 1 69 0;
#X connect 152 0 151 0;
#X connect 153 0 151 1;
#X connect 154 0 151 0;
#X connect 155 0 58 1;
#X connect 156 0 64 1;
#X connect 157 0 74 0;
#X connect 158 0 0 1;
#X connect 158 0 151 1;
#X connect 159 0 158 0;
#X connect 160 0 149 0;
#X connect 161 0 160 0;
#X connect 162 0 163 0;
#X connect 162 0 189 1;
#X connect 164 0 48 0;
#X connect 165 0 170 0;
#X connect 166 0 165 1;
#X connect 167 0 168 0;
#X connect 168 0 85 0;
#X connect 169 0 94 0;
#X connect 170 0 164 0;
#X connect 171 0 128 0;
#X connect 172 0 170 4;
#X connect 172 0 170 5;
#X connect 172 0 170 6;
#X connect 173 0 174 0;
#X connect 174 0 175 1;
#X connect 175 0 2 0;
#X connect 175 0 1 0;
#X connect 176 0 182 0;
#X connect 177 0 176 0;
#X connect 178 0 183 0;
#X connect 179 0 178 0;
#X connect 182 0 184 1;
#X connect 183 0 184 2;
#X connect 184 0 175 0;
#X connect 185 0 190 0;
#X connect 186 0 187 0;
#X connect 187 0 185 0;
#X connect 188 0 5 0;
#X connect 189 0 144 0;
#X connect 190 0 184 0;
#X connect 191 0 70 1;
#X connect 192 0 0 2;
#X connect 192 0 147 2;
#X connect 192 0 151 2;
#X connect 193 0 0 3;
#X connect 193 0 147 3;
#X connect 193 0 151 3;
#X connect 194 0 0 4;
#X connect 194 0 147 4;
#X connect 194 0 151 4;
#X connect 195 0 109 0;
#X connect 195 0 124 0;
#X connect 195 0 103 0;
#X connect 196 0 110 0;
#X connect 196 0 104 0;
#X connect 196 0 125 0;
#X connect 197 0 111 0;
#X connect 197 0 105 0;
#X connect 197 0 126 0;
#X connect 198 0 65 0;
#X connect 199 0 166 0;
#X connect 200 0 199 0;
#X connect 201 0 71 0;
#X connect 202 0 59 0;
