#N canvas 0 38 1146 830 12;
#X declare -path ./audio/instruments;
#X declare -path ./audio/objects;
#X declare -path ./visuals/objects;
#X declare -lib Gem;
#X declare -path ./visuals/vfx;
#X declare -path ./lib;
#X declare -lib Gem;
#X declare -stdpath ./;
#X text 6 5 m-onz;
#N canvas 33 446 622 529 imports 0;
#X obj 6 6 declare -path ./audio/instruments;
#X obj 6 28 declare -path ./audio/objects;
#X obj 6 51 declare -path ./visuals/objects;
#X obj 6 97 declare -lib Gem;
#X obj 6 74 declare -path ./visuals/vfx;
#X obj 26 155 declare -path ./lib;
#X restore 9 76 pd imports;
#X obj 10 53 declare -lib Gem;
#X obj 10 28 declare -stdpath ./;
#N canvas 156 292 454 304 gemwin 0;
#X obj 132 136 gemwin;
#X obj 67 89 outlet;
#X obj 67 10 inlet;
#X obj 67 41 route create;
#X msg 67 70 set destroy;
#X msg 182 68 set create;
#X msg 132 112 create \, 1;
#X msg 238 112 destroy;
#N canvas 91 178 247 179 Gem.init 0;
#X obj 59 26 loadbang;
#X msg 118 81 reset;
#X obj 118 113 outlet;
#X obj 59 45 t b b;
#X connect 0 0 3 0;
#X connect 1 0 2 0;
#X connect 3 1 1 0;
#X restore 289 80 pd Gem.init;
#X msg 114 205 reset \, dimen 1200 1100 \, create \, 1;
#X obj 180 13 inlet;
#X connect 2 0 3 0;
#X connect 3 0 4 0;
#X connect 3 0 6 0;
#X connect 3 1 5 0;
#X connect 3 1 7 0;
#X connect 4 0 1 0;
#X connect 5 0 1 0;
#X connect 6 0 0 0;
#X connect 7 0 0 0;
#X connect 8 0 0 0;
#X connect 9 0 0 0;
#X connect 10 0 9 0;
#X restore 169 100 pd gemwin;
#X msg 171 15 create;
#X msg 230 72 reset \, dimen 1200 1100 \, create \, 1;
#X msg 188 40 destroy;
#X msg 249 103 reset \, dimen 640 480 \, create \, 1;
#X obj 275 154 key;
#X floatatom 275 178 5 0 0 0 - - - 0;
#X obj 9 178 gemframebuffer;
#X obj 9 224 t a a b;
#X obj 9 201 translateXYZ 0 0 -4;
#X obj 157 133 loadbang;
#X obj 9 248 t a b;
#X msg 53 250 snap;
#X obj 9 300 t a b;
#X msg 189 314 1;
#X obj 604 61 t a b;
#X msg 781 62 1;
#X obj 602 612 pix_texture;
#X obj 604 709 rectangle 7.12 4.07;
#X floatatom 670 687 5 0 0 0 - - - 0;
#X floatatom 734 686 5 0 0 0 - - - 0;
#X msg 114 179 dimen 1024 768;
#X obj 9 276 pix_snap 0 0 1024 768;
#X obj 9 155 gemhead 11;
#X obj 604 36 gemhead 22;
#X obj 9 336 pix_buffer_write framebuffer;
#X obj 9 361 pix_buffer framebuffer 2;
#X obj 604 83 pix_buffer_read framebuffer;
#X obj 670 664 / 100;
#X obj 734 663 / 100;
#X floatatom 670 643 5 0 0 0 - - - 0;
#X floatatom 733 642 5 0 0 0 - - - 0;
#N canvas 339 345 450 300 puzzle_effect 0;
#X obj 42 173 outlet;
#X obj 43 117 inlet;
#N canvas 565 255 787 662 togglefx 0;
#X obj 89 290 outlet;
#X obj 36 37 inlet;
#X obj 121 172 spigot 1;
#X obj 32 245 spigot 0;
#X msg 127 94 0 1;
#X msg 165 94 1 0;
#X obj 122 125 unpack 0 0;
#X obj 124 37 inlet;
#X obj 189 297 outlet;
#X obj 237 27 inlet;
#X obj 299 58 loadbang;
#X obj 124 68 route 0 1;
#X connect 1 0 3 0;
#X connect 1 0 2 0;
#X connect 2 0 8 0;
#X connect 3 0 0 0;
#X connect 4 0 6 0;
#X connect 5 0 6 0;
#X connect 6 0 3 1;
#X connect 6 1 2 1;
#X connect 7 0 11 0;
#X connect 9 0 0 0;
#X connect 10 0 4 0;
#X connect 11 0 4 0;
#X connect 11 1 5 0;
#X restore 43 143 pd togglefx;
#X obj 144 143 pix_puzzle;
#X msg 144 117 size \$1 \$1;
#X floatatom 151 76 5 0 0 0 - - - 0;
#X obj 95 57 inlet;
#X obj 157 43 inlet;
#X connect 1 0 2 0;
#X connect 2 0 0 0;
#X connect 2 1 3 0;
#X connect 3 0 2 2;
#X connect 4 0 3 0;
#X connect 5 0 4 0;
#X connect 6 0 2 1;
#X connect 7 0 5 0;
#X restore 604 216 pd puzzle_effect;
#X obj 727 125 tgl 20 0 empty empty empty 0 -10 0 12 #fcfcfc #000000 #000000 0 1;
#X obj 638 378 tgl 20 0 empty empty empty 0 -10 0 12 #fcfcfc #000000 #000000 0 1;
#X floatatom 707 380 5 0 0 0 - - - 0;
#N canvas 225 340 667 458 movement_effect 0;
#X obj 42 173 outlet;
#X obj 43 117 inlet;
#N canvas 565 255 787 662 togglefx 0;
#X obj 89 290 outlet;
#X obj 36 37 inlet;
#X obj 121 172 spigot 1;
#X obj 32 245 spigot 0;
#X msg 127 94 0 1;
#X msg 165 94 1 0;
#X obj 122 125 unpack 0 0;
#X obj 124 37 inlet;
#X obj 189 297 outlet;
#X obj 237 27 inlet;
#X obj 299 58 loadbang;
#X obj 124 68 route 0 1;
#X connect 1 0 3 0;
#X connect 1 0 2 0;
#X connect 2 0 8 0;
#X connect 3 0 0 0;
#X connect 4 0 6 0;
#X connect 5 0 6 0;
#X connect 6 0 3 1;
#X connect 6 1 2 1;
#X connect 7 0 11 0;
#X connect 9 0 0 0;
#X connect 10 0 4 0;
#X connect 11 0 4 0;
#X connect 11 1 5 0;
#X restore 43 143 pd togglefx;
#X obj 95 57 inlet;
#X floatatom 322 130 3 0 100 2 lo_threshold - - 0;
#X obj 321 146 / 100;
#X obj 278 172 pix_movement2;
#X floatatom 376 151 3 0 100 2 threshold - - 0;
#X obj 375 167 / 100;
#X obj 277 64 pix_2grey;
#X connect 1 0 2 0;
#X connect 2 0 0 0;
#X connect 2 1 9 0;
#X connect 3 0 2 1;
#X connect 4 0 5 0;
#X connect 5 0 6 1;
#X connect 6 0 2 2;
#X connect 7 0 8 0;
#X connect 8 0 6 2;
#X connect 9 0 6 0;
#X restore 604 149 pd movement_effect;
#N canvas 425 264 544 372 lumaofset_effect 0;
#X obj 42 173 outlet;
#X obj 43 117 inlet;
#N canvas 565 255 787 662 togglefx 0;
#X obj 89 290 outlet;
#X obj 36 37 inlet;
#X obj 121 172 spigot 1;
#X obj 32 245 spigot 0;
#X msg 127 94 0 1;
#X msg 165 94 1 0;
#X obj 122 125 unpack 0 0;
#X obj 124 37 inlet;
#X obj 189 297 outlet;
#X obj 237 27 inlet;
#X obj 299 58 loadbang;
#X obj 124 68 route 0 1;
#X connect 1 0 3 0;
#X connect 1 0 2 0;
#X connect 2 0 8 0;
#X connect 3 0 0 0;
#X connect 4 0 6 0;
#X connect 5 0 6 0;
#X connect 6 0 3 1;
#X connect 6 1 2 1;
#X connect 7 0 11 0;
#X connect 9 0 0 0;
#X connect 10 0 4 0;
#X connect 11 0 4 0;
#X connect 11 1 5 0;
#X restore 43 143 pd togglefx;
#X obj 95 57 inlet;
#X obj 157 43 inlet;
#X obj 201 171 pix_lumaoffset;
#X floatatom 246 113 5 0 0 2 offset - - 0;
#X floatatom 294 116 5 0 0 2 gap - - 0;
#X obj 283 133 tgl 15 0 empty empty empty 0 -6 0 8 #fcfcfc #000000 #000000 0 1;
#X msg 283 151 smooth \$1;
#X msg 215 150 fill \$1;
#X obj 215 132 tgl 15 0 empty empty empty 0 -6 0 8 #fcfcfc #000000 #000000 0 1;
#X obj 210 45 inlet;
#X obj 266 44 inlet;
#X connect 1 0 2 0;
#X connect 2 0 0 0;
#X connect 2 1 5 0;
#X connect 3 0 2 1;
#X connect 4 0 11 0;
#X connect 5 0 2 2;
#X connect 6 0 5 1;
#X connect 7 0 5 2;
#X connect 8 0 9 0;
#X connect 9 0 5 0;
#X connect 10 0 5 0;
#X connect 11 0 10 0;
#X connect 12 0 6 0;
#X connect 13 0 7 0;
#X restore 608 405 pd lumaofset_effect;
#X obj 675 372 tgl 20 0 empty empty empty 0 -10 0 12 #fcfcfc #000000 #000000 0 1;
#X obj 646 454 tgl 20 0 empty empty empty 0 -10 0 12 #fcfcfc #000000 #000000 0 1;
#N canvas 743 479 450 300 gain_effect 0;
#X obj 42 173 outlet;
#X obj 43 117 inlet;
#N canvas 569 279 787 662 togglefx 0;
#X obj 89 290 outlet;
#X obj 36 37 inlet;
#X obj 121 172 spigot 1;
#X obj 32 245 spigot 0;
#X msg 127 94 0 1;
#X msg 165 94 1 0;
#X obj 122 125 unpack 0 0;
#X obj 124 37 inlet;
#X obj 189 297 outlet;
#X obj 237 27 inlet;
#X obj 299 58 loadbang;
#X obj 124 68 route 0 1;
#X connect 1 0 3 0;
#X connect 1 0 2 0;
#X connect 2 0 8 0;
#X connect 3 0 0 0;
#X connect 4 0 6 0;
#X connect 5 0 6 0;
#X connect 6 0 3 1;
#X connect 6 1 2 1;
#X connect 7 0 11 0;
#X connect 9 0 0 0;
#X connect 10 0 4 0;
#X connect 11 0 4 0;
#X connect 11 1 5 0;
#X restore 43 143 pd togglefx;
#X floatatom 151 76 5 0 0 0 - - - 0;
#X obj 95 57 inlet;
#X obj 157 43 inlet;
#X obj 142 177 pix_gain;
#X msg 267 124 saturate \$1;
#X obj 272 94 tgl 18 0 empty empty empty 0 -9 0 10 #fcfcfc #000000 #000000 0 1;
#X connect 1 0 2 0;
#X connect 2 0 0 0;
#X connect 2 1 6 0;
#X connect 3 0 6 1;
#X connect 4 0 2 1;
#X connect 5 0 3 0;
#X connect 6 0 2 2;
#X connect 7 0 6 0;
#X connect 8 0 7 0;
#X restore 607 493 pd gain_effect;
#X obj 704 462 / 10;
#X obj 657 187 tgl 20 0 empty empty empty 0 -10 0 12 #fcfcfc #000000 #000000 0 1;
#X floatatom 704 437 5 0 0 0 - - - 0;
#X obj 188 363 separator;
#X floatatom 713 191 5 0 0 0 - - - 0;
#X floatatom 751 381 5 0 0 0 - - - 0;
#N canvas 0 93 1470 891 light 0;
#X obj 225 45 gemhead 10;
#X floatatom 258 78 5 0 0 0 - - - 0;
#X floatatom 299 77 5 0 0 0 - - - 0;
#X floatatom 341 78 5 0 0 0 - - - 0;
#X msg 319 150 1 0 0;
#X obj 225 227 world_light;
#X msg 333 173 0.4 0.4 0.4;
#X msg 309 127 0 0 0;
#X obj 228 160 tgl 15 0 empty empty empty 0 -6 0 8 #fcfcfc #000000 #000000 0 1;
#X msg 228 181 debug \$1;
#X obj 225 103 rotateXYZ 0 30 0;
#X obj 27 51 gemhead 10;
#X floatatom 60 84 5 0 0 0 - - - 0;
#X floatatom 101 83 5 0 0 0 - - - 0;
#X floatatom 143 84 5 0 0 0 - - - 0;
#X msg 121 156 1 0 0;
#X obj 27 233 world_light;
#X msg 130 173 0.4 0.4 0.4;
#X msg 111 133 0 0 0;
#X obj 30 166 tgl 15 0 empty empty empty 0 -6 0 8 #fcfcfc #000000 #000000 0 1;
#X msg 30 187 debug \$1;
#X obj 27 109 rotateXYZ 0 -90 0;
#X msg 362 225 0.8 0.8 0.8;
#X msg 144 199 0.7 0.7 0.7;
#X msg 346 198 0.6 0.6 0.6;
#X obj 408 87 loadbang;
#X connect 0 0 10 0;
#X connect 1 0 10 1;
#X connect 2 0 10 2;
#X connect 3 0 10 3;
#X connect 4 0 5 1;
#X connect 6 0 5 1;
#X connect 7 0 5 1;
#X connect 8 0 9 0;
#X connect 9 0 5 0;
#X connect 10 0 5 0;
#X connect 11 0 21 0;
#X connect 12 0 21 1;
#X connect 13 0 21 2;
#X connect 14 0 21 3;
#X connect 15 0 16 1;
#X connect 17 0 16 1;
#X connect 18 0 16 1;
#X connect 19 0 20 0;
#X connect 20 0 16 0;
#X connect 21 0 16 0;
#X connect 22 0 5 1;
#X connect 23 0 16 1;
#X connect 24 0 5 1;
#X connect 25 0 23 0;
#X connect 25 0 24 0;
#X restore 530 109 pd light;
#N canvas 787 134 1470 830 random_crap 0;
#X obj 155 1039 rotateXYZ 0 0 90;
#X obj 201 832 bng 20 250 50 0 empty empty empty 0 -10 0 12 #fcfcfc #000000 #000000;
#X obj 200 889 random 300;
#X obj 231 926 bng 20 250 50 0 empty empty empty 0 -10 0 12 #fcfcfc #000000 #000000;
#X obj 230 983 random 300;
#X obj 293 901 bng 20 250 50 0 empty empty empty 0 -10 0 12 #fcfcfc #000000 #000000;
#X obj 292 946 random 300;
#X obj 47 1115 sphere;
#X msg 35 577 draw line;
#X floatatom 512 558 5 0 0 0 - - - 0;
#X floatatom 566 589 5 0 0 0 - - - 0;
#X text 566 573 height;
#X text 512 542 width;
#X obj 459 633 slideSquares 1 1;
#X msg 417 530 draw line;
#X obj 457 437 rotateXYZ 0 0 0;
#X obj 457 396 translateXYZ 0 0 1.2;
#X msg 378 502 draw point;
#X msg 353 478 draw fill;
#X connect 0 0 7 0;
#X connect 1 0 2 0;
#X connect 2 0 0 1;
#X connect 3 0 4 0;
#X connect 4 0 0 2;
#X connect 5 0 6 0;
#X connect 6 0 0 3;
#X connect 8 0 7 0;
#X connect 9 0 13 1;
#X connect 10 0 13 2;
#X connect 14 0 13 0;
#X connect 15 0 13 0;
#X connect 16 0 15 0;
#X connect 17 0 13 0;
#X connect 18 0 13 0;
#X restore 45 116 pd random_crap;
#N canvas 131 59 808 753 recursive_spinning_cubes 0;
#X obj 208 354 rotateXYZ 10 20 30;
#X obj 213 538 rotateXYZ 10 20 30;
#X obj 219 747 cube 0.1;
#X obj 208 377 separator;
#X obj 219 723 translateXYZ 0.3 0 0;
#X floatatom 258 697 5 0 0 0 - - - 0;
#X floatatom 304 697 5 0 0 0 - - - 0;
#X floatatom 346 698 5 0 0 0 - - - 0;
#X obj 205 222 gemrepeat 20;
#X obj 208 401 gemrepeat 20;
#X msg 67 576 draw line;
#X msg 98 542 draw fill;
#X obj 415 70 tgl 17 0 empty empty empty 17 7 0 10 #dcdcdc #000000 #000000 0 1;
#X obj 415 98 metro 50;
#X obj 409 584 hsl 128 15 0 127 0 0 empty empty empty -2 -8 0 10 #dcdcdc #000000 #000000 0 1;
#X floatatom 406 611 10 0 0 0 - - - 12;
#X obj 406 555 else/drunkard 0.1 0 1;
#X obj 203 181 accumrotate 45 0 0, f 23;
#X obj 21 17 inlet;
#X obj 446 20 inlet;
#X obj 151 32 tgl 19 0 empty empty empty 0 -10 0 12 #fcfcfc #000000 #000000 0 1;
#X obj 242 130 f;
#X floatatom 242 105 5 0 0 0 - - - 0;
#X floatatom 241 157 5 0 0 0 - - - 0;
#X obj 219 103 bng 19 250 50 0 empty empty empty 0 -10 0 12 #fcfcfc #000000 #000000;
#X obj 293 108 f;
#X floatatom 293 83 5 0 0 0 - - - 0;
#X floatatom 292 135 5 0 0 0 - - - 0;
#X obj 270 81 bng 19 250 50 0 empty empty empty 0 -10 0 12 #fcfcfc #000000 #000000;
#X obj 342 82 f;
#X floatatom 342 57 5 0 0 0 - - - 0;
#X floatatom 341 109 5 0 0 0 - - - 0;
#X obj 319 55 bng 19 250 50 0 empty empty empty 0 -10 0 12 #fcfcfc #000000 #000000;
#X obj 248 300 f;
#X floatatom 248 275 5 0 0 0 - - - 0;
#X floatatom 247 327 5 0 0 0 - - - 0;
#X obj 225 273 bng 19 250 50 0 empty empty empty 0 -10 0 12 #fcfcfc #000000 #000000;
#X obj 293 274 f;
#X floatatom 293 249 5 0 0 0 - - - 0;
#X floatatom 292 301 5 0 0 0 - - - 0;
#X obj 270 247 bng 19 250 50 0 empty empty empty 0 -10 0 12 #fcfcfc #000000 #000000;
#X obj 338 247 f;
#X floatatom 338 222 5 0 0 0 - - - 0;
#X floatatom 337 274 5 0 0 0 - - - 0;
#X obj 315 220 bng 19 250 50 0 empty empty empty 0 -10 0 12 #fcfcfc #000000 #000000;
#X obj 248 478 f;
#X floatatom 248 453 5 0 0 0 - - - 0;
#X floatatom 247 505 5 0 0 0 - - - 0;
#X obj 225 451 bng 19 250 50 0 empty empty empty 0 -10 0 12 #fcfcfc #000000 #000000;
#X obj 299 456 f;
#X floatatom 299 431 5 0 0 0 - - - 0;
#X floatatom 298 483 5 0 0 0 - - - 0;
#X obj 276 429 bng 19 250 50 0 empty empty empty 0 -10 0 12 #fcfcfc #000000 #000000;
#X obj 348 430 f;
#X floatatom 348 405 5 0 0 0 - - - 0;
#X floatatom 347 457 5 0 0 0 - - - 0;
#X obj 325 403 bng 19 250 50 0 empty empty empty 0 -10 0 12 #fcfcfc #000000 #000000;
#X obj 441 484 hsl 128 15 0 127 0 0 empty empty empty -2 -8 0 10 #dcdcdc #000000 #000000 0 1;
#X floatatom 438 511 10 0 0 0 - - - 12;
#X obj 438 455 else/drunkard 0.1 0 1;
#X obj 474 381 hsl 128 15 0 127 0 0 empty empty empty -2 -8 0 10 #dcdcdc #000000 #000000 0 1;
#X floatatom 471 408 10 0 0 0 - - - 12;
#X obj 471 352 else/drunkard 0.1 0 1;
#X obj 120 199 tgl 19 0 empty empty empty 0 -10 0 12 #fcfcfc #000000 #000000 0 1;
#X obj 133 419 tgl 19 0 empty empty empty 0 -10 0 12 #fcfcfc #000000 #000000 0 1;
#X floatatom 202 34 5 0 0 0 - - - 0;
#X floatatom 161 201 5 0 0 0 - - - 0;
#X floatatom 169 414 5 0 0 0 - - - 0;
#X obj 206 -20 unpack 0 0 0 0 0 0 0 0 0 0;
#X msg 206 -91 1 1 1 30 70 90 7 25 25;
#X obj 154 55 metro 177;
#X obj 123 222 metro 78;
#X obj 136 442 metro 73;
#X connect 0 0 3 0;
#X connect 1 0 4 0;
#X connect 3 0 9 0;
#X connect 4 0 2 0;
#X connect 5 0 4 1;
#X connect 6 0 4 2;
#X connect 7 0 4 3;
#X connect 8 0 0 0;
#X connect 9 0 1 0;
#X connect 10 0 2 0;
#X connect 11 0 2 0;
#X connect 12 0 13 0;
#X connect 12 0 20 0;
#X connect 12 0 63 0;
#X connect 12 0 64 0;
#X connect 13 0 16 0;
#X connect 13 0 62 0;
#X connect 13 0 59 0;
#X connect 14 0 15 0;
#X connect 15 0 7 0;
#X connect 16 0 14 0;
#X connect 17 0 8 0;
#X connect 18 0 17 0;
#X connect 19 0 12 0;
#X connect 20 0 70 0;
#X connect 21 0 23 0;
#X connect 22 0 21 0;
#X connect 23 0 17 1;
#X connect 24 0 21 0;
#X connect 25 0 27 0;
#X connect 26 0 25 0;
#X connect 27 0 17 2;
#X connect 28 0 25 0;
#X connect 29 0 31 0;
#X connect 30 0 29 0;
#X connect 31 0 17 3;
#X connect 32 0 29 0;
#X connect 33 0 35 0;
#X connect 34 0 33 0;
#X connect 35 0 0 1;
#X connect 36 0 33 0;
#X connect 37 0 39 0;
#X connect 38 0 37 0;
#X connect 39 0 0 2;
#X connect 40 0 37 0;
#X connect 41 0 43 0;
#X connect 42 0 41 0;
#X connect 43 0 0 3;
#X connect 44 0 41 0;
#X connect 45 0 47 0;
#X connect 46 0 45 0;
#X connect 47 0 1 1;
#X connect 48 0 45 0;
#X connect 49 0 51 0;
#X connect 50 0 49 0;
#X connect 51 0 1 2;
#X connect 52 0 49 0;
#X connect 53 0 55 0;
#X connect 54 0 53 0;
#X connect 55 0 1 3;
#X connect 56 0 53 0;
#X connect 57 0 58 0;
#X connect 58 0 6 0;
#X connect 59 0 57 0;
#X connect 60 0 61 0;
#X connect 61 0 5 0;
#X connect 62 0 60 0;
#X connect 63 0 71 0;
#X connect 64 0 72 0;
#X connect 65 0 70 1;
#X connect 66 0 71 1;
#X connect 67 0 72 1;
#X connect 68 0 22 0;
#X connect 68 1 26 0;
#X connect 68 2 30 0;
#X connect 68 3 34 0;
#X connect 68 4 38 0;
#X connect 68 5 42 0;
#X connect 68 6 46 0;
#X connect 68 7 50 0;
#X connect 68 8 54 0;
#X connect 69 0 68 0;
#X connect 70 0 32 0;
#X connect 70 0 28 0;
#X connect 70 0 24 0;
#X connect 71 0 44 0;
#X connect 71 0 40 0;
#X connect 71 0 36 0;
#X connect 72 0 56 0;
#X connect 72 0 52 0;
#X connect 72 0 48 0;
#X restore 190 479 pd recursive_spinning_cubes;
#X obj 238 416 tgl 19 0 empty empty empty 0 -10 0 12 #fcfcfc #000000 #000000 0 1;
#X obj 189 449 spigot 1;
#N canvas 756 147 897 776 spikey_thing 0;
#X obj 478 937 GEMglPushMatrix;
#X obj 498 916 GEMglPopMatrix;
#X floatatom 755 956 5 0 0 0 - - - 0;
#X obj 417 511 rotateXYZ 0 0 90;
#X obj 417 594 route F;
#X text 673 617 <- rule 1;
#X obj 417 641 route F;
#X msg 417 665 F \, [ \, - \, F \, F \, ] \, F \, [ \, + \, F \, ] \, F;
#X obj 417 689 route F;
#X text 674 663 <- rule 2;
#X text 673 711 <- rule 3;
#X msg 417 564 F;
#X obj 417 539 t b a;
#X obj 386 1189 translateXYZ 0.05 0 0;
#X obj 417 482 translateXYZ 0 -3 0;
#X obj 422 1081 rotateXYZ 0 0 50;
#X obj 446 990 rotateXYZ 0 0 -40;
#X obj 755 975 / 100;
#X msg 755 933 10;
#X obj 755 910 loadbang;
#X text 527 764 <- create the primitive according to the Lsystem;
#X text 672 730 These rules create an Lsystem;
#X text 554 835 <- Store the current state sent by [gemhead] and distribute it to the corresponding primitives;
#X msg 417 618 F \, [ \, - \, F \, ] \, F \, [ \, + \, F \, ] \, F;
#X obj 417 805 gemlist;
#X obj 449 564 s \$0-gemlist;
#X obj 437 826 gemlist;
#X obj 456 849 gemlist;
#X obj 478 871 gemlist;
#X obj 498 892 gemlist;
#X obj 544 784 r \$0-gemlist;
#X msg 417 713 F \, [ \, - \, F \, F \, ] \, F \, [ \, + \, F \, ] \, F;
#X obj 417 763 route F - + [ ];
#X msg 766 1177 print;
#X obj 811 1439 glsl_program;
#X obj 952 1218 change;
#X msg 835 1410 print;
#X floatatom 952 1241 2 0 0 0 ID - - 0;
#X obj 901 1389 print linking;
#X obj 811 1199 glsl_vertex;
#X obj 811 1628 pix_texture;
#X obj 811 1121 alpha;
#X obj 838 1574 tgl 15 0 empty empty empty 17 7 0 10 #fcfcfc #000000 #000000 0 1;
#X floatatom 1029 1379 5 0 0 0 - - - 0;
#X msg 838 1552 0;
#X msg 1029 1400 K \$1;
#N canvas 0 50 450 300 load_shader 0;
#X obj 89 99 t b b;
#X msg 119 126 0;
#X obj 89 154 outlet;
#X obj 89 71 gemhead 1;
#X connect 0 0 2 0;
#X connect 0 1 1 0;
#X connect 1 0 3 0;
#X connect 3 0 0 0;
#X restore 903 1091 pd load_shader;
#N canvas 50 82 450 300 init_shader 0;
#X obj 89 154 outlet;
#X obj 89 45 inlet;
#X obj 89 73 change;
#X obj 89 100 t b;
#X connect 1 0 2 0;
#X connect 2 0 3 0;
#X connect 3 0 0 0;
#X restore 890 1463 pd init_shader;
#X obj 838 1531 loadbang;
#X obj 811 1648 rotateXYZ -90 0 0;
#X msg 1028 1334 0.1;
#X msg 838 1594 rectangle \$1;
#X obj 811 1257 glsl_fragment;
#X obj 899 1279 change;
#X floatatom 899 1302 2 0 0 0 ID - - 0;
#X obj 899 1321 pack 0 0;
#X msg 899 1368 link \$1 \$2;
#X msg 935 1177 open \$1.frag;
#X obj 903 1140 t s s;
#X msg 825 1177 open \$1.vert;
#X msg 903 1120 symbol shader/P_distord;
#X floatatom 1076 1310 5 0 0 0 - - - 0;
#X obj 1076 1332 / 100;
#X obj 811 1671 sphere 0.3;
#X msg 1158 1477 draw line;
#X msg 1165 1500 draw fill;
#X msg 1171 1521 draw point;
#X obj 668 536 / 100;
#X floatatom 811 529 5 0 0 0 - - - 0;
#X obj 811 551 / 100;
#X obj 752 536 / 100;
#X floatatom 668 503 5 0 0 0 - - - 0;
#X floatatom 747 503 5 0 0 0 - - - 0;
#X obj 359 149 separator;
#X floatatom 437 192 5 0 0 0 - - - 0;
#X obj 429 226 / 100;
#X floatatom 492 195 5 0 0 0 - - - 0;
#X obj 484 229 / 100;
#X floatatom 568 189 5 0 0 0 - - - 0;
#X obj 560 223 / 100;
#X floatatom 435 313 5 0 0 0 - - - 0;
#X floatatom 490 316 5 0 0 0 - - - 0;
#X floatatom 566 310 5 0 0 0 - - - 0;
#X obj 356 105 rotateXYZ 0 0 90;
#X obj 812 1506 pix_image ./textures/1.png;
#X msg 1504 1487 open textures/2.png;
#X msg 1511 1459 open textures/3.png;
#X msg 1503 1517 open textures/1.png;
#X obj 310 1579 translateXYZ 0.05 0 0;
#X obj 260 24 inlet;
#X obj 535 79 metro 11;
#N canvas 117 666 450 300 movement 0;
#X obj 39 113 i;
#X obj 81 112 + 1;
#X obj 36 230 outlet;
#X obj 28 29 inlet;
#X connect 0 0 1 0;
#X connect 0 0 2 0;
#X connect 1 0 0 1;
#X connect 3 0 0 0;
#X restore 531 118 pd movement;
#X obj 428 25 inlet;
#X obj 581 16 inlet;
#X obj 960 295 inlet;
#X obj 1131 558 inlet;
#X obj 1265 1203 i;
#X obj 1307 1202 + 1;
#X obj 1253 1076 bng 20 250 50 0 empty empty empty 0 -10 0 12 #fcfcfc #000000 #000000;
#X floatatom 1264 1229 5 0 0 0 - - - 0;
#X obj 1264 1253 % 3;
#X floatatom 1264 1284 5 0 0 0 - - - 0;
#X obj 1264 1308 sel 0 1 2, f 24;
#X obj 1245 1354 bng 20 250 50 0 empty empty empty 0 -10 0 12 #fcfcfc #000000 #000000;
#X obj 1308 1377 bng 20 250 50 0 empty empty empty 0 -10 0 12 #fcfcfc #000000 #000000;
#X obj 1373 1372 bng 20 250 50 0 empty empty empty 0 -10 0 12 #fcfcfc #000000 #000000;
#X obj 1442 1382 bng 20 250 50 0 empty empty empty 0 -10 0 12 #fcfcfc #000000 #000000;
#X obj 1246 806 inlet;
#X obj 1545 1200 i;
#X obj 1587 1199 + 1;
#X obj 1533 1073 bng 20 250 50 0 empty empty empty 0 -10 0 12 #fcfcfc #000000 #000000;
#X floatatom 1544 1226 5 0 0 0 - - - 0;
#X obj 1544 1250 % 3;
#X floatatom 1544 1281 5 0 0 0 - - - 0;
#X obj 1544 1305 sel 0 1 2, f 24;
#X obj 1525 1351 bng 20 250 50 0 empty empty empty 0 -10 0 12 #fcfcfc #000000 #000000;
#X obj 1588 1374 bng 20 250 50 0 empty empty empty 0 -10 0 12 #fcfcfc #000000 #000000;
#X obj 1653 1369 bng 20 250 50 0 empty empty empty 0 -10 0 12 #fcfcfc #000000 #000000;
#X obj 1722 1379 bng 20 250 50 0 empty empty empty 0 -10 0 12 #fcfcfc #000000 #000000;
#X obj 1526 803 inlet;
#X obj 323 30 inlet;
#X obj 159 98 spigot;
#X connect 2 0 17 0;
#X connect 3 0 12 0;
#X connect 4 0 23 0;
#X connect 4 1 6 0;
#X connect 6 0 7 0;
#X connect 6 1 8 0;
#X connect 7 0 8 0;
#X connect 8 0 31 0;
#X connect 8 1 32 0;
#X connect 11 0 4 0;
#X connect 12 0 11 0;
#X connect 12 1 25 0;
#X connect 13 0 41 0;
#X connect 14 0 3 0;
#X connect 17 0 13 1;
#X connect 17 0 88 1;
#X connect 18 0 2 0;
#X connect 19 0 18 0;
#X connect 23 0 6 0;
#X connect 24 0 13 0;
#X connect 26 0 15 0;
#X connect 26 0 27 0;
#X connect 27 0 16 0;
#X connect 28 0 0 0;
#X connect 29 0 1 0;
#X connect 30 0 24 1;
#X connect 30 0 26 1;
#X connect 30 0 27 1;
#X connect 30 0 28 1;
#X connect 30 0 29 1;
#X connect 31 0 32 0;
#X connect 32 0 24 0;
#X connect 32 1 26 0;
#X connect 32 2 27 0;
#X connect 32 3 28 0;
#X connect 32 4 29 0;
#X connect 33 0 39 0;
#X connect 34 0 84 0;
#X connect 34 1 47 0;
#X connect 35 0 37 0;
#X connect 36 0 34 0;
#X connect 37 0 55 1;
#X connect 39 0 52 0;
#X connect 39 1 35 0;
#X connect 40 0 49 0;
#X connect 41 0 39 0;
#X connect 42 0 51 0;
#X connect 43 0 45 0;
#X connect 44 0 42 0;
#X connect 45 0 34 0;
#X connect 46 0 60 0;
#X connect 47 0 50 0;
#X connect 48 0 44 0;
#X connect 49 0 63 0;
#X connect 50 0 43 0;
#X connect 51 0 40 0;
#X connect 52 0 34 0;
#X connect 52 1 53 0;
#X connect 53 0 54 0;
#X connect 54 0 55 0;
#X connect 55 0 56 0;
#X connect 56 0 34 0;
#X connect 56 0 38 0;
#X connect 57 0 52 0;
#X connect 58 0 59 0;
#X connect 58 1 57 0;
#X connect 59 0 39 0;
#X connect 60 0 58 0;
#X connect 61 0 62 0;
#X connect 62 0 43 0;
#X connect 63 0 88 0;
#X connect 64 0 63 0;
#X connect 65 0 63 0;
#X connect 66 0 63 0;
#X connect 67 0 13 1;
#X connect 68 0 69 0;
#X connect 69 0 13 3;
#X connect 70 0 13 2;
#X connect 71 0 67 0;
#X connect 72 0 70 0;
#X connect 73 0 14 0;
#X connect 74 0 75 0;
#X connect 75 0 14 1;
#X connect 76 0 77 0;
#X connect 77 0 14 2;
#X connect 78 0 79 0;
#X connect 79 0 14 3;
#X connect 80 0 3 1;
#X connect 81 0 3 2;
#X connect 82 0 3 3;
#X connect 83 0 73 0;
#X connect 84 0 40 0;
#X connect 85 0 84 0;
#X connect 86 0 84 0;
#X connect 87 0 84 0;
#X connect 89 0 121 0;
#X connect 90 0 91 0;
#X connect 91 0 83 1;
#X connect 91 0 83 2;
#X connect 91 0 83 3;
#X connect 91 0 16 1;
#X connect 91 0 16 2;
#X connect 91 0 16 3;
#X connect 91 0 15 1;
#X connect 91 0 15 2;
#X connect 91 0 15 3;
#X connect 92 0 90 0;
#X connect 93 0 90 1;
#X connect 94 0 2 0;
#X connect 95 0 61 0;
#X connect 96 0 97 0;
#X connect 96 0 99 0;
#X connect 97 0 96 1;
#X connect 98 0 96 0;
#X connect 99 0 100 0;
#X connect 100 0 101 0;
#X connect 101 0 102 0;
#X connect 102 0 103 0;
#X connect 102 1 104 0;
#X connect 102 2 105 0;
#X connect 102 3 106 0;
#X connect 103 0 64 0;
#X connect 104 0 65 0;
#X connect 105 0 66 0;
#X connect 107 0 98 0;
#X connect 108 0 109 0;
#X connect 108 0 111 0;
#X connect 109 0 108 1;
#X connect 110 0 108 0;
#X connect 111 0 112 0;
#X connect 112 0 113 0;
#X connect 113 0 114 0;
#X connect 114 0 115 0;
#X connect 114 1 116 0;
#X connect 114 2 117 0;
#X connect 114 3 118 0;
#X connect 115 0 86 0;
#X connect 116 0 85 0;
#X connect 117 0 87 0;
#X connect 119 0 110 0;
#X connect 120 0 121 1;
#X connect 121 0 83 0;
#X restore 162 615 pd spikey_thing;
#X f 39;
#X obj 210 579 tgl 20 0 empty empty empty 0 -10 0 12 #fcfcfc #000000 #000000 0 1;
#X floatatom 262 577 5 0 0 0 - - - 0;
#X floatatom 320 574 5 0 0 0 - - - 0;
#X floatatom 365 572 5 0 0 0 - - - 0;
#X obj 191 546 tgl 20 0 empty empty empty 0 -10 0 12 #fcfcfc #000000 #000000 0 1;
#X obj 419 559 bng 20 250 50 0 empty empty empty 0 -10 0 12 #fcfcfc #000000 #000000;
#X obj 428 584 bng 20 250 50 0 empty empty empty 0 -10 0 12 #fcfcfc #000000 #000000;
#X obj 485 85 line;
#X floatatom 485 110 5 0 0 0 - - - 0;
#X msg 526 65 0 5000;
#X msg 483 41 50 5000;
#X obj 496 489 tgl 19 0 empty empty empty 0 -10 0 12 #fcfcfc #000000 #000000 0 1;
#X obj 401 490 separator;
#X obj 402 514 video, f 15;
#X msg 512 434 4;
#X obj 416 401 bng 20 250 50 0 empty empty empty 0 -10 0 12 #fcfcfc #000000 #000000;
#X obj 434 440 i;
#X floatatom 427 456 5 0 0 0 - - - 0;
#X obj 474 440 + 1;
#X obj 527 464 loadbang;
#X msg 527 489 1;
#X obj 459 376 tgl 19 0 empty empty empty 0 -10 0 12 #fcfcfc #000000 #000000 0 1;
#X obj 391 373 spigot 1;
#X obj 390 346 separator;
#X obj 164 514 separator;
#X obj 187 387 separator;
#X obj 640 546 tgl 20 0 empty empty empty 0 -10 0 12 #fcfcfc #000000 #000000 0 1;
#N canvas 384 200 798 473 time_filtering 0;
#X obj 42 173 outlet;
#X obj 43 117 inlet;
#N canvas 569 279 787 662 togglefx 0;
#X obj 89 290 outlet;
#X obj 36 37 inlet;
#X obj 121 172 spigot 1;
#X obj 32 245 spigot 0;
#X msg 127 94 0 1;
#X msg 165 94 1 0;
#X obj 122 125 unpack 0 0;
#X obj 124 37 inlet;
#X obj 189 297 outlet;
#X obj 237 27 inlet;
#X obj 299 58 loadbang;
#X obj 124 68 route 0 1;
#X connect 1 0 3 0;
#X connect 1 0 2 0;
#X connect 2 0 8 0;
#X connect 3 0 0 0;
#X connect 4 0 6 0;
#X connect 5 0 6 0;
#X connect 6 0 3 1;
#X connect 6 1 2 1;
#X connect 7 0 11 0;
#X connect 9 0 0 0;
#X connect 10 0 4 0;
#X connect 11 0 4 0;
#X connect 11 1 5 0;
#X restore 43 143 pd togglefx;
#X obj 95 57 inlet;
#X obj 195 60 inlet;
#X floatatom 198 178 5 0 0 0 - - - 0;
#X obj 185 228 pix_tIIR 2 2;
#X obj 198 198 * 0.01;
#X obj 198 133 unpack 30 60 10 50 50 -20;
#X floatatom 247 178 5 0 0 0 - - - 0;
#X obj 247 198 * 0.01;
#X floatatom 294 178 5 0 0 0 - - - 0;
#X obj 294 198 * 0.01;
#X floatatom 343 178 5 0 0 0 - - - 0;
#X obj 343 198 * 0.01;
#X floatatom 390 178 5 0 0 0 - - - 0;
#X obj 390 198 * 0.01;
#X floatatom 439 178 5 0 0 0 - - - 0;
#X obj 439 198 * 0.01;
#X msg 198 87 bang;
#X obj 198 109 pack 30 60 10 50 50 -20;
#X obj 264 40 inlet;
#X obj 307 40 inlet;
#X obj 349 39 inlet;
#X obj 392 39 inlet;
#X obj 435 39 inlet;
#X obj 478 39 inlet;
#X connect 1 0 2 0;
#X connect 2 0 0 0;
#X connect 2 1 6 0;
#X connect 3 0 2 1;
#X connect 4 0 19 0;
#X connect 5 0 7 0;
#X connect 6 0 2 2;
#X connect 7 0 6 1;
#X connect 8 0 5 0;
#X connect 8 1 9 0;
#X connect 8 2 11 0;
#X connect 8 3 13 0;
#X connect 8 4 15 0;
#X connect 8 5 17 0;
#X connect 9 0 10 0;
#X connect 10 0 6 2;
#X connect 11 0 12 0;
#X connect 12 0 6 3;
#X connect 13 0 14 0;
#X connect 14 0 6 4;
#X connect 15 0 16 0;
#X connect 16 0 6 5;
#X connect 17 0 18 0;
#X connect 18 0 6 6;
#X connect 19 0 20 0;
#X connect 20 0 8 0;
#X connect 21 0 5 0;
#X connect 22 0 9 0;
#X connect 23 0 11 0;
#X connect 24 0 13 0;
#X connect 25 0 15 0;
#X connect 26 0 17 0;
#X restore 604 581 pd time_filtering;
#X f 48;
#X floatatom 725 551 5 0 0 0 - - - 0;
#X floatatom 768 556 5 0 0 0 - - - 0;
#X floatatom 809 532 5 0 0 0 - - - 0;
#X floatatom 850 555 5 0 0 0 - - - 0;
#X floatatom 891 531 5 0 0 0 - - - 0;
#X floatatom 933 550 5 0 0 0 - - - 0;
#X obj 683 549 bng 19 250 50 0 empty empty empty 0 -10 0 12 #fcfcfc #000000 #000000;
#N canvas 0 38 1470 830 particle_system 0;
#X obj 103 160 part_head;
#X text 327 187 the velocity domain;
#X text 326 202 a sphere at 0 \, 0.2 \, 0;
#X text 327 221 radius = 0.3;
#X msg 302 247 0 0.2 0 0.3;
#X msg 413 247 0.2 0 0 0.3;
#X obj 107 410 part_render;
#X obj 107 208 part_size 1;
#X msg 197 185 2;
#X obj 107 284 part_color;
#X msg 130 230 1 0 0;
#X obj 107 341 part_source 5;
#X msg 142 258 0 1 0;
#X msg 167 184 1;
#X obj 107 311 part_velocity sphere 0 0.02 0 0.03;
#X obj 107 372 part_killold 100;
#X obj 105 564 pix_texture;
#X floatatom 611 811 5 0 0 0 - - - 0;
#X obj 611 833 / 100;
#X obj 519 854 cube 0.1, f 12;
#X msg 603 923 draw line;
#X msg 610 946 draw fill;
#X msg 616 967 draw point;
#X obj 112 124 separator;
#X obj 173 -51 inlet;
#X text 433 310 <domain>: one of "point" \, "line" \, "triangle" \, "plane" \, "box" \, "sphere" \, "cylinder" \, "cone" \, "blob" \, "disc" \, "rectangle";
#X text 432 351 <arguments>: up to 9 floats \, defining the specified domain (like "x y z" for "point" \, "x1 y1 z1 x2 y2 z2" for "line" \, "x y z r" for "sphere" \, ...). The meaning of the arguments depends -of course- on the domain.;
#X msg 548 105 symbol sphere;
#X msg 536 229 0 0.1 0 0.1;
#X msg 535 203 0.1 -0.1 0 0.05;
#X text 535 187 arguments;
#X obj 560 704 rotateXYZ 0 0 90;
#X obj 586 553 metro 11;
#X obj 586 466 tgl 20 0 empty empty empty 0 -10 0 12 #fcfcfc #000000 #000000 0 1;
#N canvas 117 666 450 300 movement 0;
#X obj 39 113 i;
#X obj 81 112 + 1;
#X obj 36 230 outlet;
#X obj 28 29 inlet;
#X connect 0 0 1 0;
#X connect 0 0 2 0;
#X connect 1 0 0 1;
#X connect 3 0 0 0;
#X restore 591 597 pd movement;
#N canvas 117 666 450 300 movement 0;
#X obj 39 113 i;
#X obj 81 112 + 1;
#X obj 36 230 outlet;
#X obj 28 29 inlet;
#X connect 0 0 1 0;
#X connect 0 0 2 0;
#X connect 1 0 0 1;
#X connect 3 0 0 0;
#X restore 625 623 pd movement;
#N canvas 117 666 450 300 movement 0;
#X obj 39 113 i;
#X obj 81 112 + 1;
#X obj 36 230 outlet;
#X obj 28 29 inlet;
#X connect 0 0 1 0;
#X connect 0 0 2 0;
#X connect 1 0 0 1;
#X connect 3 0 0 0;
#X restore 660 656 pd movement;
#X floatatom 685 519 5 0 0 0 - - - 0;
#X msg 561 136 symbol cone;
#X obj 889 295 i;
#X obj 931 294 + 1;
#X obj 877 168 bng 20 250 50 0 empty empty empty 0 -10 0 12 #fcfcfc #000000 #000000;
#X floatatom 888 321 5 0 0 0 - - - 0;
#X obj 888 345 % 3;
#X floatatom 888 376 5 0 0 0 - - - 0;
#X obj 888 400 sel 0 1 2, f 24;
#X obj 869 446 bng 20 250 50 0 empty empty empty 0 -10 0 12 #fcfcfc #000000 #000000;
#X obj 932 469 bng 20 250 50 0 empty empty empty 0 -10 0 12 #fcfcfc #000000 #000000;
#X obj 997 464 bng 20 250 50 0 empty empty empty 0 -10 0 12 #fcfcfc #000000 #000000;
#X obj 869 99 inlet;
#X obj 191 35 inlet;
#X obj 150 81 spigot;
#X msg 291 453 open textures/3.png;
#X msg 283 482 open textures/2.png;
#X msg 282 512 open textures/1.png;
#X obj 104 475 pix_image textures/1.png;
#X obj 370 812 outlet;
#X connect 0 0 7 0;
#X connect 4 0 14 2;
#X connect 5 0 14 2;
#X connect 6 0 55 0;
#X connect 7 0 9 0;
#X connect 8 0 7 1;
#X connect 9 0 14 0;
#X connect 10 0 9 1;
#X connect 11 0 15 0;
#X connect 12 0 9 2;
#X connect 13 0 7 1;
#X connect 14 0 11 0;
#X connect 15 0 6 0;
#X connect 16 0 31 0;
#X connect 17 0 18 0;
#X connect 18 0 19 1;
#X connect 20 0 19 0;
#X connect 21 0 19 0;
#X connect 22 0 19 0;
#X connect 23 0 0 0;
#X connect 24 0 51 0;
#X connect 27 0 14 1;
#X connect 28 0 14 2;
#X connect 31 0 56 0;
#X connect 31 0 19 0;
#X connect 32 0 34 0;
#X connect 32 0 35 0;
#X connect 32 0 36 0;
#X connect 33 0 32 0;
#X connect 34 0 31 1;
#X connect 35 0 31 2;
#X connect 36 0 31 3;
#X connect 37 0 32 1;
#X connect 38 0 14 1;
#X connect 39 0 40 0;
#X connect 39 0 42 0;
#X connect 40 0 39 1;
#X connect 41 0 39 0;
#X connect 42 0 43 0;
#X connect 43 0 44 0;
#X connect 44 0 45 0;
#X connect 45 0 46 0;
#X connect 45 1 47 0;
#X connect 45 2 48 0;
#X connect 46 0 52 0;
#X connect 47 0 53 0;
#X connect 48 0 54 0;
#X connect 49 0 41 0;
#X connect 50 0 51 1;
#X connect 50 0 33 0;
#X connect 51 0 23 0;
#X connect 52 0 53 0;
#X connect 52 0 55 0;
#X connect 53 0 55 0;
#X connect 54 0 55 0;
#X connect 55 0 16 0;
#X restore 435 309 pd particle_system;
#X obj 498 284 tgl 20 0 empty empty empty 0 -10 0 12 #fcfcfc #000000 #000000 0 1;
#X obj 572 281 bng 20 250 50 0 empty empty empty 0 -10 0 12 #fcfcfc #000000 #000000;
#X obj 394 233 separator;
#X obj 415 148 select 97 115 100 102 103;
#X obj 760 216 hsl 128 15 0 127 0 0 empty empty empty -2 -8 0 10 #dcdcdc #000000 #000000 0 1;
#X obj 757 187 else/drunkard 1 0 999;
#X obj 761 155 metro 11;
#X obj 763 126 tgl 19 0 empty empty empty 0 -10 0 12 #fcfcfc #000000 #000000 0 1;
#N canvas 63 101 608 391 six_drunkards 0;
#X obj 43 134 hsl 128 15 0 127 0 0 empty empty empty -2 -8 0 10 #dcdcdc #000000 #000000 0 1;
#X obj 40 105 else/drunkard 1 0 999;
#X obj 44 73 inlet;
#X obj 40 154 - 400;
#X obj 202 135 hsl 128 15 0 127 0 0 empty empty empty -2 -8 0 10 #dcdcdc #000000 #000000 0 1;
#X obj 199 106 else/drunkard 1 0 999;
#X obj 199 155 - 400;
#X obj 362 134 hsl 128 15 0 127 0 0 empty empty empty -2 -8 0 10 #dcdcdc #000000 #000000 0 1;
#X obj 359 105 else/drunkard 1 0 999;
#X obj 359 154 - 400;
#X obj 43 221 hsl 128 15 0 127 0 0 empty empty empty -2 -8 0 10 #dcdcdc #000000 #000000 0 1;
#X obj 40 192 else/drunkard 1 0 999;
#X obj 40 241 - 400;
#X obj 202 222 hsl 128 15 0 127 0 0 empty empty empty -2 -8 0 10 #dcdcdc #000000 #000000 0 1;
#X obj 199 193 else/drunkard 1 0 999;
#X obj 199 242 - 400;
#X obj 362 221 hsl 128 15 0 127 0 0 empty empty empty -2 -8 0 10 #dcdcdc #000000 #000000 0 1;
#X obj 359 192 else/drunkard 1 0 999;
#X obj 359 241 - 400;
#X obj 35 318 outlet;
#X obj 85 318 outlet;
#X obj 137 317 outlet;
#X obj 187 317 outlet;
#X obj 242 316 outlet;
#X obj 292 316 outlet;
#X connect 0 0 3 0;
#X connect 1 0 0 0;
#X connect 2 0 1 0;
#X connect 2 0 5 0;
#X connect 2 0 8 0;
#X connect 2 0 11 0;
#X connect 2 0 14 0;
#X connect 2 0 17 0;
#X connect 3 0 19 0;
#X connect 4 0 6 0;
#X connect 5 0 4 0;
#X connect 6 0 21 0;
#X connect 7 0 9 0;
#X connect 8 0 7 0;
#X connect 9 0 23 0;
#X connect 10 0 12 0;
#X connect 11 0 10 0;
#X connect 12 0 20 0;
#X connect 13 0 15 0;
#X connect 14 0 13 0;
#X connect 15 0 22 0;
#X connect 16 0 18 0;
#X connect 17 0 16 0;
#X connect 18 0 24 0;
#X restore 751 468 pd six_drunkards;
#X obj 666 303 hsl 128 15 0 127 0 0 empty empty empty -2 -8 0 10 #dcdcdc #000000 #000000 0 1;
#X obj 663 274 else/drunkard 1 0 50;
#X obj 663 323 - 50;
#X obj 811 332 hsl 128 15 0 127 0 0 empty empty empty -2 -8 0 10 #dcdcdc #000000 #000000 0 1;
#X obj 808 303 else/drunkard 1 0 50;
#X obj 808 352 - 50;
#X obj 799 125 loadbang;
#X obj 434 259 rotateXYZ 0 0 90;
#X obj 758 438 spigot 1;
#X msg 846 73 1;
#X msg 878 73 0;
#X obj 275 201 select 113 119 101 114 116 121, f 32;
#X obj 812 405 tgl 19 0 empty empty empty 0 -10 0 12 #fcfcfc #000000 #000000 0 1;
#X connect 4 0 5 0;
#X connect 5 0 4 0;
#X connect 6 0 4 1;
#X connect 7 0 4 0;
#X connect 8 0 4 1;
#X connect 9 0 10 0;
#X connect 10 0 96 0;
#X connect 10 0 113 0;
#X connect 11 0 13 0;
#X connect 12 0 15 0;
#X connect 12 1 48 0;
#X connect 13 0 12 0;
#X connect 14 0 25 0;
#X connect 15 0 26 0;
#X connect 15 1 16 0;
#X connect 16 0 26 0;
#X connect 17 0 29 0;
#X connect 17 1 18 0;
#X connect 18 0 29 1;
#X connect 19 0 31 0;
#X connect 19 1 20 0;
#X connect 20 0 31 1;
#X connect 21 0 22 0;
#X connect 23 0 22 1;
#X connect 24 0 22 2;
#X connect 25 0 11 0;
#X connect 26 0 17 0;
#X connect 27 0 11 0;
#X connect 28 0 19 0;
#X connect 31 0 40 0;
#X connect 32 0 23 0;
#X connect 33 0 24 0;
#X connect 34 0 32 0;
#X connect 35 0 33 0;
#X connect 36 0 41 0;
#X connect 37 0 40 1;
#X connect 38 0 41 1;
#X connect 39 0 41 3;
#X connect 40 0 36 0;
#X connect 41 0 44 0;
#X connect 42 0 41 2;
#X connect 43 0 44 1;
#X connect 44 0 84 0;
#X connect 45 0 44 2;
#X connect 46 0 36 1;
#X connect 47 0 45 0;
#X connect 48 0 81 0;
#X connect 48 0 80 0;
#X connect 48 0 82 0;
#X connect 48 0 95 0;
#X connect 49 0 36 2;
#X connect 50 0 41 4;
#X connect 54 0 53 1;
#X connect 54 0 55 1;
#X connect 55 0 53 0;
#X connect 57 0 56 2;
#X connect 58 0 56 3;
#X connect 59 0 56 4;
#X connect 60 0 56 5;
#X connect 61 0 56 1;
#X connect 61 0 57 0;
#X connect 62 0 56 6;
#X connect 63 0 56 7;
#X connect 64 0 65 0;
#X connect 66 0 64 0;
#X connect 67 0 64 0;
#X connect 68 0 70 2;
#X connect 69 0 70 0;
#X connect 70 0 72 0;
#X connect 71 0 70 1;
#X connect 72 0 73 0;
#X connect 73 0 74 0;
#X connect 73 0 75 0;
#X connect 74 0 70 1;
#X connect 75 0 73 1;
#X connect 76 0 77 0;
#X connect 77 0 68 0;
#X connect 78 0 79 1;
#X connect 78 0 72 0;
#X connect 79 0 69 0;
#X connect 80 0 79 0;
#X connect 81 0 56 0;
#X connect 82 0 55 0;
#X connect 83 0 84 1;
#X connect 83 0 91 0;
#X connect 84 0 21 0;
#X connect 85 0 84 3;
#X connect 86 0 84 4;
#X connect 87 0 84 5;
#X connect 88 0 84 6;
#X connect 89 0 84 7;
#X connect 90 0 84 8;
#X connect 91 0 84 2;
#X connect 93 0 92 1;
#X connect 94 0 92 2;
#X connect 95 0 109 0;
#X connect 96 0 37 0;
#X connect 96 1 46 0;
#X connect 96 2 38 0;
#X connect 96 3 43 0;
#X connect 96 4 83 0;
#X connect 97 0 49 0;
#X connect 98 0 97 0;
#X connect 98 0 109 3;
#X connect 99 0 98 0;
#X connect 99 0 103 0;
#X connect 99 0 106 0;
#X connect 99 0 110 0;
#X connect 100 0 99 0;
#X connect 101 0 85 0;
#X connect 101 1 86 0;
#X connect 101 2 87 0;
#X connect 101 3 88 0;
#X connect 101 4 89 0;
#X connect 101 5 90 0;
#X connect 102 0 104 0;
#X connect 103 0 102 0;
#X connect 104 0 39 0;
#X connect 105 0 107 0;
#X connect 106 0 105 0;
#X connect 107 0 50 0;
#X connect 108 0 100 0;
#X connect 109 0 92 0;
#X connect 110 0 101 0;
#X connect 111 0 37 0;
#X connect 111 0 46 0;
#X connect 111 0 38 0;
#X connect 111 0 43 0;
#X connect 111 0 83 0;
#X connect 112 0 54 0;
#X connect 112 0 61 0;
#X connect 112 0 93 0;
#X connect 112 0 78 0;
#X connect 113 0 54 0;
#X connect 113 1 61 0;
#X connect 113 2 78 0;
#X connect 113 3 93 0;
#X connect 113 4 111 0;
#X connect 113 4 112 0;
#X connect 114 0 110 1;
