#N canvas 741 27 1169 979 16;
#X declare -path ./audio/instruments;
#X declare -path ./audio/objects;
#X declare -path ./visuals/objects;
#X declare -lib Gem;
#X declare -path ./visuals/vfx;
#X declare -path ./lib;
#X declare -lib Gem;
#X declare -lib audiolab -path audiolab;
#N canvas 33 446 622 529 imports 0;
#X obj 6 6 declare -path ./audio/instruments;
#X obj 6 28 declare -path ./audio/objects;
#X obj 6 51 declare -path ./visuals/objects;
#X obj 6 97 declare -lib Gem;
#X obj 6 74 declare -path ./visuals/vfx;
#X obj 26 155 declare -path ./lib;
#X restore 17 62 pd imports;
#X obj 18 39 declare -lib Gem;
#X obj 213 309 pdcontrol;
#X msg 213 281 dir;
#X obj 213 254 bng 15 250 50 0 empty empty empty 17 7 0 10 #fcfcfc #000000 #000000;
#X obj 216 221 loadbang;
#X obj 104 364 playdir2~;
#X obj 412 122 noise~;
#X obj 690 593 else/brickwall~ 500;
#X msg 212 336 \$1/sounds/atmos;
#X obj 103 390 *~ 1;
#X obj 179 1107 else/out~;
#X floatatom 107 331 5 0 0 0 - - - 0;
#X floatatom 815 517 5 0 0 0 - - - 0;
#X msg 231 131;
#X obj 111 199 metro 300;
#X obj 136 106 tgl 20 0 empty empty empty 0 -10 0 12 #fcfcfc #000000 #000000 0 1;
#X floatatom 165 129 5 0 0 0 - - - 0;
#X floatatom 207 446 8 1 10000 0 - - - 0;
#X obj 210 425 hsl 128 15 0 1 0 0 empty empty empty -2 -8 0 10 #dcdcdc #000000 #000000 0 1;
#X floatatom 276 478 8 1 10000 0 - - - 0;
#X obj 279 457 hsl 128 15 0 1 0 0 empty empty empty -2 -8 0 10 #dcdcdc #000000 #000000 0 1;
#X text 217 425 bit crushing (0-1);
#X text 294 457 decimation (0-1);
#X obj 207 466 else/f2s~;
#X obj 276 499 else/f2s~;
#X obj 855 373 else/quantizer~;
#X obj 858 411 else/downsample~;
#X obj 634 447 hsl 128 15 10 44100 1 0 empty empty empty -2 -8 0 10 #dcdcdc #000000 #000000 0 1;
#X obj 631 471 nbx 8 14 -1e+37 1e+37 0 0 empty empty empty 0 -8 0 10 #dcdcdc #000000 #000000 0 256;
#X text 715 472 frequency in Hz;
#X msg 463 463 interp \$1;
#X obj 463 436 tgl 16 0 empty empty empty 17 7 0 10 #dcdcdc #000000 #000000 0 1;
#X obj 538 495 else/downsample~;
#X obj 555 462 bng 17 250 50 0 empty empty empty 17 7 0 10 #dfdfdf #000000 #000000;
#X obj 607 289 hsl 128 15 0 1 0 0 empty empty empty -2 -8 0 10 #dcdcdc #000000 #000000 0 1;
#X obj 604 311 nbx 5 14 -1e+37 1e+37 0 0 empty empty empty 0 -8 0 10 #dcdcdc #000000 #000000 0 256;
#X obj 493 334 else/quantizer~ 0.1;
#X obj 101 533 else/crush~;
#X obj 418 189 noise~;
#X obj 418 249 *~;
#X obj 507 124 bng 18 250 50 0 empty empty empty 0 -9 0 10 #fcfcfc #000000 #000000;
#X text 531 123 bang to trigger oneshot adr envelope;
#X obj 180 47 declare -lib audiolab -path audiolab;
#X obj 488 182 pp.adsr~ 200 300 0.4 1000;
#A saved empty_slot \; empty_slot \; empty_slot \; empty_slot \; empty_slot \; empty_slot \; empty_slot \; empty_slot \; empty_slot \; empty_slot \; empty_slot \; empty_slot \; empty_slot \; empty_slot \; empty_slot \; empty_slot \; empty_slot \; empty_slot \; empty_slot \; empty_slot \; empty_slot \;;
#X obj 334 937 cnv 15 118 17 empty empty empty 20 12 0 14 #fc8000 #404040 0;
#N canvas 859 272 338 209 control-messages 0;
#X obj 57 180 outlet;
#X floatatom 57 34 5 0 0 0 - - - 0;
#X obj 101 147 cnv 16 87 16 empty empty empty 20 12 0 14 #fc8000 #404040 0;
#N canvas 864 246 634 307 save&recall 0;
#X obj 93 233 outlet;
#X msg 93 60 0;
#X msg 125 60 1;
#X msg 158 60 2;
#X msg 93 99 save \$1;
#X text 185 63 ...;
#X msg 207 60 20;
#X msg 149 154 0;
#X msg 181 154 1;
#X msg 214 154 2;
#X text 241 157 ...;
#X msg 263 154 20;
#X msg 149 193 recall \$1;
#X text 249 93 save & recall up to 20 presets \, presets will be saved with the parrent patch;
#X connect 1 0 4 0;
#X connect 2 0 4 0;
#X connect 3 0 4 0;
#X connect 4 0 0 0;
#X connect 6 0 4 0;
#X connect 7 0 12 0;
#X connect 8 0 12 0;
#X connect 9 0 12 0;
#X connect 11 0 12 0;
#X connect 12 0 0 0;
#X restore 101 146 pd save&recall;
#X msg 57 54 decay \$1;
#X text 98 35 decay time in ms;
#X floatatom 84 80 5 0 0 0 - - - 0;
#X msg 84 102 lookahead \$1;
#X text 122 81 "lookahead" delay in samps;
#X connect 1 0 4 0;
#X connect 3 0 0 0;
#X connect 4 0 0 0;
#X connect 6 0 7 0;
#X connect 7 0 0 0;
#X restore 334 937 pd control-messages;
#N canvas 740 417 503 292 message-out 0;
#X obj 30 33 inlet;
#X msg 30 60 decay 500 \, lookahead 64 \,;
#X connect 0 0 1 0;
#X restore 334 1002 pd message-out;
#X obj 186 961 pp.limit~;
#A saved empty_slot \; empty_slot \; empty_slot \; empty_slot \; empty_slot \; empty_slot \; empty_slot \; empty_slot \; empty_slot \; empty_slot \; empty_slot \; empty_slot \; empty_slot \; empty_slot \; empty_slot \; empty_slot \; empty_slot \; empty_slot \; empty_slot \; empty_slot \; empty_slot \;;
#X obj 594 795 hsl 128 15 0 1 0 0 empty empty empty -2 -8 0 10 #dcdcdc #000000 #000000 0 1;
#X floatatom 591 817 11 0 0 0 - - - 0;
#X text 701 823 select channels;
#X obj 106 649 osc~ 220;
#X obj 315 648 osc~ 440;
#X obj 218 640 osc~ 330;
#X obj 591 841 else/f2s~;
#X obj 185 722 tgl 20 0 empty empty empty 0 -10 0 12 #fcfcfc #000000 #000000 0 1;
#X obj 161 803 *~ 1;
#X obj 265 713 tgl 20 0 empty empty empty 0 -10 0 12 #fcfcfc #000000 #000000 0 1;
#X obj 241 794 *~ 1;
#X obj 331 713 tgl 20 0 empty empty empty 0 -10 0 12 #fcfcfc #000000 #000000 0 1;
#X obj 307 794 *~ 1;
#X obj 185 763 == 1;
#X obj 265 754 == 1;
#X obj 331 754 == 1;
#X obj 1541 223 nbx 6 14 -1e+37 1e+37 0 0 empty empty empty 0 -8 0 10 #dcdcdc #000000 #000000 0 256;
#X obj 1621 223 nbx 6 14 -1e+37 1e+37 0 0 empty empty empty 0 -8 0 10 #dcdcdc #000000 #000000 0 256;
#X text 1542 205 speed (%);
#X text 1619 204 transposition;
#X text 1688 222 cents;
#X obj 1395 258 else/stretch.shift~ 60000 20 -600 300;
#X obj 1396 322 tgl 20 0 empty empty empty 17 7 0 10 #dcdcdc #000000 #000000 0 1;
#X obj 1396 350 else/gran.player~ stereo.wav -speed 50 -transp -400, f 28;
#X obj 1506 326 nbx 6 14 -1e+37 1e+37 0 0 empty empty empty 0 -8 0 10 #dcdcdc #000000 #000000 0 256;
#X obj 1589 326 nbx 6 14 -1e+37 1e+37 0 0 empty empty empty 0 -8 0 10 #dcdcdc #000000 #000000 0 256;
#X text 1508 308 speed (%);
#X text 1588 307 transposition;
#X text 1658 325 cents;
#X obj 1451 327 nbx 4 14 -1e+37 1e+37 0 0 empty empty empty 0 -8 0 10 #dcdcdc #000000 #000000 0 256;
#X text 1438 308 size (ms);
#X obj 1543 722 else/stereo.rev~;
#X obj 1576 549 hsl 128 15 20 44100 1 0 empty empty empty -2 -8 0 10 #dcdcdc #000000 #000000 0 1;
#X obj 1573 578 nbx 8 14 -1e+37 1e+37 0 0 empty empty empty 0 -8 0 10 #dcdcdc #000000 #000000 0 256;
#X text 1589 548 frequency in Hz;
#X obj 1573 604 else/stepnoise~ 400;
#X obj 1092 473 else/square~ 220;
#X obj 398 1114 else/spectrograph~ 1024 1 1 300 140 100;
#X obj 1073 95 cnv 15 118 78 empty empty empty 20 12 0 14 #e0e0e0 #404040 0;
#N canvas 0 22 450 278 (subpatch) 0;
#X array \$0-clip 512 float 1;
#A 0 -1 -1 -1 -1 -1 -1 -1 -1 -1 -1 -1 -1 -1 -1 -1 -1 -1 -1 -1 -1 -1 -1 -1 -1 -1 -1 -1 -1 -1 -1 -1 -1 -1 -1 -1 -1 -1 -1 -1 -1 -1 -1 -1 -1 -1 -1 -1 -1 -1 -1 -1 -1 -1 -1 -1 -1 -1 -1 -1 -1 -1 -1 -1 -1 -1 -1 -1 -1 -1 -1 -1 -1 -1 -1 -1 -1 -1 -1 -1 -1 -1 -1 -1 -1 -0.104992 -0.170619 -0.170619 -0.170619 -0.183744 -0.183744 -0.196869 -0.196869 -0.216558 -0.22312 -0.242808 -0.249371 -0.262497 -0.262497 -0.275622 -0.275622 -0.288747 -0.288747 -0.288747 -0.288747 -0.288747 -0.282185 -0.275622 -0.255934 -0.249371 -0.209995 -0.196869 0.0892647 0.0813894 0.0735142 0.0656389 0.0545328 0.0434266 0.0323205 0.0212144 0.0101083 -0.000997851 -0.012104 -0.0232101 -0.0343162 -0.0454223 -0.0565285 -0.0676346 -0.0787407 -0.087491 -0.0962413 -0.104992 -0.113742 -0.122492 -0.131242 -0.139993 -0.148743 -0.157493 -0.166244 -0.174994 -0.183744 -0.192494 -0.201245 -0.209995 -0.218347 -0.2267 -0.235053 -0.243405 -0.251758 -0.26011 -0.268463 -0.276815 -0.285168 -0.29352 -0.301873 -0.312811 -0.323749 -0.334686 -0.07875 -0.356562 -0.3675 -1 -1 -1 -1 -1 -1 -1 -1 -1 -1 -1 -1 -1 -1 -1 -1 -1 -1 -1 -1 -1 -1 -1 -1 -1 -1 -1 -1 -1 -1 -1 -1 -1 -1 -1 -1 -1 -1 -1 -1 -1 -1 -1 -1 -1 -1 -1 -1 -1 -1 -1 -1 -1 -1 -1 -1 -1 -1 -1 -1 -1 -1 -1 -1 -1 -0.96875 -0.9375 -0.90625 -0.875 -0.84375 -0.8125 -0.78125 -0.75 -0.71875 -0.6875 -0.65625 -0.625 -0.59375 -0.5625 -0.53125 -0.5 -0.46875 -0.4375 -0.40625 -0.375 -0.34375 -0.3125 -0.28125 -0.25 -0.21875 -0.1875 -0.15625 -0.125 -0.09375 -0.0625 -0.03125 0 0.03125 0.0625 0.09375 0.125 0.15625 0.1875 0.21875 0.25 0.28125 0.3125 0.34375 0.375 0.40625 0.4375 0.46875 0.5 0.53125 0.5625 0.59375 0.625 0.65625 0.6875 0.71875 0.75 0.78125 0.8125 0.84375 0.875 0.90625 0.9375 0.96875 1 1 1 1 1 1 1 1 1 1 1 1 1 1 1 1 1 1 1 1 1 1 1 1 1 1 1 1 1 1 1 1 1 1 1 1 1 1 1 -0.367529 -0.380654 -0.380654 -0.374091 -0.367529 -0.367529 -0.367529 -0.363153 -0.358778 -0.354403 -0.354403 -0.354403 -0.341278 -0.328152 -0.325965 -0.323777 -0.32159 -0.319402 -0.317214 -0.315027 -0.305183 -0.295339 -0.285495 -0.275651 -0.269817 -0.263984 -0.25815 -0.252317 -0.246483 -0.24065 -0.234816 -0.228983 -0.223149 -0.218774 -0.214399 -0.210024 -0.205648 -0.201273 -0.196898 -0.191648 -0.186398 -0.181148 -0.175897 -0.170647 -0.164085 -0.157522 -0.150959 -0.144396 1 1 1 1 1 1 1 1 1 1 1 1 1 1 1 1 1 1 1 1 1 1 1 1 1 1 1 1 1 1 1 1 1 1 1 1 1 1 1 1 1 1 1 1 1 1 1 1 1 1 1 1 1 1 1 1 1 1 1 1 1 1 1 1 1 1 1 1 1 1 1 1 1 1 1 1 1 1 1 1 1 1 1 1 1 1 1 1 1 1 1 1 1 1 1 1 1 1 1 1 1 1 1 1 1 1 1 1 1 1 1 1 1 1 1 1 1 1 1 1 1 1 1 1 1 1 1 1 1 1 1 1 1 1 1 1 1;
#A color 0;
#A width 1;
#X coords 0 1.05 511 -1.05 120 80 1 0 0;
#X restore 1072 94 graph;
#X text 1052 162 -1;
#X text 1057 89 1;
#X obj 1259 107 else/shaper~ \$0-clip;
#X obj 1287 612 else/sfont~;
#X obj 1291 577 else/sfz~ sfz/synth.sfz;
#X obj 1096 354 *~;
#X obj 1114 320 else/adsr~ 0 300 0 0;
#X obj 1066 274 else/saw~;
#X floatatom 1197 254 5 0 0 0 - - - 0;
#X obj 1180 284 b;
#X obj 1064 237 mtof;
#X obj 794 -42 else/scramble;
#X obj 869 -12 else/display;
#X obj 794 -12 else/display;
#X msg 794 -99 10 20 30;
#X msg 810 -70 a b c d e;
#X msg 938 -50 control;
#X msg 1502 147 effects;
#X msg 1324 528 synthesis;
#X obj 1156 -46 nbx 3 14 -1e+37 1e+37 0 0 empty empty empty 0 -8 0 10 #dcdcdc #000000 #000000 0 256;
#X msg 1044 -96 1 2 3 4 5 6 7;
#X obj 1081 5 else/display;
#X obj 1081 -24 else/rotate 3;
#X msg 1080 -73 a b c d e f g;
#X obj 286 542 else/rm~ 150;
#X obj 355 519 nbx 5 14 -1e+37 1e+37 0 0 empty empty empty 0 -8 0 10 #dcdcdc #000000 #000000 0 256;
#X text 415 519 Mod frequency;
#X msg 449 601 clear;
#X obj 423 629 else/revdelay~ 500;
#X msg 439 572 resize 900;
#X obj 731 666 nbx 5 14 -1e+37 1e+37 0 0 empty empty empty 0 -8 0 10 #dcdcdc #000000 #000000 0 256;
#X text 792 666 decay time (ms);
#X obj 790 688 nbx 5 14 -1e+37 1e+37 0 0 empty empty empty 0 -8 0 10 #dcdcdc #000000 #000000 0 256;
#X text 852 687 filter cutoff (hz);
#X obj 613 713 else/pluck~ 50 2500 10000, f 30;
#X obj 613 666 nbx 5 14 -1e+37 1e+37 0 0 empty empty empty 0 -8 0 10 #dcdcdc #000000 #000000 0 256;
#X text 756 640 trigger;
#X obj 672 641 else/dust~ 5;
#X text 564 665 pitch *;
#X text 618 645 Hz;
#X obj 223 -59 nbx 5 14 -50 50 0 0 empty empty empty 0 -8 0 10 #dcdcdc #000000 #000000 0 256;
#X obj 223 -5 else/display;
#X obj 223 -34 else/randpulse2 1;
#X text 283 -61 <-- density;
#X obj 1456 -7 else/square~;
#X obj 1835 -35 hsl 128 15 44.1 44100 1 0 empty empty empty -2 -8 0 10 #dcdcdc #000000 #000000 0 1;
#X obj 1832 -6 nbx 8 14 -1e+37 1e+37 0 0 empty empty empty 0 -8 0 10 #dcdcdc #000000 #000000 0 256;
#X text 1845 -37 frequency in Hz;
#X text 1623 13 see also:;
#X obj 1624 40 else/lfnoise~;
#X obj 1624 64 else/stepnoise~;
#X obj 1832 20 else/rampnoise~ 400;
#X obj 1624 88 else/rampnoise;
#X obj 1903 98 hsl 128 15 0 1 0 0 empty empty empty -2 -8 0 10 #dcdcdc #000000 #000000 0 1;
#X obj 1900 120 nbx 5 14 -1e+37 1e+37 0 0 empty empty empty 0 -8 0 10 #dcdcdc #000000 #000000 0 256;
#X obj 1816 370 else/out~;
#X msg 1402 531 mode \$1;
#X obj 1402 415 vradio 16 1 0 5 empty empty empty 0 -8 0 10 #dcdcdc #000000 #000000 0;
#X floatatom 1402 507 3 0 0 0 - - - 0;
#X text 1423 415 0: round - rounds to nearest step;
#X text 1423 431 1: truncate - truncates to step;
#X text 1423 448 2: floor - approximates to lower step;
#X text 1423 464 3: ceil - approximates to higher step;
#X text 1423 480 4: both floor for negative and ceil for positive;
#X obj 1789 143 else/quantizer~;
#X obj 1801 307 else/floor~;
#X obj 1910 339 else/ceil~;
#X text 1931 230 round;
#X text 1932 256 truncate;
#X text 1932 277 floor;
#X text 1932 300 ceil;
#X obj 1816 197 expr~ round($v1);
#X obj 1804 253 else/trunc~;
#X msg 1794 1036 1;
#X msg 1806 1060 0;
#X text 1822 1036 freeze;
#X text 1838 1060 unfreeze;
#X obj 1695 1084 else/pvoc.freeze~;
#X obj 1787 730 nbx 5 14 -50 50 0 0 empty empty empty 0 -8 0 10 #dcdcdc #000000 #000000 0 256;
#X text 1847 728 <= hz;
#X obj 1830 761 else/pulse~ 1;
#X obj 1830 795 else/numbox~ 6 10 100 #C0C0C4 #440008 10 0 0 0;
#X text 1664 577 [pulse~] is a pulse train oscillator (alternates between 1 and 0 \, or on/off) that accepts negative frequencies \, has inlets for pulse width \, phase sync and phase modulation. It also has support for multichannels., f 66;
#X obj 1637 846 else/pulsecount~;
#X text 1599 899 divided count;
#X obj 1637 785 else/imp~ 1;
#X obj 1637 815 else/pulsediv~ 4;
#X obj 1795 872 else/pulsecount~;
#X obj 1685 898 else/numbox~ 6 12 100 #c0c0c4 #440008 10 0 0 0;
#X obj 1795 899 else/numbox~ 6 12 100 #c0c0c4 #440008 10 0 0 0;
#X obj 1144 717 nbx 5 14 -1e+37 1e+37 0 0 empty empty empty 0 -8 0 10 #dcdcdc #000000 #000000 0 256;
#X obj 1147 697 hsl 128 15 0.1 10 1 0 empty empty empty -2 -8 0 10 #dcdcdc #000000 #000000 0 1;
#X obj 1057 706 osc~ 440;
#X obj 1057 739 else/power~ 0.1;
#X text 1204 717 exponential factor;
#X text 1339 813 see also:;
#X obj 1334 835 else/drive~;
#X obj 1057 770 else/scope~ 200 100 2 3 128 -1 1 150 0 0 0 30 30 30 190 190 190 160 160 160 0 empty;
#X obj 785 326 else/plate.rev~;
#X obj 1620 953 hsl 128 15 100 10000 1 0 empty empty empty -2 -8 0 10 #dcdcdc #000000 #000000 0 1;
#X obj 1617 977 nbx 5 14 -1e+37 1e+37 0 0 empty empty empty 0 -8 0 10 #dcdcdc #000000 #000000 0 256;
#X text 1676 977 frequency in Hz;
#X obj 1617 1002 else/perlin~;
#X obj 1170 1015 hsl 128 15 -1 1 0 0 empty empty empty -2 -8 0 10 #dcdcdc #000000 #000000 0 1;
#X floatatom 1167 1039 9 0 0 0 - - - 0;
#X obj 1052 1021 osc~ 440;
#X obj 1071 1101 else/pan2~;
#X obj 1081 1136 else/out~;
#X obj 1167 1069 else/f2s~ 10;
#X text 994 900 [pan2~] performs an equal power (sin/cos) panning. It is a special case of [pan~] as you can configure that object in the same way.;
#X obj 793 208 nbx 5 14 -1e+37 1e+37 0 0 empty empty empty 0 -8 0 10 #dcdcdc #000000 #000000 0 256;
#X text 853 207 <- frequency;
#X obj 793 237 else/oscnoise~ 440;
#X obj 760 204 bng 20 250 50 0 empty empty empty 0 -8 0 10 #dfdfdf #000000 #000000;
#X text 715 206 update;
#X floatatom 1154 428 5 0 0 0 - - - 0;
#X obj 1016 597 else/out~;
#X msg 1097 435 9023;
#X obj 1111 529 *~ 1;
#X obj 1234 411 osc~;
#X obj 1456 -69 else/rampnoise~ -mc 2 7000, f 32;
#X obj 1456 -37 else/rescale~ -213 122;
#X obj 610 34 else/dust~ 0.3;
#X obj 178 876 else/xselect2~ 4, f 42;
#X obj 1955 655 else/pulse~ 1;
#N canvas 281 187 630 372 spectrolog 0;
#N canvas 556 61 872 789 FFT_Analyse 0;
#X obj 101 102 inlet~;
#X obj 101 332 *~;
#X obj 132 331 *~;
#X obj 101 356 +~;
#X obj 102 377 powtodb~;
#N canvas 0 22 346 535 init_input_window 0;
#X obj 73 217 / 10;
#X obj 55 278 line 0 0.1;
#X msg 119 246 0;
#X obj 54 176 t f f b;
#X obj 54 239 pack;
#X obj 55 301 t f f;
#X obj 54 152 - 1;
#X obj 74 114 t f f;
#X obj 55 359 * 3.14159;
#X obj 55 381 sin;
#X msg 55 401 \$1 \$1;
#X obj 55 423 *;
#X text 119 334 0...0.99;
#X text 128 359 0...pi;
#X text 79 423 hanning;
#X msg 55 88 4096;
#X obj 100 88 f 4096;
#X obj 99 60 bng 15 250 50 0 empty empty empty 0 -6 0 8 #fcfcfc #000000 #000000;
#X obj 99 39 loadbang;
#X obj 74 333 / 4096;
#X obj 55 448 tabwrite \$0-window;
#X text 86 381 half-sine;
#X connect 0 0 4 1;
#X connect 1 0 5 0;
#X connect 2 0 1 0;
#X connect 3 0 4 0;
#X connect 3 1 0 0;
#X connect 3 2 2 0;
#X connect 4 0 1 0;
#X connect 5 0 19 0;
#X connect 5 1 20 1;
#X connect 6 0 3 0;
#X connect 7 0 6 0;
#X connect 7 1 19 1;
#X connect 8 0 9 0;
#X connect 9 0 10 0;
#X connect 10 0 11 0;
#X connect 11 0 20 0;
#X connect 15 0 7 0;
#X connect 16 0 7 0;
#X connect 17 0 16 0;
#X connect 18 0 17 0;
#X connect 19 0 8 0;
#X restore 161 276 pd init_input_window;
#N canvas 0 22 450 300 (subpatch) 0;
#X array \$0-lin_scope 2048 float 0;
#A color 0;
#A width 1;
#X coords 0 100 2047 0 200 140 1;
#X restore 110 621 graph;
#N canvas 0 22 822 328 init_norm 0;
#X obj 43 230 outlet;
#X obj 43 187 - 100;
#X floatatom 43 208 9 0 0 0 - - - 0;
#X text 108 169 leistung - techn. dB;
#X msg 43 69 4096;
#X obj 80 68 f 4096;
#X obj 80 47 bng 15 250 50 0 empty empty empty 0 -6 0 8 #fcfcfc #000000 #000000;
#X obj 80 26 loadbang;
#X obj 43 167 rmstodb;
#X obj 43 110 / 4;
#X text 74 103 faktor 2 wegen hanning;
#X text 74 114 weiterer faktor 2 \, weil wir nur die;
#X text 73 124 erste haelfte des konjungiert komplexen spektrum sehen;
#X text 108 135 bzw. bearbeiten \, somit nur die haelfte der spektralen energie;
#X connect 1 0 2 0;
#X connect 2 0 0 0;
#X connect 4 0 9 0;
#X connect 5 0 9 0;
#X connect 6 0 5 0;
#X connect 7 0 6 0;
#X connect 8 0 1 0;
#X connect 9 0 8 0;
#X restore 153 421 pd init_norm;
#X obj 100 231 *~;
#X obj 102 443 -~ 60.206;
#X obj 113 517 *~ 0.98;
#X obj 100 539 +~;
#X obj 101 471 *~ 0.02;
#X msg 314 481 1 \$1;
#X obj 314 502 -;
#X obj 314 458 clip 0 1;
#X obj 314 437 / 100;
#X floatatom 314 413 5 0.5 100 0 - - - 0;
#X obj 333 366 loadbang;
#X obj 100 277 fft~;
#X obj 463 557 line 0 0.1;
#X obj 463 602 / 2;
#X obj 463 622 mtof;
#X msg 463 536 6 \, 273 26.7;
#X obj 463 580 t f f;
#X obj 494 602 - 6;
#X obj 463 642 / 44100;
#X obj 463 663 * 4096;
#X msg 656 633 6;
#X obj 656 653 / 2;
#X obj 656 673 mtof;
#X floatatom 656 693 9 0 0 0 - - - 0;
#X text 723 694 Hz;
#X obj 754 654 / 2;
#X obj 754 673 mtof;
#X floatatom 754 693 9 0 0 0 - - - 0;
#X text 822 693 Hz;
#X msg 754 634 273;
#X obj 656 612 t b b;
#X obj 463 498 tgl 15 0 empty empty empty 0 -6 0 8 #fcfcfc #000000 #000000 0 1;
#X obj 463 458 loadbang;
#X msg 463 478 1;
#X obj 656 592 loadbang;
#X obj 468 245 loadbang;
#X obj 703 102 inlet;
#X obj 130 253 table \$0-window 4096;
#X obj 137 214 tabreceive~ \$0-window;
#X text 353 403 temporal lowpass;
#X text 355 415 parameter between 0 .. 100 %;
#X text 23 23 spectrum~;
#X text 120 23 draws the power of a spectrum in a logarithmic scale;
#X text 118 36 (by Thomas Musil);
#X obj 113 496 tabreceive~ \$0-lin_scope;
#X obj 100 564 tabsend~ \$0-lin_scope;
#X obj 463 685 tabread4 \$0-lin_scope;
#X obj 468 267 f \$0;
#X text 553 536 transformation to log scale;
#X msg 333 385 100;
#X obj 314 341 max 0.5;
#X obj 314 319 min 100;
#X obj 440 107 inlet;
#X text 96 81 audio sig;
#X text 700 81 ON/OFF;
#X text 427 86 (0 .. 100);
#X text 408 72 temporal lowpass;
#X obj 533 244 bng 15 250 50 0 empty empty empty 0 -6 0 8 #fcfcfc #000000 #000000;
#X obj 463 735 tabwrite \$0-s;
#X msg 468 296 \; \$1-s xticks 0 12 2;
#X msg 491 330 \; \$1-s yticks 0 5 2;
#X obj 462 516 metro 100;
#X obj 704 166 switch~ 4096 2;
#X obj 463 711 clip 0 100;
#X obj 773 101 loadbang;
#X msg 773 123 1;
#X connect 0 0 8 0;
#X connect 1 0 3 0;
#X connect 2 0 3 1;
#X connect 3 0 4 0;
#X connect 4 0 9 0;
#X connect 7 0 9 1;
#X connect 8 0 19 0;
#X connect 9 0 12 0;
#X connect 10 0 11 1;
#X connect 11 0 53 0;
#X connect 12 0 11 0;
#X connect 13 0 14 0;
#X connect 14 0 10 1;
#X connect 15 0 13 0;
#X connect 15 0 12 1;
#X connect 16 0 15 0;
#X connect 17 0 16 0;
#X connect 18 0 57 0;
#X connect 19 0 1 0;
#X connect 19 0 1 1;
#X connect 19 1 2 0;
#X connect 19 1 2 1;
#X connect 20 0 24 0;
#X connect 21 0 22 0;
#X connect 22 0 26 0;
#X connect 23 0 20 0;
#X connect 24 0 21 0;
#X connect 24 1 25 0;
#X connect 25 0 66 1;
#X connect 26 0 27 0;
#X connect 27 0 54 0;
#X connect 28 0 29 0;
#X connect 29 0 30 0;
#X connect 30 0 31 0;
#X connect 33 0 34 0;
#X connect 34 0 35 0;
#X connect 37 0 33 0;
#X connect 38 0 28 0;
#X connect 38 1 37 0;
#X connect 39 0 69 0;
#X connect 40 0 41 0;
#X connect 41 0 39 0;
#X connect 42 0 38 0;
#X connect 43 0 55 0;
#X connect 44 0 70 0;
#X connect 46 0 8 1;
#X connect 52 0 10 0;
#X connect 54 0 71 0;
#X connect 55 0 67 0;
#X connect 55 0 68 0;
#X connect 57 0 17 0;
#X connect 58 0 17 0;
#X connect 59 0 58 0;
#X connect 60 0 59 0;
#X connect 65 0 55 0;
#X connect 69 0 23 0;
#X connect 71 0 66 0;
#X connect 72 0 73 0;
#X connect 73 0 70 0;
#X restore 17 320 pd FFT_Analyse;
#X obj 63 299 inlet;
#X obj 17 299 inlet~;
#X obj 110 299 inlet;
#N canvas 0 22 450 300 (subpatch) 0;
#X array \$0-s 268 float 0;
#A color 0;
#A width 1;
#X coords 0 100 267 0 267 140 1;
#X xticks 0 12 2;
#X yticks 0 5 2;
#X restore 23 27 graph;
#X obj 297 42 cnv 15 1 1 empty empty -10 0 0 0 10 #fcfcfc #000000 0;
#X obj 297 154 cnv 15 1 1 empty empty -90 0 0 0 10 #fcfcfc #000000 0;
#X obj 297 98 cnv 15 1 1 empty empty -50 0 0 0 10 #fcfcfc #000000 0;
#X obj 297 70 cnv 15 1 1 empty empty -30 0 0 0 10 #fcfcfc #000000 0;
#X obj 297 126 cnv 15 1 1 empty empty -70 0 0 0 10 #fcfcfc #000000 0;
#X obj 18 171 cnv 15 1 1 empty empty 10 0 5 0 10 #fcfcfc #000000 0;
#X obj 66 171 cnv 15 1 1 empty empty 40 0 5 0 10 #fcfcfc #000000 0;
#X obj 115 171 cnv 15 1 1 empty empty 160 0 5 0 10 #fcfcfc #000000 0;
#X obj 162 171 cnv 15 1 1 empty empty 640 0 5 0 10 #fcfcfc #000000 0;
#X obj 210 171 cnv 15 1 1 empty empty 2k56 0 5 0 10 #fcfcfc #000000 0;
#X obj 258 171 cnv 15 1 1 empty empty 10k2 0 5 0 10 #fcfcfc #000000 0;
#X obj 138 184 cnv 15 1 1 empty empty 320 0 5 0 10 #fcfcfc #000000 0;
#X obj 282 184 cnv 15 1 1 empty empty 20k5 0 5 0 10 #fcfcfc #000000 0;
#X obj 42 181 cnv 15 1 1 empty empty 20 0 9 0 10 #fcfcfc #000000 0;
#X obj 90 184 cnv 15 1 1 empty empty 80 0 5 0 10 #fcfcfc #000000 0;
#X obj 186 184 cnv 15 1 1 empty empty 1k28 0 5 0 10 #fcfcfc #000000 0;
#X obj 234 184 cnv 15 1 1 empty empty 5k12 0 5 0 10 #fcfcfc #000000 0;
#X obj 46 168 cnv 15 1 1 empty empty | 0 7 0 10 #fcfcfc #000000 0;
#X obj 94 168 cnv 15 1 1 empty empty | 0 7 0 10 #fcfcfc #000000 0;
#X obj 142 168 cnv 15 1 1 empty empty | 0 7 0 10 #fcfcfc #000000 0;
#X obj 190 168 cnv 15 1 1 empty empty | 0 7 0 10 #fcfcfc #000000 0;
#X obj 238 168 cnv 15 1 1 empty empty | 0 7 0 10 #fcfcfc #000000 0;
#X obj 286 168 cnv 15 1 1 empty empty | 0 7 0 10 #fcfcfc #000000 0;
#X connect 1 0 0 1;
#X connect 2 0 0 0;
#X connect 3 0 0 2;
#X coords 0 -1 1 1 330 210 1 0 0;
#X restore 714 898 pd spectrolog;
#X connect 2 0 9 0;
#X connect 3 0 2 0;
#X connect 4 0 3 0;
#X connect 5 0 4 0;
#X connect 6 0 10 0;
#X connect 9 0 6 1;
#X connect 10 0 38 0;
#X connect 12 0 6 0;
#X connect 13 0 8 1;
#X connect 15 0 12 0;
#X connect 16 0 15 0;
#X connect 17 0 15 1;
#X connect 18 0 24 0;
#X connect 19 0 18 0;
#X connect 20 0 25 0;
#X connect 21 0 20 0;
#X connect 24 0 38 1;
#X connect 25 0 38 2;
#X connect 28 0 29 0;
#X connect 29 0 33 1;
#X connect 31 0 33 0;
#X connect 32 0 31 0;
#X connect 34 0 33 0;
#X connect 35 0 36 0;
#X connect 36 0 37 1;
#X connect 39 0 40 0;
#X connect 40 0 205 0;
#X connect 41 0 44 0;
#X connect 44 0 40 1;
#X connect 46 0 48 1;
#X connect 48 0 11 0;
#X connect 48 0 86 0;
#X connect 48 1 47 0;
#X connect 49 0 50 0;
#X connect 50 0 55 0;
#X connect 52 0 57 0;
#X connect 53 0 61 0;
#X connect 54 0 59 0;
#X connect 55 0 212 5;
#X connect 56 0 62 0;
#X connect 57 0 212 0;
#X connect 58 0 63 0;
#X connect 59 0 212 1;
#X connect 60 0 64 0;
#X connect 61 0 212 2;
#X connect 62 0 57 1;
#X connect 63 0 59 1;
#X connect 64 0 61 1;
#X connect 65 0 70 2;
#X connect 66 0 70 3;
#X connect 71 0 72 0;
#X connect 73 0 72 2;
#X connect 74 0 72 3;
#X connect 78 0 72 1;
#X connect 81 0 82 0;
#X connect 82 0 84 0;
#X connect 85 0 207 0;
#X connect 95 0 94 1;
#X connect 96 0 94 0;
#X connect 97 0 98 0;
#X connect 97 0 99 0;
#X connect 98 0 95 0;
#X connect 99 0 96 0;
#X connect 100 0 102 0;
#X connect 100 1 101 0;
#X connect 103 0 100 0;
#X connect 104 0 100 0;
#X connect 108 0 111 1;
#X connect 109 0 111 0;
#X connect 111 0 110 0;
#X connect 112 0 111 0;
#X connect 114 0 113 1;
#X connect 116 0 117 0;
#X connect 118 0 117 0;
#X connect 119 0 123 2;
#X connect 121 0 123 3;
#X connect 124 0 123 0;
#X connect 126 0 123 1;
#X connect 129 0 131 0;
#X connect 131 0 130 0;
#X connect 134 0 135 0;
#X connect 135 0 140 0;
#X connect 142 0 143 0;
#X connect 143 0 153 1;
#X connect 145 0 153 0;
#X connect 146 0 147 0;
#X connect 147 0 145 0;
#X connect 161 0 144 0;
#X connect 162 0 166 1;
#X connect 163 0 166 1;
#X connect 167 0 169 0;
#X connect 169 0 170 0;
#X connect 172 0 177 0;
#X connect 174 0 175 0;
#X connect 175 0 172 0;
#X connect 175 1 176 0;
#X connect 176 0 178 0;
#X connect 179 0 182 1;
#X connect 180 0 179 0;
#X connect 181 0 182 0;
#X connect 182 0 186 0;
#X connect 188 0 189 0;
#X connect 189 0 191 0;
#X connect 192 0 193 0;
#X connect 193 0 197 0;
#X connect 194 0 195 0;
#X connect 195 0 196 0;
#X connect 195 1 196 1;
#X connect 197 0 195 1;
#X connect 199 0 201 0;
#X connect 202 0 201 0;
#X connect 204 0 85 0;
#X connect 206 0 85 0;
#X connect 209 0 210 0;
#X connect 210 0 133 0;
#X connect 211 0 40 1;
#X connect 212 0 48 0;
