#N canvas 0 27 1836 915 10;
#X msg 77 287 0.343964;
#X msg 147 323 -0.343964;
#X obj 78 393 hsl 150 15 -1.71982 1.71982 0 0 empty speedy empty -2 -8 0 10 #fcfcfc #000000 #000000 0 1;
#X floatatom 77 443 15 0 0 0 - - - 0;
#X obj 285 470 phasor~;
#X obj 323 492 r sampleSize;
#X obj 284 25 bng 15 250 50 0 empty empty empty 17 7 0 10 #fcfcfc #000000 #000000;
#X obj 284 45 openpanel;
#X msg 284 89 read -resize \$1 channelL channelR;
#X obj 284 111 soundfiler;
#X obj 284 200 expr 44100 / $f1;
#X floatatom 322 141 15 0 0 0 - - - 0;
#X floatatom 318 238 15 0 0 0 - - speed_control 0;
#X obj 322 162 s sampleSize;
#X obj 284 528 *~;
#X obj 210 717 *~;
#X obj 336 720 *~;
#X obj 331 579 s~ progressbar;
#X obj 209 640 tabread4~ channelL;
#X obj 335 640 tabread4~ channelR;
#X obj 249 757 dac~ 1 2;
#X obj 470 608 vsl 50 100 0 1 0 1 empty empty empty 0 -9 0 10 #fcfcfc #000000 #000000 8300 1;
#X obj 440 205 metro 120;
#X obj 494 174 hsl 128 15 50 500 0 1 empty empty granular -2 -8 0 10 #fcfcfc #000000 #000000 800 1;
#X obj 440 307 random 1000;
#X floatatom 440 338 5 0 5 0 - - - 0;
#X obj 440 359 / 1000;
#X floatatom 440 381 5 0 0 0 - - - 0;
#X obj 443 413 hsl 150 15 0.01 1 1 0 empty empty empty -2 -8 0 10 #fcfcfc #000000 #000000 0 0;
#X obj 590 229 r progress;
#X floatatom 590 250 5 0 0 0 - - - 0;
#X obj 687 142 r jitbang;
#X obj 740 173 hsl 150 15 0 1 0 1 empty empty playhead_location 30 -15 0 10 #fcfcfc #000000 #000000 3050 1;
#X obj 807 741 hsl 150 15 0 1 0 0 empty empty empty -2 -8 0 10 #fcfcfc #000000 #000000 0 1;
#X floatatom 687 238 5 0 0 0 - - - 0;
#X obj 650 284 -;
#X obj 690 284 +;
#X floatatom 650 306 5 0 0 0 - - - 0;
#X floatatom 690 306 5 0 0 0 - - - 0;
#X obj 752 303 bang;
#X obj 752 355 s jitbang;
#X floatatom 678 686 5 0 0 0 - - - 0;
#X floatatom 680 608 15 0 0 0 - - - 0;
#X obj 755 242 hsl 150 15 0 1 0 1 empty empty set_jitter_range 30 -15 0 10 #fcfcfc #000000 #000000 1000 1;
#X obj 681 487 r~ progressbar;
#X obj 707 552 metro 50;
#X obj 681 581 snapshot~;
#X obj 722 639 r sampleSize;
#X obj 678 661 /;
#X obj 678 734 s progress;
#N canvas 0 22 450 278 (subpatch) 0;
#X array channelL 128211 float 2;
#A color 0;
#A width 2;
#X coords 0 1 128211 -1 200 140 1;
#X restore 864 318 graph;
#N canvas 0 22 450 278 (subpatch) 0;
#X array channelR 128211 float 2;
#A color 0;
#A width 2;
#X coords 0 1 128211 -1 200 140 1;
#X restore 864 495 graph;
#X msg 579 55 \; pd dsp 1;
#X obj 579 26 loadbang;
#X obj 77 17 r speed_control;
#X msg 147 255 set \$1;
#X msg 77 255 set \$1;
#X text 18 287 forwards;
#X text 88 323 backwards;
#X obj 92 172 pack f f;
#X msg 92 204 \; speedy range \$2 \$1;
#X obj 707 522 loadbang;
#X obj 440 128 loadbang;
#X obj 662 442 clip;
#X obj 752 195 loadbang;
#X obj 468 277 s smooth;
#X obj 440 475 r smooth;
#X obj 440 578 vline~;
#X obj 335 677 *~;
#X obj 210 677 *~;
#X floatatom 507 205 5 0 0 0 - - - 0;
#X obj 468 254 delay;
#X obj 440 157 t b b;
#X obj 507 233 - 5;
#X text 120 369 speed (-1 to 1);
#X obj 147 65 * -1;
#X obj 119 139 * -1;
#X obj 167 85 * -1;
#X obj 92 110 t f f;
#X obj 92 86 * 5;
#X msg 440 514 0 3 \, 1 3 6;
#X msg 566 869 stop;
#X text 604 870 stop recording;
#X text 565 846 start recording;
#X obj 546 848 bng 19 250 50 0 empty empty empty 17 7 0 10 #dfdfdf #000000 #000000;
#X obj 317 1014 tabwrite~ channelL;
#X obj 439 1015 tabwrite~ channelR;
#X obj 304 274 bng 18 250 50 0 empty empty empty 0 -9 0 10 #fcfcfc #000000 #000000;
#X obj 304 322 bng 18 250 50 0 empty empty empty 0 -9 0 10 #fcfcfc #000000 #000000;
#X obj 310 304 delay 48000 1 samp;
#X obj 233 158 b;
#X obj 310 371 % 2;
#X obj 549 587 sel 1;
#X obj 549 609 bng 18 250 50 0 empty empty empty 0 -9 0 10 #fcfcfc #000000 #000000;
#X obj 578 611 bng 18 250 50 0 empty empty empty 0 -9 0 10 #fcfcfc #000000 #000000;
#X obj 310 391 == 0;
#X obj 310 349 i 1;
#X obj 345 347 + 1;
#X obj 385 888 lop~;
#X obj 385 865 sig~;
#X obj 370 911 *~;
#X obj 433 889 lop~;
#X obj 433 866 sig~;
#X obj 418 912 *~;
#X floatatom 451 787 5 0 0 0 - - - 0;
#X obj 451 808 / 10;
#X floatatom 451 828 5 0 0 0 - - - 0;
#X obj 243 837 else/norm~ -6;
#X obj 242 813 *~ 0.9;
#X connect 0 0 2 0;
#X connect 1 0 2 0;
#X connect 2 0 3 0;
#X connect 3 0 4 0;
#X connect 4 0 14 0;
#X connect 5 0 14 1;
#X connect 6 0 7 0;
#X connect 7 0 8 0;
#X connect 8 0 9 0;
#X connect 9 0 11 0;
#X connect 9 0 10 0;
#X connect 10 0 12 0;
#X connect 10 0 4 0;
#X connect 11 0 13 0;
#X connect 11 0 89 1;
#X connect 11 0 90 0;
#X connect 14 0 17 0;
#X connect 14 0 18 0;
#X connect 14 0 19 0;
#X connect 15 0 20 0;
#X connect 16 0 20 1;
#X connect 18 0 69 0;
#X connect 19 0 68 0;
#X connect 21 0 15 1;
#X connect 21 0 16 1;
#X connect 22 0 24 0;
#X connect 22 0 71 0;
#X connect 23 0 22 1;
#X connect 23 0 70 0;
#X connect 24 0 25 0;
#X connect 25 0 26 0;
#X connect 26 0 27 0;
#X connect 27 0 28 0;
#X connect 28 0 63 0;
#X connect 29 0 30 0;
#X connect 31 0 34 0;
#X connect 32 0 34 0;
#X connect 34 0 35 0;
#X connect 34 0 36 0;
#X connect 35 0 37 0;
#X connect 36 0 38 0;
#X connect 37 0 63 1;
#X connect 38 0 63 2;
#X connect 39 0 40 0;
#X connect 41 0 49 0;
#X connect 41 0 33 0;
#X connect 42 0 48 0;
#X connect 43 0 39 0;
#X connect 43 0 36 1;
#X connect 43 0 35 1;
#X connect 44 0 46 0;
#X connect 45 0 46 0;
#X connect 46 0 42 0;
#X connect 47 0 48 1;
#X connect 48 0 41 0;
#X connect 53 0 52 0;
#X connect 54 0 56 0;
#X connect 54 0 75 0;
#X connect 54 0 79 0;
#X connect 55 0 1 0;
#X connect 56 0 0 0;
#X connect 59 0 60 0;
#X connect 61 0 45 0;
#X connect 62 0 72 0;
#X connect 63 0 4 1;
#X connect 64 0 43 0;
#X connect 66 0 80 0;
#X connect 67 0 68 1;
#X connect 67 0 69 1;
#X connect 68 0 16 0;
#X connect 69 0 15 0;
#X connect 69 0 108 0;
#X connect 70 0 73 0;
#X connect 71 0 65 0;
#X connect 72 0 22 0;
#X connect 72 1 23 0;
#X connect 73 0 71 1;
#X connect 75 0 55 0;
#X connect 76 0 59 1;
#X connect 78 0 59 0;
#X connect 78 1 76 0;
#X connect 79 0 78 0;
#X connect 80 0 67 0;
#X connect 81 0 85 0;
#X connect 81 0 86 0;
#X connect 84 0 85 0;
#X connect 84 0 86 0;
#X connect 87 0 89 0;
#X connect 88 0 90 0;
#X connect 88 0 96 0;
#X connect 89 0 88 0;
#X connect 90 0 87 0;
#X connect 91 0 95 0;
#X connect 92 0 93 0;
#X connect 92 1 94 0;
#X connect 93 0 84 0;
#X connect 94 0 81 0;
#X connect 95 0 92 0;
#X connect 96 0 91 0;
#X connect 96 0 97 0;
#X connect 97 0 96 1;
#X connect 98 0 100 1;
#X connect 99 0 98 0;
#X connect 101 0 103 1;
#X connect 102 0 101 0;
#X connect 104 0 105 0;
#X connect 105 0 106 0;
#X connect 106 0 102 0;
#X connect 106 0 99 0;
#X connect 107 0 85 0;
#X connect 107 0 86 0;
#X connect 108 0 107 0;
#X coords 0 0 1 1 85 60 0;
