#N canvas 0 27 570 963 12;
#X declare -path ./lib;
#X obj 76 1653 *~ 0.8;
#X msg 1054 954 feedfwd \$1;
#X msg 1054 1072 indelay \$1;
#X obj 1057 929 hsl 128 15 0 1 0 0 empty empty empty -2 -8 0 10 #fcfcfc #000000 #000000 0 1;
#X floatatom 1131 954 5 0 0 0 - - - 0;
#X obj 1057 1049 hsl 128 15 0 50 0 0 empty empty empty -2 -8 0 10 #fcfcfc #000000 #000000 0 1;
#X obj 1057 989 hsl 128 15 0 1 0 0 empty empty empty -2 -8 0 10 #fcfcfc #000000 #000000 0 1;
#X floatatom 1161 1014 5 0 0 0 - - - 0;
#X msg 1054 1014 feedback \$1;
#X floatatom 1131 1074 5 0 0 0 - - - 0;
#X obj 1057 1109 hsl 128 15 0 50 0 0 empty empty empty -2 -8 0 10 #fcfcfc #000000 #000000 0 1;
#X floatatom 1131 1134 5 0 0 0 - - - 0;
#X obj 1056 1159 hsl 128 15 0 50 0 0 empty empty empty -2 -8 0 10 #fcfcfc #000000 #000000 0 1;
#X floatatom 1130 1184 5 0 0 0 - - - 0;
#X msg 1053 1182 slide \$1;
#X msg 1054 1132 outdelay \$1;
#X obj 609 12 declare -path ./lib;
#X obj 852 1143 hv.comb~;
#X obj 76 1624 hv.compressor~ 60 2;
#X obj 547 841 hsl 128 15 -1 1 0 0 empty empty empty -2 8 0 10 #fcfcfc #000000 #000000 0 1;
#X obj 569 902 hsl 128 15 0 20 0 0 empty empty empty -2 8 0 10 #fcfcfc #000000 #000000 0 1;
#X obj 587 957 hsl 128 15 0 1 0 0 empty empty empty -2 8 0 10 #fcfcfc #000000 #000000 0 1;
#X obj 523 777 hsl 128 15 0 1 0 0 empty empty empty -2 8 0 10 #fcfcfc #000000 #000000 0 1;
#X msg 519 805 mix \$1;
#X msg 542 869 feedback \$1;
#X msg 566 924 speed \$1;
#X msg 584 979 intensity \$1;
#X text 628 871 // -1..1;
#X text 628 924 // 0..20 Hz;
#X text 669 981 // 0..1;
#X text 566 804 // 0..1 (0=dry);
#X text 535 1021 arg \$1: Delay time;
#X obj 438 1021 hv.flanger~ 20;
#X obj 76 1760 else/out~;
#X obj 140 1257 hsl 128 15 -1 1 0 0 empty empty empty -2 -8 0 10 #dcdcdc #000000 #000000 0 1;
#X floatatom 137 1281 9 0 0 0 - - - 0;
#X obj 50 1340 else/pan2~, f 13;
#X obj 137 1311 else/f2s~ 10;
#X obj 75 1597 *~ 0.99;
#X obj 530 1268 else/quantizer~;
#X obj 371 1199 else/downsample~;
#X obj 430 1499 hsl 128 15 0 1000 0 0 empty \$0-predelayms empty -2 -8 0 10 #dcdcdc #000000 #000000 0 1;
#X floatatom 427 1523 5 0 0 0 - - - 0;
#X obj 490 1526 hsl 128 15 0 1 0 0 empty \$0-cutoff empty -2 -8 0 10 #dcdcdc #000000 #000000 0 1;
#X floatatom 487 1552 5 0 0 0 - - - 0;
#X obj 564 1552 hsl 128 15 0 1 0 0 empty \$0-damping empty -2 -8 0 10 #dcdcdc #000000 #000000 0 1;
#X floatatom 561 1577 5 0 0 0 - - - 0;
#X obj 629 1584 hsl 128 15 0 1 0 0 empty \$0-fbgain empty -2 -8 0 10 #dcdcdc #000000 #000000 0 1;
#X floatatom 626 1607 5 0 0 0 - - - 0;
#X obj 707 1613 hsl 128 15 0 1 0 0 empty \$0-drywet empty -2 -8 0 10 #dcdcdc #000000 #000000 0 1;
#X floatatom 704 1640 5 0 0 0 - - - 0;
#X text 673 1612 dry;
#X text 673 1612 dry;
#X text 673 1612 dry;
#X text 597 1551 damping;
#X text 673 1612 dry;
#X text 453 1498 pre delay;
#X text 527 1525 cutoff;
#X msg 427 1547 pre \$1;
#X msg 487 1575 cutoff \$1;
#X msg 561 1599 damp \$1;
#X text 666 1584 room-size;
#X msg 626 1633 size \$1;
#X msg 704 1663 wet \$1;
#X obj 390 1727 else/plate.rev~;
#X obj 391 890 throw~ all;
#X obj 164 1726 *~ 0.8;
#X obj 164 1697 hv.compressor~ 60 2;
#X obj 163 1670 *~ 0.99;
#X obj 75 1569 catch~ left;
#X obj 164 1592 catch~ right;
#X obj 49 1373 throw~ left;
#X obj 137 1374 throw~ right;
#X msg 403 436 1;
#X msg 415 460 0;
#X text 431 436 freeze;
#X text 447 460 unfreeze;
#X obj 295 483 else/pvoc.freeze~;
#X obj 113 1519 catch~ all;
#N canvas 968 99 886 872 noise1 0;
#X obj 119 90 metro 1000;
#X obj 119 112 t b b;
#X obj 33 244 *~;
#X msg 146 137 1 10;
#X obj 33 100 noise~;
#X msg 119 185 0 50;
#X obj 119 163 del 10;
#X obj 119 60 tgl 15 0 empty empty empty 17 7 0 10 #fcfcfc #000000 #000000 0 1;
#X obj 33 122 *~ 0.1;
#X obj 119 207 line~;
#X floatatom 177 40 5 0 0 0 - - - 0;
#X msg 426 29 seed 1234;
#X obj 328 192 print;
#X obj 332 27 tgl 15 0 empty empty empty 17 7 0 10 #fcfcfc #000000 #000000 0 1;
#X msg 437 72 200;
#X msg 424 124 3;
#X text 454 121 max step size;
#X text 467 74 bound;
#X obj 328 158 hv.drunk 100 5;
#X obj 410 263 else/rampnoise~ 400;
#X floatatom 411 234 5 0 0 0 - - - 0;
#X obj 328 54 metro 100;
#X obj 499 300 t b b;
#X obj 413 432 *~;
#X msg 526 325 1 10;
#X msg 499 373 0 50;
#X obj 499 351 del 10;
#X obj 499 395 line~;
#X msg 746 89 seed 1234;
#X obj 652 87 tgl 15 0 empty empty empty 17 7 0 10 #fcfcfc #000000 #000000 0 1;
#X msg 757 132 200;
#X msg 744 184 3;
#X text 774 181 max step size;
#X text 787 134 bound;
#X obj 648 218 hv.drunk 4100 5;
#X obj 648 114 metro 10;
#X obj 150 297 hsl 128 15 100 10000 1 0 empty empty empty -2 -8 0 10 #dcdcdc #000000 #000000 0 1;
#X obj 147 321 nbx 5 14 -1e+37 1e+37 0 0 empty empty empty 0 -8 0 10 #dcdcdc #000000 #000000 0 256;
#X text 206 321 frequency in Hz;
#X obj 147 346 else/perlin~;
#X obj 143 400 throw~ all;
#X connect 0 0 1 0;
#X connect 0 0 22 0;
#X connect 1 0 6 0;
#X connect 1 1 3 0;
#X connect 3 0 9 0;
#X connect 4 0 8 0;
#X connect 5 0 9 0;
#X connect 6 0 5 0;
#X connect 7 0 0 0;
#X connect 8 0 2 0;
#X connect 9 0 2 1;
#X connect 10 0 0 1;
#X connect 11 0 18 0;
#X connect 13 0 21 0;
#X connect 14 0 18 1;
#X connect 15 0 18 2;
#X connect 18 0 12 0;
#X connect 18 0 10 0;
#X connect 19 0 23 0;
#X connect 20 0 19 0;
#X connect 21 0 18 0;
#X connect 22 0 26 0;
#X connect 22 1 24 0;
#X connect 24 0 27 0;
#X connect 25 0 27 0;
#X connect 26 0 25 0;
#X connect 27 0 23 1;
#X connect 28 0 34 0;
#X connect 29 0 35 0;
#X connect 30 0 34 1;
#X connect 31 0 34 2;
#X connect 34 0 20 0;
#X connect 35 0 34 0;
#X connect 36 0 37 0;
#X connect 37 0 39 0;
#X connect 39 0 23 0;
#X restore 19 25 pd noise1;
#X obj 266 171 nbx 5 14 -1e+37 1e+37 0 0 empty empty empty 0 -8 0 10 #dcdcdc #000000 #000000 0 256;
#X text 326 170 <- frequency;
#X obj 266 200 else/oscnoise~ 440;
#X obj 233 167 bng 20 250 50 0 empty empty empty 0 -8 0 10 #dfdfdf #000000 #000000;
#X text 188 169 update;
#X obj 483 85 else/lfnoise~;
#X obj 483 109 else/stepnoise~;
#X obj 217 286 hsl 128 15 20 44100 1 0 empty empty empty -2 -8 0 10 #dcdcdc #000000 #000000 0 1;
#X obj 214 315 nbx 8 14 -1e+37 1e+37 0 0 empty empty empty 0 -8 0 10 #dcdcdc #000000 #000000 0 256;
#X text 227 280 frequency in Hz;
#X obj 214 341 else/stepnoise~ 400;
#X obj 642 86 hsl 128 15 1 44100 1 0 empty empty empty -2 -8 0 10 #dcdcdc #000000 #000000 0 1;
#X obj 861 1193 else/out~;
#X obj 639 115 nbx 8 14 -1e+37 1e+37 0 0 empty empty empty 0 -8 0 10 #dcdcdc #000000 #000000 0 256;
#X text 655 85 frequency in Hz;
#X obj 639 141 else/lfnoise~ 400;
#X obj 402 312 random 100;
#X obj 402 337 > 80;
#X obj 402 387 bng 20 250 50 0 empty empty empty 0 -10 0 12 #fcfcfc #000000 #000000;
#X obj 435 386 bng 20 250 50 0 empty empty empty 0 -10 0 12 #fcfcfc #000000 #000000;
#X obj 407 287 metro 200;
#X obj 406 260 tgl 20 0 empty empty empty 0 -10 0 12 #fcfcfc #000000 #000000 0 1;
#X obj 402 362 sel 1;
#X floatatom 481 242 5 0 0 0 - - - 0;
#X obj 390 660 hsl 128 15 10 44100 1 0 empty empty empty -2 -8 0 10 #dcdcdc #000000 #000000 0 1;
#X obj 387 684 nbx 8 14 -1e+37 1e+37 0 0 empty empty empty 0 -8 0 10 #dcdcdc #000000 #000000 0 256;
#X obj 294 708 else/downsample~;
#X floatatom 430 551 8 1 10000 0 - - - 0;
#X obj 433 530 hsl 128 15 0 1 0 0 empty empty empty -2 -8 0 10 #dcdcdc #000000 #000000 0 1;
#X floatatom 499 583 8 1 10000 0 - - - 0;
#X obj 502 562 hsl 128 15 0 1 0 0 empty empty empty -2 -8 0 10 #dcdcdc #000000 #000000 0 1;
#X text 440 530 bit crushing (0-1);
#X text 517 562 decimation (0-1);
#X obj 430 571 else/f2s~;
#X obj 499 604 else/f2s~;
#X obj 291 640 else/crush~;
#X obj 982 803 else/square~;
#X obj 982 741 else/rampnoise~ -mc 2 7000, f 32;
#X obj 982 773 else/rescale~ -213 122;
#X obj 602 282 else/drive~;
#X obj 665 239 nbx 5 14 -1e+37 1e+37 0 0 empty empty empty 0 -8 0 10 #dcdcdc #000000 #000000 0 256;
#X obj 668 217 hsl 128 15 0 5 0 0 empty empty empty -2 -8 0 10 #dcdcdc #000000 #000000 0 1;
#X obj 665 260 else/float2sig~ 50;
#N canvas 281 187 630 372 spectrolog 0;
#N canvas 556 61 872 789 FFT_Analyse 0;
#X obj 101 102 inlet~;
#X obj 101 332 *~;
#X obj 132 331 *~;
#X obj 101 356 +~;
#X obj 102 377 powtodb~;
#N canvas 0 22 346 535 init_input_window 0;
#X obj 73 217 / 10;
#X obj 55 278 line 0 0.1;
#X msg 119 246 0;
#X obj 54 176 t f f b;
#X obj 54 239 pack;
#X obj 55 301 t f f;
#X obj 54 152 - 1;
#X obj 74 114 t f f;
#X obj 55 359 * 3.14159;
#X obj 55 381 sin;
#X msg 55 401 \$1 \$1;
#X obj 55 423 *;
#X text 119 334 0...0.99;
#X text 128 359 0...pi;
#X text 79 423 hanning;
#X msg 55 88 4096;
#X obj 100 88 f 4096;
#X obj 99 60 bng 15 250 50 0 empty empty empty 0 -6 0 8 #fcfcfc #000000 #000000;
#X obj 99 39 loadbang;
#X obj 74 333 / 4096;
#X obj 55 448 tabwrite \$0-window;
#X text 86 381 half-sine;
#X connect 0 0 4 1;
#X connect 1 0 5 0;
#X connect 2 0 1 0;
#X connect 3 0 4 0;
#X connect 3 1 0 0;
#X connect 3 2 2 0;
#X connect 4 0 1 0;
#X connect 5 0 19 0;
#X connect 5 1 20 1;
#X connect 6 0 3 0;
#X connect 7 0 6 0;
#X connect 7 1 19 1;
#X connect 8 0 9 0;
#X connect 9 0 10 0;
#X connect 10 0 11 0;
#X connect 11 0 20 0;
#X connect 15 0 7 0;
#X connect 16 0 7 0;
#X connect 17 0 16 0;
#X connect 18 0 17 0;
#X connect 19 0 8 0;
#X restore 161 276 pd init_input_window;
#N canvas 0 22 450 300 (subpatch) 0;
#X array \$0-lin_scope 2048 float 0;
#A color 0;
#A width 1;
#X coords 0 100 2047 0 200 140 1;
#X restore 110 621 graph;
#N canvas 0 22 822 328 init_norm 0;
#X obj 43 230 outlet;
#X obj 43 187 - 100;
#X floatatom 43 208 9 0 0 0 - - - 0;
#X text 108 169 leistung - techn. dB;
#X msg 43 69 4096;
#X obj 80 68 f 4096;
#X obj 80 47 bng 15 250 50 0 empty empty empty 0 -6 0 8 #fcfcfc #000000 #000000;
#X obj 80 26 loadbang;
#X obj 43 167 rmstodb;
#X obj 43 110 / 4;
#X text 74 103 faktor 2 wegen hanning;
#X text 74 114 weiterer faktor 2 \, weil wir nur die;
#X text 73 124 erste haelfte des konjungiert komplexen spektrum sehen;
#X text 108 135 bzw. bearbeiten \, somit nur die haelfte der spektralen energie;
#X connect 1 0 2 0;
#X connect 2 0 0 0;
#X connect 4 0 9 0;
#X connect 5 0 9 0;
#X connect 6 0 5 0;
#X connect 7 0 6 0;
#X connect 8 0 1 0;
#X connect 9 0 8 0;
#X restore 153 421 pd init_norm;
#X obj 100 231 *~;
#X obj 102 443 -~ 60.206;
#X obj 113 517 *~ 0.98;
#X obj 100 539 +~;
#X obj 101 471 *~ 0.02;
#X msg 314 481 1 \$1;
#X obj 314 502 -;
#X obj 314 458 clip 0 1;
#X obj 314 437 / 100;
#X floatatom 314 413 5 0.5 100 0 - - - 0;
#X obj 333 366 loadbang;
#X obj 100 277 fft~;
#X obj 463 557 line 0 0.1;
#X obj 463 602 / 2;
#X obj 463 622 mtof;
#X msg 463 536 6 \, 273 26.7;
#X obj 463 580 t f f;
#X obj 494 602 - 6;
#X obj 463 642 / 44100;
#X obj 463 663 * 4096;
#X msg 656 633 6;
#X obj 656 653 / 2;
#X obj 656 673 mtof;
#X floatatom 656 693 9 0 0 0 - - - 0;
#X text 723 694 Hz;
#X obj 754 654 / 2;
#X obj 754 673 mtof;
#X floatatom 754 693 9 0 0 0 - - - 0;
#X text 822 693 Hz;
#X msg 754 634 273;
#X obj 656 612 t b b;
#X obj 463 498 tgl 15 0 empty empty empty 0 -6 0 8 #fcfcfc #000000 #000000 0 1;
#X obj 463 458 loadbang;
#X msg 463 478 1;
#X obj 656 592 loadbang;
#X obj 468 245 loadbang;
#X obj 703 102 inlet;
#X obj 130 253 table \$0-window 4096;
#X obj 137 214 tabreceive~ \$0-window;
#X text 353 403 temporal lowpass;
#X text 355 415 parameter between 0 .. 100 %;
#X text 23 23 spectrum~;
#X text 120 23 draws the power of a spectrum in a logarithmic scale;
#X text 118 36 (by Thomas Musil);
#X obj 113 496 tabreceive~ \$0-lin_scope;
#X obj 100 564 tabsend~ \$0-lin_scope;
#X obj 463 685 tabread4 \$0-lin_scope;
#X obj 468 267 f \$0;
#X text 553 536 transformation to log scale;
#X msg 333 385 100;
#X obj 314 341 max 0.5;
#X obj 314 319 min 100;
#X obj 440 107 inlet;
#X text 96 81 audio sig;
#X text 700 81 ON/OFF;
#X text 427 86 (0 .. 100);
#X text 408 72 temporal lowpass;
#X obj 533 244 bng 15 250 50 0 empty empty empty 0 -6 0 8 #fcfcfc #000000 #000000;
#X obj 463 735 tabwrite \$0-s;
#X msg 468 296 \; \$1-s xticks 0 12 2;
#X msg 491 330 \; \$1-s yticks 0 5 2;
#X obj 462 516 metro 100;
#X obj 704 166 switch~ 4096 2;
#X obj 463 711 clip 0 100;
#X obj 773 101 loadbang;
#X msg 773 123 1;
#X connect 0 0 8 0;
#X connect 1 0 3 0;
#X connect 2 0 3 1;
#X connect 3 0 4 0;
#X connect 4 0 9 0;
#X connect 7 0 9 1;
#X connect 8 0 19 0;
#X connect 9 0 12 0;
#X connect 10 0 11 1;
#X connect 11 0 53 0;
#X connect 12 0 11 0;
#X connect 13 0 14 0;
#X connect 14 0 10 1;
#X connect 15 0 13 0;
#X connect 15 0 12 1;
#X connect 16 0 15 0;
#X connect 17 0 16 0;
#X connect 18 0 57 0;
#X connect 19 0 1 0;
#X connect 19 0 1 1;
#X connect 19 1 2 0;
#X connect 19 1 2 1;
#X connect 20 0 24 0;
#X connect 21 0 22 0;
#X connect 22 0 26 0;
#X connect 23 0 20 0;
#X connect 24 0 21 0;
#X connect 24 1 25 0;
#X connect 25 0 66 1;
#X connect 26 0 27 0;
#X connect 27 0 54 0;
#X connect 28 0 29 0;
#X connect 29 0 30 0;
#X connect 30 0 31 0;
#X connect 33 0 34 0;
#X connect 34 0 35 0;
#X connect 37 0 33 0;
#X connect 38 0 28 0;
#X connect 38 1 37 0;
#X connect 39 0 69 0;
#X connect 40 0 41 0;
#X connect 41 0 39 0;
#X connect 42 0 38 0;
#X connect 43 0 55 0;
#X connect 44 0 70 0;
#X connect 46 0 8 1;
#X connect 52 0 10 0;
#X connect 54 0 71 0;
#X connect 55 0 67 0;
#X connect 55 0 68 0;
#X connect 57 0 17 0;
#X connect 58 0 17 0;
#X connect 59 0 58 0;
#X connect 60 0 59 0;
#X connect 65 0 55 0;
#X connect 69 0 23 0;
#X connect 71 0 66 0;
#X connect 72 0 73 0;
#X connect 73 0 70 0;
#X restore 17 320 pd FFT_Analyse;
#X obj 63 299 inlet;
#X obj 17 299 inlet~;
#X obj 110 299 inlet;
#N canvas 0 22 450 300 (subpatch) 0;
#X array \$0-s 268 float 0;
#A color 0;
#A width 1;
#X coords 0 100 267 0 267 140 1;
#X xticks 0 12 2;
#X yticks 0 5 2;
#X restore 23 27 graph;
#X obj 297 42 cnv 15 1 1 empty empty -10 0 0 0 10 #fcfcfc #000000 0;
#X obj 297 154 cnv 15 1 1 empty empty -90 0 0 0 10 #fcfcfc #000000 0;
#X obj 297 98 cnv 15 1 1 empty empty -50 0 0 0 10 #fcfcfc #000000 0;
#X obj 297 70 cnv 15 1 1 empty empty -30 0 0 0 10 #fcfcfc #000000 0;
#X obj 297 126 cnv 15 1 1 empty empty -70 0 0 0 10 #fcfcfc #000000 0;
#X obj 18 171 cnv 15 1 1 empty empty 10 0 5 0 10 #fcfcfc #000000 0;
#X obj 66 171 cnv 15 1 1 empty empty 40 0 5 0 10 #fcfcfc #000000 0;
#X obj 115 171 cnv 15 1 1 empty empty 160 0 5 0 10 #fcfcfc #000000 0;
#X obj 162 171 cnv 15 1 1 empty empty 640 0 5 0 10 #fcfcfc #000000 0;
#X obj 210 171 cnv 15 1 1 empty empty 2k56 0 5 0 10 #fcfcfc #000000 0;
#X obj 258 171 cnv 15 1 1 empty empty 10k2 0 5 0 10 #fcfcfc #000000 0;
#X obj 138 184 cnv 15 1 1 empty empty 320 0 5 0 10 #fcfcfc #000000 0;
#X obj 282 184 cnv 15 1 1 empty empty 20k5 0 5 0 10 #fcfcfc #000000 0;
#X obj 42 181 cnv 15 1 1 empty empty 20 0 9 0 10 #fcfcfc #000000 0;
#X obj 90 184 cnv 15 1 1 empty empty 80 0 5 0 10 #fcfcfc #000000 0;
#X obj 186 184 cnv 15 1 1 empty empty 1k28 0 5 0 10 #fcfcfc #000000 0;
#X obj 234 184 cnv 15 1 1 empty empty 5k12 0 5 0 10 #fcfcfc #000000 0;
#X obj 46 168 cnv 15 1 1 empty empty | 0 7 0 10 #fcfcfc #000000 0;
#X obj 94 168 cnv 15 1 1 empty empty | 0 7 0 10 #fcfcfc #000000 0;
#X obj 142 168 cnv 15 1 1 empty empty | 0 7 0 10 #fcfcfc #000000 0;
#X obj 190 168 cnv 15 1 1 empty empty | 0 7 0 10 #fcfcfc #000000 0;
#X obj 238 168 cnv 15 1 1 empty empty | 0 7 0 10 #fcfcfc #000000 0;
#X obj 286 168 cnv 15 1 1 empty empty | 0 7 0 10 #fcfcfc #000000 0;
#X connect 1 0 0 1;
#X connect 2 0 0 0;
#X connect 3 0 0 2;
#X coords 0 -1 1 1 330 210 1 0 0;
#X restore 1315 1048 pd spectrolog;
#X obj 279 789 else/out~;
#X obj 1357 675 +~ 1000;
#X obj 1464 676 +~ 2000;
#X obj 1395 532 hsl 64 12 0 1 0 1 empty empty empty -2 -6 0 8 #fcfcfc #000000 #000000 100 1;
#X obj 1387 564 * 1000;
#X obj 1564 535 hsl 64 12 0 1 0 1 empty empty empty -2 -6 0 8 #fcfcfc #000000 #000000 100 1;
#X obj 1556 567 * 1000;
#X obj 1691 535 hsl 64 12 0 1 0 1 empty empty empty -2 -6 0 8 #fcfcfc #000000 #000000 1000 1;
#X obj 1683 567 * 1000;
#X obj 1518 866 -~;
#X obj 1519 845 *~ 0.8;
#X obj 1639 754 hsl 64 12 0 1 0 1 empty empty empty -2 -6 0 8 #fcfcfc #000000 #000000 300 1;
#X obj 1635 787 * 10;
#X obj 1434 788 *~ 0.5;
#X obj 1359 646 *~ 100;
#X obj 1465 646 *~ 100;
#X obj 1466 742 cos~;
#X obj 1395 742 cos~;
#X floatatom 775 546 8 0 0 0 - - - 0;
#X floatatom 879 546 7 0 0 0 - - - 0;
#X floatatom 983 546 9 0 0 0 - - - 0;
#X text 722 547 (MIDI);
#X text 840 545 (db);
#X obj 775 518 sigmund~ -hop 4096 pitch env evenness quality;
#X floatatom 1087 546 4 0 0 0 - - - 0;
#X obj 768 635 bonk~;
#X obj 768 660 bng 20 250 50 0 empty empty empty 0 -10 0 12 #fcfcfc #000000 #000000;
#X msg 773 603 thresh 0.5 9;
#X msg 1274 136 1;
#X msg 1286 160 0;
#X text 1302 136 freeze;
#X text 1318 160 unfreeze;
#X obj 1166 183 else/pvoc.freeze~;
#X obj 1088 -14 hsl 128 15 20 44100 1 0 empty empty empty -2 -8 0 10 #dcdcdc #000000 #000000 0 1;
#X obj 1085 15 nbx 8 14 -1e+37 1e+37 0 0 empty empty empty 0 -8 0 10 #dcdcdc #000000 #000000 0 256;
#X text 1098 -20 frequency in Hz;
#X obj 1085 41 else/stepnoise~ 400;
#X obj 1273 12 random 100;
#X obj 1273 37 > 80;
#X obj 1273 87 bng 20 250 50 0 empty empty empty 0 -10 0 12 #fcfcfc #000000 #000000;
#X obj 1306 86 bng 20 250 50 0 empty empty empty 0 -10 0 12 #fcfcfc #000000 #000000;
#X obj 1278 -13 metro 200;
#X obj 1277 -40 tgl 20 0 empty empty empty 0 -10 0 12 #fcfcfc #000000 #000000 0 1;
#X obj 1273 62 sel 1;
#X floatatom 1352 -58 5 0 0 0 - - - 0;
#X obj 1261 360 hsl 128 15 10 44100 1 0 empty empty empty -2 -8 0 10 #dcdcdc #000000 #000000 0 1;
#X obj 1258 384 nbx 8 14 -1e+37 1e+37 0 0 empty empty empty 0 -8 0 10 #dcdcdc #000000 #000000 0 256;
#X obj 1165 408 else/downsample~;
#X floatatom 1301 251 8 1 10000 0 - - - 0;
#X obj 1304 230 hsl 128 15 0 1 0 0 empty empty empty -2 -8 0 10 #dcdcdc #000000 #000000 0 1;
#X floatatom 1370 283 8 1 10000 0 - - - 0;
#X obj 1373 262 hsl 128 15 0 1 0 0 empty empty empty -2 -8 0 10 #dcdcdc #000000 #000000 0 1;
#X text 1311 230 bit crushing (0-1);
#X text 1388 262 decimation (0-1);
#X obj 1301 271 else/f2s~;
#X obj 1370 304 else/f2s~;
#X obj 1162 340 else/crush~;
#X msg 1650 98 1;
#X msg 1662 122 0;
#X text 1678 98 freeze;
#X text 1694 122 unfreeze;
#X obj 1542 145 else/pvoc.freeze~;
#X obj 1464 -52 hsl 128 15 20 44100 1 0 empty empty empty -2 -8 0 10 #dcdcdc #000000 #000000 0 1;
#X obj 1461 -23 nbx 8 14 -1e+37 1e+37 0 0 empty empty empty 0 -8 0 10 #dcdcdc #000000 #000000 0 256;
#X text 1474 -58 frequency in Hz;
#X obj 1461 3 else/stepnoise~ 400;
#X obj 1649 -26 random 100;
#X obj 1649 -1 > 80;
#X obj 1649 49 bng 20 250 50 0 empty empty empty 0 -10 0 12 #fcfcfc #000000 #000000;
#X obj 1682 48 bng 20 250 50 0 empty empty empty 0 -10 0 12 #fcfcfc #000000 #000000;
#X obj 1654 -51 metro 200;
#X obj 1653 -78 tgl 20 0 empty empty empty 0 -10 0 12 #fcfcfc #000000 #000000 0 1;
#X obj 1649 24 sel 1;
#X floatatom 1728 -96 5 0 0 0 - - - 0;
#X obj 1637 322 hsl 128 15 10 44100 1 0 empty empty empty -2 -8 0 10 #dcdcdc #000000 #000000 0 1;
#X obj 1634 346 nbx 8 14 -1e+37 1e+37 0 0 empty empty empty 0 -8 0 10 #dcdcdc #000000 #000000 0 256;
#X obj 1541 370 else/downsample~;
#X floatatom 1677 213 8 1 10000 0 - - - 0;
#X obj 1680 192 hsl 128 15 0 1 0 0 empty empty empty -2 -8 0 10 #dcdcdc #000000 #000000 0 1;
#X floatatom 1746 245 8 1 10000 0 - - - 0;
#X obj 1749 224 hsl 128 15 0 1 0 0 empty empty empty -2 -8 0 10 #dcdcdc #000000 #000000 0 1;
#X text 1687 192 bit crushing (0-1);
#X text 1764 224 decimation (0-1);
#X obj 1677 233 else/f2s~;
#X obj 1746 266 else/f2s~;
#X obj 1538 302 else/crush~;
#X obj 1478 924 else/out~;
#X connect 0 0 33 0;
#X connect 1 0 17 1;
#X connect 2 0 17 1;
#X connect 3 0 1 0;
#X connect 3 0 4 0;
#X connect 5 0 2 0;
#X connect 5 0 9 0;
#X connect 6 0 8 0;
#X connect 6 0 7 0;
#X connect 8 0 17 1;
#X connect 10 0 15 0;
#X connect 10 0 11 0;
#X connect 12 0 14 0;
#X connect 12 0 13 0;
#X connect 14 0 17 1;
#X connect 15 0 17 1;
#X connect 17 0 32 0;
#X connect 18 0 0 0;
#X connect 19 0 24 0;
#X connect 20 0 25 0;
#X connect 21 0 26 0;
#X connect 22 0 23 0;
#X connect 23 0 32 1;
#X connect 24 0 32 1;
#X connect 25 0 32 1;
#X connect 26 0 32 1;
#X connect 32 0 92 0;
#X connect 34 0 35 0;
#X connect 35 0 37 0;
#X connect 37 0 36 1;
#X connect 38 0 18 0;
#X connect 41 0 42 0;
#X connect 42 0 58 0;
#X connect 43 0 44 0;
#X connect 44 0 59 0;
#X connect 45 0 46 0;
#X connect 46 0 60 0;
#X connect 47 0 48 0;
#X connect 48 0 62 0;
#X connect 49 0 50 0;
#X connect 50 0 63 0;
#X connect 58 0 64 0;
#X connect 59 0 64 0;
#X connect 60 0 64 0;
#X connect 62 0 64 0;
#X connect 63 0 64 0;
#X connect 66 0 33 1;
#X connect 67 0 66 0;
#X connect 68 0 67 0;
#X connect 69 0 38 0;
#X connect 70 0 68 0;
#X connect 73 0 77 1;
#X connect 74 0 77 1;
#X connect 77 0 115 0;
#X connect 78 0 38 0;
#X connect 78 0 68 0;
#X connect 80 0 82 0;
#X connect 83 0 82 0;
#X connect 87 0 88 0;
#X connect 88 0 90 0;
#X connect 90 0 77 0;
#X connect 91 0 93 0;
#X connect 93 0 95 0;
#X connect 96 0 97 0;
#X connect 97 0 102 0;
#X connect 98 0 74 0;
#X connect 99 0 73 0;
#X connect 100 0 96 0;
#X connect 101 0 100 0;
#X connect 102 0 98 0;
#X connect 102 1 99 0;
#X connect 103 0 100 1;
#X connect 104 0 105 0;
#X connect 105 0 106 1;
#X connect 106 0 124 0;
#X connect 106 0 147 0;
#X connect 106 0 149 0;
#X connect 107 0 113 0;
#X connect 108 0 107 0;
#X connect 109 0 114 0;
#X connect 110 0 109 0;
#X connect 113 0 115 1;
#X connect 114 0 115 2;
#X connect 115 0 106 0;
#X connect 116 0 17 0;
#X connect 117 0 118 0;
#X connect 118 0 116 0;
#X connect 120 0 122 0;
#X connect 121 0 120 0;
#X connect 122 0 119 1;
#X connect 125 0 141 0;
#X connect 126 0 140 0;
#X connect 127 0 128 0;
#X connect 128 0 125 1;
#X connect 129 0 130 0;
#X connect 130 0 126 1;
#X connect 131 0 133 1;
#X connect 133 0 210 0;
#X connect 133 0 123 0;
#X connect 134 0 133 0;
#X connect 135 0 136 0;
#X connect 136 0 134 1;
#X connect 137 0 134 0;
#X connect 138 0 125 0;
#X connect 139 0 126 0;
#X connect 140 0 137 0;
#X connect 141 0 137 0;
#X connect 147 0 142 0;
#X connect 147 1 143 0;
#X connect 147 2 144 0;
#X connect 147 3 148 0;
#X connect 149 0 150 0;
#X connect 151 0 149 0;
#X connect 152 0 156 1;
#X connect 153 0 156 1;
#X connect 156 0 180 0;
#X connect 157 0 158 0;
#X connect 158 0 160 0;
#X connect 160 0 156 0;
#X connect 161 0 162 0;
#X connect 162 0 167 0;
#X connect 163 0 153 0;
#X connect 164 0 152 0;
#X connect 165 0 161 0;
#X connect 166 0 165 0;
#X connect 167 0 163 0;
#X connect 167 1 164 0;
#X connect 168 0 165 1;
#X connect 169 0 170 0;
#X connect 170 0 171 1;
#X connect 171 0 138 0;
#X connect 172 0 178 0;
#X connect 173 0 172 0;
#X connect 174 0 179 0;
#X connect 175 0 174 0;
#X connect 178 0 180 1;
#X connect 179 0 180 2;
#X connect 180 0 171 0;
#X connect 181 0 185 1;
#X connect 182 0 185 1;
#X connect 185 0 209 0;
#X connect 186 0 187 0;
#X connect 187 0 189 0;
#X connect 189 0 185 0;
#X connect 190 0 191 0;
#X connect 191 0 196 0;
#X connect 192 0 182 0;
#X connect 193 0 181 0;
#X connect 194 0 190 0;
#X connect 195 0 194 0;
#X connect 196 0 192 0;
#X connect 196 1 193 0;
#X connect 197 0 194 1;
#X connect 198 0 199 0;
#X connect 199 0 200 1;
#X connect 200 0 139 0;
#X connect 201 0 207 0;
#X connect 202 0 201 0;
#X connect 203 0 208 0;
#X connect 204 0 203 0;
#X connect 207 0 209 1;
#X connect 208 0 209 2;
#X connect 209 0 200 0;
