#N canvas 139 27 1161 953 12;
#X declare -path ./lib;
#X declare -path else;
#X obj 84 415 print;
#X obj 86 152 bng 15 250 50 0 empty empty empty 17 7 0 10 #fcfcfc #000000 #000000;
#X floatatom 125 212 5 0 0 0 - - - 0;
#X floatatom 128 293 5 0 0 0 - - - 0;
#X floatatom 142 368 5 0 0 0 - - - 0;
#X text 105 145 generate the sequence;
#X text 172 210 iterations of random notes to add: more iterations creates more random notes;
#X text 173 291 random max: the maximum value used in the random number generation;
#X text 183 368 seq length: the length of sequence;
#X text 172 434 randseq creates a list of numbers and - hyphen for rests;
#X listbox 95 468 70 0 0 0 - - - 0;
#X obj 67 441 list;
#X text 388 139 generate a random sequence for mseq;
#X obj 781 426 print;
#X obj 783 163 bng 15 250 50 0 empty empty empty 17 7 0 10 #fcfcfc #000000 #000000;
#X floatatom 822 223 5 0 0 0 - - - 0;
#X floatatom 825 304 5 0 0 0 - - - 0;
#X floatatom 839 379 5 0 0 0 - - - 0;
#X obj 781 401 randseq;
#X text 802 156 generate the sequence;
#X text 869 221 iterations of random notes to add: more iterations creates more random notes;
#X text 870 302 random max: the maximum value used in the random number generation;
#X text 880 379 seq length: the length of sequence;
#X text 869 445 randseq creates a list of numbers and - hyphen for rests;
#X listbox 763 477 72 0 0 0 - - - 0;
#X obj 764 452 list;
#X text 1085 150 generate a random sequence for mseq;
#X obj 490 25 tgl 20 0 empty empty empty 0 -10 0 12 #fcfcfc #000000 #000000 0 1;
#X obj 490 80 metro 1111;
#X msg 587 499 0 - - - 1 - - - 2;
#X obj 26 525 else/sequencer;
#X floatatom 26 550 5 0 0 0 - - - 0;
#X obj 599 27 tgl 20 0 empty empty empty 0 -10 0 12 #fcfcfc #000000 #000000 0 1;
#X obj 599 82 metro 111;
#X obj 763 517 else/sequencer;
#X floatatom 763 542 5 0 0 0 - - - 0;
#X msg 1677 712 start;
#X msg 1657 743 stop;
#X obj 1540 793 writesf~ 2;
#X msg 1720 644 open malfunktion3.wav;
#X obj 38 37 declare -path ./lib;
#X obj 436 827 m-sub~;
#X obj 663 972 dac~;
#X floatatom 553 538 5 0 0 0 - - - 0;
#X obj 84 390 randseq;
#X obj 999 547 cusp~;
#X obj 943 561 quad~;
#X obj 1049 542 henon~;
#X obj 1111 544 logistic~;
#X obj 1005 580 crackle~;
#X obj 1079 576 lorenz~;
#X obj 1412 418 mtof;
#X obj 1412 396 nbx 5 14 -1e+37 1e+37 0 0 empty empty empty 0 -8 0 10 #dcdcdc #000000 #000000 0 256;
#X obj 1412 277 vsl 22 80 0 127 0 0 dsfsdgs sddfjhgj empty 0 -9 0 10 #dcdcdc #000000 #000000 0 1;
#X obj 1412 445 bl.tri~;
#X obj 1412 371 rescale 30 42;
#X obj 1412 251 lfo 5.3 0 270 -tri;
#X obj 1412 476 plate.rev~ 50 0.6 0.5 0.8 0.6, f 18;
#X obj 1460 148 declare -path else;
#X obj 1641 236 hsl 128 15 0.1 1 1 0 empty empty empty -2 -8 0 10 #dcdcdc #000000 #000000 0 1;
#X obj 1638 262 nbx 4 14 -1e+37 1e+37 0 0 empty empty empty 0 -8 0 10 #dcdcdc #000000 #000000 0 256;
#X text 1665 236 rate in Hz;
#X msg 1699 261 0;
#X text 1727 259 <= phase reset;
#X obj 1647 286 else/lfo -tri 0.25;
#X obj 1604 377 rescale 30 42;
#X obj 666 881 chaotic~, f 28;
#X obj 697 784 hsl 128 15 0 1 0 0 empty empty empty -2 -8 0 10 #dcdcdc #000000 #000000 0 1;
#X text 708 780 select channels;
#X floatatom 542 735 5 0 0 0 - - - 0;
#X obj 666 906 *~ 0.77;
#X obj 716 589 tgl 20 0 empty empty empty 0 -10 0 12 #fcfcfc #000000 #000000 0 1;
#X obj 716 644 metro 111;
#X floatatom 770 598 5 0 0 0 - - - 0;
#X floatatom 763 829 5 0 0 0 - - - 0;
#X floatatom 794 809 5 0 0 0 - - - 0;
#X floatatom 826 830 5 0 0 0 - - - 0;
#X floatatom 878 810 5 0 0 0 - - - 0;
#X floatatom 931 762 5 0 0 0 - - - 0;
#X obj 928 711 random 10;
#X obj 928 736 / 10;
#X obj 542 711 random 10000;
#X connect 1 0 44 0;
#X connect 2 0 44 1;
#X connect 3 0 44 2;
#X connect 4 0 44 3;
#X connect 10 0 30 1;
#X connect 11 0 10 0;
#X connect 14 0 18 0;
#X connect 15 0 18 1;
#X connect 16 0 18 2;
#X connect 17 0 18 3;
#X connect 18 0 13 0;
#X connect 18 0 25 0;
#X connect 24 0 34 1;
#X connect 25 0 24 0;
#X connect 27 0 28 0;
#X connect 28 0 1 0;
#X connect 28 0 14 0;
#X connect 29 0 30 1;
#X connect 30 0 31 0;
#X connect 31 0 43 0;
#X connect 32 0 33 0;
#X connect 33 0 30 0;
#X connect 33 0 34 0;
#X connect 34 0 35 0;
#X connect 35 0 43 0;
#X connect 36 0 38 0;
#X connect 37 0 38 0;
#X connect 39 0 38 0;
#X connect 41 0 70 0;
#X connect 44 0 0 0;
#X connect 44 0 11 0;
#X connect 51 0 54 0;
#X connect 52 0 51 0;
#X connect 53 0 55 0;
#X connect 54 0 57 0;
#X connect 55 0 52 0;
#X connect 56 0 53 0;
#X connect 59 0 60 0;
#X connect 60 0 64 0;
#X connect 62 0 64 1;
#X connect 64 0 65 0;
#X connect 65 0 54 0;
#X connect 66 0 70 0;
#X connect 67 0 66 2;
#X connect 69 0 66 0;
#X connect 70 0 42 0;
#X connect 70 0 42 1;
#X connect 71 0 72 0;
#X connect 72 0 66 1;
#X connect 72 0 79 0;
#X connect 72 0 81 0;
#X connect 73 0 72 1;
#X connect 74 0 66 3;
#X connect 75 0 66 4;
#X connect 76 0 66 5;
#X connect 77 0 66 6;
#X connect 77 0 66 5;
#X connect 77 0 66 4;
#X connect 77 0 66 3;
#X connect 78 0 66 2;
#X connect 79 0 80 0;
#X connect 80 0 78 0;
#X connect 81 0 69 0;
