#N canvas 0 27 737 404 12;
#X declare -path ./audio/instruments;
#X declare -path ./audio/objects;
#X declare -path ./visuals/objects;
#X declare -lib Gem;
#X declare -path ./visuals/vfx;
#X declare -path ./lib;
#X declare -lib Gem;
#X declare -stdpath ./;
#X text 6 5 m-onz;
#N canvas 33 446 622 529 imports 0;
#X obj 6 6 declare -path ./audio/instruments;
#X obj 6 28 declare -path ./audio/objects;
#X obj 6 51 declare -path ./visuals/objects;
#X obj 6 97 declare -lib Gem;
#X obj 6 74 declare -path ./visuals/vfx;
#X obj 26 155 declare -path ./lib;
#X restore 9 76 pd imports;
#X obj 10 53 declare -lib Gem;
#X obj 10 28 declare -stdpath ./;
#N canvas 156 292 454 304 gemwin 0;
#X obj 132 136 gemwin;
#X obj 67 89 outlet;
#X obj 67 10 inlet;
#X obj 67 41 route create;
#X msg 67 70 set destroy;
#X msg 182 68 set create;
#X msg 132 112 create \, 1;
#X msg 238 112 destroy;
#N canvas 91 178 247 179 Gem.init 0;
#X obj 59 26 loadbang;
#X msg 118 81 reset;
#X obj 118 113 outlet;
#X obj 59 45 t b b;
#X connect 0 0 3 0;
#X connect 1 0 2 0;
#X connect 3 1 1 0;
#X restore 289 80 pd Gem.init;
#X msg 114 205 reset \, dimen 1200 1100 \, create \, 1;
#X obj 180 13 inlet;
#X connect 2 0 3 0;
#X connect 3 0 4 0;
#X connect 3 0 6 0;
#X connect 3 1 5 0;
#X connect 3 1 7 0;
#X connect 4 0 1 0;
#X connect 5 0 1 0;
#X connect 6 0 0 0;
#X connect 7 0 0 0;
#X connect 8 0 0 0;
#X connect 9 0 0 0;
#X connect 10 0 9 0;
#X restore 169 100 pd gemwin;
#X msg 171 15 create;
#X msg 230 72 reset \, dimen 1200 1100 \, create \, 1;
#X msg 188 40 destroy;
#X msg 249 103 reset \, dimen 640 480 \, create \, 1;
#N canvas 0 27 723 989 visuals 1;
#X obj 21 86 gemframebuffer;
#X obj 21 132 t a a b;
#X obj 21 109 translateXYZ 0 0 -4;
#X obj 168 35 loadbang;
#X obj 21 156 t a b;
#X msg 65 158 snap;
#X obj 21 208 t a b;
#X msg 201 222 1;
#X obj 590 341 t a b;
#X msg 767 342 1;
#X obj 567 1201 pix_texture;
#X obj 573 1345 rectangle 7.12 4.07;
#X floatatom 639 1323 5 0 0 0 - - - 0;
#X floatatom 703 1322 5 0 0 0 - - - 0;
#X msg 126 87 dimen 1024 768;
#X obj 21 184 pix_snap 0 0 1024 768;
#X obj 21 63 gemhead 11;
#X obj 590 316 gemhead 22;
#X obj 21 244 pix_buffer_write framebuffer;
#X obj 21 269 pix_buffer framebuffer 2;
#X obj 590 363 pix_buffer_read framebuffer;
#X obj 639 1300 / 100;
#X obj 703 1299 / 100;
#X floatatom 639 1279 5 0 0 0 - - - 0;
#X floatatom 702 1278 5 0 0 0 - - - 0;
#X obj 127 456 tgl 19 0 empty empty empty 0 -10 0 12 #fcfcfc #000000 #000000 0 1;
#X obj 32 457 separator;
#X obj 33 481 video, f 15;
#X msg 143 401 4;
#X obj 47 368 bng 20 250 50 0 empty empty empty 0 -10 0 12 #fcfcfc #000000 #000000;
#N canvas 339 345 450 300 puzzle_effect 0;
#X obj 42 173 outlet;
#X obj 43 117 inlet;
#N canvas 565 255 787 662 togglefx 0;
#X obj 89 290 outlet;
#X obj 36 37 inlet;
#X obj 121 172 spigot 1;
#X obj 32 245 spigot 0;
#X msg 127 94 0 1;
#X msg 165 94 1 0;
#X obj 122 125 unpack 0 0;
#X obj 124 37 inlet;
#X obj 189 297 outlet;
#X obj 237 27 inlet;
#X obj 299 58 loadbang;
#X obj 124 68 route 0 1;
#X connect 1 0 3 0;
#X connect 1 0 2 0;
#X connect 2 0 8 0;
#X connect 3 0 0 0;
#X connect 4 0 6 0;
#X connect 5 0 6 0;
#X connect 6 0 3 1;
#X connect 6 1 2 1;
#X connect 7 0 11 0;
#X connect 9 0 0 0;
#X connect 10 0 4 0;
#X connect 11 0 4 0;
#X connect 11 1 5 0;
#X restore 43 143 pd togglefx;
#X obj 144 143 pix_puzzle;
#X msg 144 117 size \$1 \$1;
#X floatatom 151 76 5 0 0 0 - - - 0;
#X obj 95 57 inlet;
#X obj 157 43 inlet;
#X connect 1 0 2 0;
#X connect 2 0 0 0;
#X connect 2 1 3 0;
#X connect 3 0 2 2;
#X connect 4 0 3 0;
#X connect 5 0 4 0;
#X connect 6 0 2 1;
#X connect 7 0 5 0;
#X restore 584 595 pd puzzle_effect;
#N canvas 756 147 897 776 spikey_thing 0;
#X obj 478 937 GEMglPushMatrix;
#X obj 498 916 GEMglPopMatrix;
#X floatatom 755 956 5 0 0 0 - - - 0;
#X obj 417 511 rotateXYZ 0 0 90;
#X obj 417 594 route F;
#X text 673 617 <- rule 1;
#X obj 417 641 route F;
#X msg 417 665 F \, [ \, - \, F \, F \, ] \, F \, [ \, + \, F \, ] \, F;
#X obj 417 689 route F;
#X text 674 663 <- rule 2;
#X text 673 711 <- rule 3;
#X msg 417 564 F;
#X obj 417 539 t b a;
#X obj 386 1189 translateXYZ 0.05 0 0;
#X obj 417 482 translateXYZ 0 -3 0;
#X obj 422 1081 rotateXYZ 0 0 50;
#X obj 446 990 rotateXYZ 0 0 -40;
#X obj 755 975 / 100;
#X msg 755 933 10;
#X obj 755 910 loadbang;
#X text 527 764 <- create the primitive according to the Lsystem;
#X text 672 730 These rules create an Lsystem;
#X text 554 835 <- Store the current state sent by [gemhead] and distribute it to the corresponding primitives;
#X msg 417 618 F \, [ \, - \, F \, ] \, F \, [ \, + \, F \, ] \, F;
#X obj 417 805 gemlist;
#X obj 449 564 s \$0-gemlist;
#X obj 437 826 gemlist;
#X obj 456 849 gemlist;
#X obj 478 871 gemlist;
#X obj 498 892 gemlist;
#X obj 544 784 r \$0-gemlist;
#X msg 417 713 F \, [ \, - \, F \, F \, ] \, F \, [ \, + \, F \, ] \, F;
#X obj 417 763 route F - + [ ];
#X msg 766 1177 print;
#X obj 811 1439 glsl_program;
#X obj 952 1218 change;
#X msg 835 1410 print;
#X floatatom 952 1241 2 0 0 0 ID - - 0;
#X obj 901 1389 print linking;
#X obj 811 1199 glsl_vertex;
#X obj 811 1628 pix_texture;
#X obj 811 1121 alpha;
#X obj 838 1574 tgl 15 0 empty empty empty 17 7 0 10 #fcfcfc #000000 #000000 0 1;
#X floatatom 1029 1379 5 0 0 0 - - - 0;
#X msg 838 1552 0;
#X msg 1029 1400 K \$1;
#N canvas 0 50 450 300 load_shader 0;
#X obj 89 99 t b b;
#X msg 119 126 0;
#X obj 89 154 outlet;
#X obj 89 71 gemhead 1;
#X connect 0 0 2 0;
#X connect 0 1 1 0;
#X connect 1 0 3 0;
#X connect 3 0 0 0;
#X restore 903 1091 pd load_shader;
#N canvas 50 82 450 300 init_shader 0;
#X obj 89 154 outlet;
#X obj 89 45 inlet;
#X obj 89 73 change;
#X obj 89 100 t b;
#X connect 1 0 2 0;
#X connect 2 0 3 0;
#X connect 3 0 0 0;
#X restore 890 1463 pd init_shader;
#X obj 838 1531 loadbang;
#X obj 811 1648 rotateXYZ -90 0 0;
#X msg 1028 1334 0.1;
#X msg 838 1594 rectangle \$1;
#X obj 811 1257 glsl_fragment;
#X obj 899 1279 change;
#X floatatom 899 1302 2 0 0 0 ID - - 0;
#X obj 899 1321 pack 0 0;
#X msg 899 1368 link \$1 \$2;
#X msg 935 1177 open \$1.frag;
#X obj 903 1140 t s s;
#X msg 825 1177 open \$1.vert;
#X msg 903 1120 symbol shader/P_distord;
#X floatatom 1076 1310 5 0 0 0 - - - 0;
#X obj 1076 1332 / 100;
#X obj 811 1671 sphere 0.3;
#X msg 1158 1477 draw line;
#X msg 1165 1500 draw fill;
#X msg 1171 1521 draw point;
#X obj 668 536 / 100;
#X floatatom 811 529 5 0 0 0 - - - 0;
#X obj 811 551 / 100;
#X obj 752 536 / 100;
#X floatatom 668 503 5 0 0 0 - - - 0;
#X floatatom 747 503 5 0 0 0 - - - 0;
#X obj 359 149 separator;
#X floatatom 437 192 5 0 0 0 - - - 0;
#X obj 429 226 / 100;
#X floatatom 492 195 5 0 0 0 - - - 0;
#X obj 484 229 / 100;
#X floatatom 568 189 5 0 0 0 - - - 0;
#X obj 560 223 / 100;
#X floatatom 435 313 5 0 0 0 - - - 0;
#X floatatom 490 316 5 0 0 0 - - - 0;
#X floatatom 566 310 5 0 0 0 - - - 0;
#X obj 356 105 rotateXYZ 0 0 90;
#X obj 812 1506 pix_image ./textures/1.png;
#X msg 1504 1487 open textures/2.png;
#X msg 1511 1459 open textures/3.png;
#X msg 1503 1517 open textures/1.png;
#X obj 310 1579 translateXYZ 0.05 0 0;
#X obj 260 24 inlet;
#X obj 535 79 metro 11;
#N canvas 117 666 450 300 movement 0;
#X obj 39 113 i;
#X obj 81 112 + 1;
#X obj 36 230 outlet;
#X obj 28 29 inlet;
#X connect 0 0 1 0;
#X connect 0 0 2 0;
#X connect 1 0 0 1;
#X connect 3 0 0 0;
#X restore 531 118 pd movement;
#X obj 428 25 inlet;
#X obj 581 16 inlet;
#X obj 960 295 inlet;
#X obj 1131 558 inlet;
#X obj 1265 1203 i;
#X obj 1307 1202 + 1;
#X obj 1253 1076 bng 20 250 50 0 empty empty empty 0 -10 0 12 #fcfcfc #000000 #000000;
#X floatatom 1264 1229 5 0 0 0 - - - 0;
#X obj 1264 1253 % 3;
#X floatatom 1264 1284 5 0 0 0 - - - 0;
#X obj 1264 1308 sel 0 1 2, f 24;
#X obj 1245 1354 bng 20 250 50 0 empty empty empty 0 -10 0 12 #fcfcfc #000000 #000000;
#X obj 1308 1377 bng 20 250 50 0 empty empty empty 0 -10 0 12 #fcfcfc #000000 #000000;
#X obj 1373 1372 bng 20 250 50 0 empty empty empty 0 -10 0 12 #fcfcfc #000000 #000000;
#X obj 1442 1382 bng 20 250 50 0 empty empty empty 0 -10 0 12 #fcfcfc #000000 #000000;
#X obj 1246 806 inlet;
#X obj 1545 1200 i;
#X obj 1587 1199 + 1;
#X obj 1533 1073 bng 20 250 50 0 empty empty empty 0 -10 0 12 #fcfcfc #000000 #000000;
#X floatatom 1544 1226 5 0 0 0 - - - 0;
#X obj 1544 1250 % 3;
#X floatatom 1544 1281 5 0 0 0 - - - 0;
#X obj 1544 1305 sel 0 1 2, f 24;
#X obj 1525 1351 bng 20 250 50 0 empty empty empty 0 -10 0 12 #fcfcfc #000000 #000000;
#X obj 1588 1374 bng 20 250 50 0 empty empty empty 0 -10 0 12 #fcfcfc #000000 #000000;
#X obj 1653 1369 bng 20 250 50 0 empty empty empty 0 -10 0 12 #fcfcfc #000000 #000000;
#X obj 1722 1379 bng 20 250 50 0 empty empty empty 0 -10 0 12 #fcfcfc #000000 #000000;
#X obj 1526 803 inlet;
#X obj 323 30 inlet;
#X obj 159 98 spigot;
#X connect 2 0 17 0;
#X connect 3 0 12 0;
#X connect 4 0 23 0;
#X connect 4 1 6 0;
#X connect 6 0 7 0;
#X connect 6 1 8 0;
#X connect 7 0 8 0;
#X connect 8 0 31 0;
#X connect 8 1 32 0;
#X connect 11 0 4 0;
#X connect 12 0 11 0;
#X connect 12 1 25 0;
#X connect 13 0 41 0;
#X connect 14 0 3 0;
#X connect 17 0 13 1;
#X connect 17 0 88 1;
#X connect 18 0 2 0;
#X connect 19 0 18 0;
#X connect 23 0 6 0;
#X connect 24 0 13 0;
#X connect 26 0 15 0;
#X connect 26 0 27 0;
#X connect 27 0 16 0;
#X connect 28 0 0 0;
#X connect 29 0 1 0;
#X connect 30 0 24 1;
#X connect 30 0 26 1;
#X connect 30 0 27 1;
#X connect 30 0 28 1;
#X connect 30 0 29 1;
#X connect 31 0 32 0;
#X connect 32 0 24 0;
#X connect 32 1 26 0;
#X connect 32 2 27 0;
#X connect 32 3 28 0;
#X connect 32 4 29 0;
#X connect 33 0 39 0;
#X connect 34 0 84 0;
#X connect 34 1 47 0;
#X connect 35 0 37 0;
#X connect 36 0 34 0;
#X connect 37 0 55 1;
#X connect 39 0 52 0;
#X connect 39 1 35 0;
#X connect 40 0 49 0;
#X connect 41 0 39 0;
#X connect 42 0 51 0;
#X connect 43 0 45 0;
#X connect 44 0 42 0;
#X connect 45 0 34 0;
#X connect 46 0 60 0;
#X connect 47 0 50 0;
#X connect 48 0 44 0;
#X connect 49 0 63 0;
#X connect 50 0 43 0;
#X connect 51 0 40 0;
#X connect 52 0 34 0;
#X connect 52 1 53 0;
#X connect 53 0 54 0;
#X connect 54 0 55 0;
#X connect 55 0 56 0;
#X connect 56 0 34 0;
#X connect 56 0 38 0;
#X connect 57 0 52 0;
#X connect 58 0 59 0;
#X connect 58 1 57 0;
#X connect 59 0 39 0;
#X connect 60 0 58 0;
#X connect 61 0 62 0;
#X connect 62 0 43 0;
#X connect 63 0 88 0;
#X connect 64 0 63 0;
#X connect 65 0 63 0;
#X connect 66 0 63 0;
#X connect 67 0 13 1;
#X connect 68 0 69 0;
#X connect 69 0 13 3;
#X connect 70 0 13 2;
#X connect 71 0 67 0;
#X connect 72 0 70 0;
#X connect 73 0 14 0;
#X connect 74 0 75 0;
#X connect 75 0 14 1;
#X connect 76 0 77 0;
#X connect 77 0 14 2;
#X connect 78 0 79 0;
#X connect 79 0 14 3;
#X connect 80 0 3 1;
#X connect 81 0 3 2;
#X connect 82 0 3 3;
#X connect 83 0 73 0;
#X connect 84 0 40 0;
#X connect 85 0 84 0;
#X connect 86 0 84 0;
#X connect 87 0 84 0;
#X connect 89 0 121 0;
#X connect 90 0 91 0;
#X connect 91 0 83 1;
#X connect 91 0 83 2;
#X connect 91 0 83 3;
#X connect 91 0 16 1;
#X connect 91 0 16 2;
#X connect 91 0 16 3;
#X connect 91 0 15 1;
#X connect 91 0 15 2;
#X connect 91 0 15 3;
#X connect 92 0 90 0;
#X connect 93 0 90 1;
#X connect 94 0 2 0;
#X connect 95 0 61 0;
#X connect 96 0 97 0;
#X connect 96 0 99 0;
#X connect 97 0 96 1;
#X connect 98 0 96 0;
#X connect 99 0 100 0;
#X connect 100 0 101 0;
#X connect 101 0 102 0;
#X connect 102 0 103 0;
#X connect 102 1 104 0;
#X connect 102 2 105 0;
#X connect 102 3 106 0;
#X connect 103 0 64 0;
#X connect 104 0 65 0;
#X connect 105 0 66 0;
#X connect 107 0 98 0;
#X connect 108 0 109 0;
#X connect 108 0 111 0;
#X connect 109 0 108 1;
#X connect 110 0 108 0;
#X connect 111 0 112 0;
#X connect 112 0 113 0;
#X connect 113 0 114 0;
#X connect 114 0 115 0;
#X connect 114 1 116 0;
#X connect 114 2 117 0;
#X connect 114 3 118 0;
#X connect 115 0 86 0;
#X connect 116 0 85 0;
#X connect 117 0 87 0;
#X connect 119 0 110 0;
#X connect 120 0 121 1;
#X connect 121 0 83 0;
#X restore 228 732 pd spikey_thing;
#X f 39;
#X obj 276 696 tgl 20 0 empty empty empty 0 -10 0 12 #fcfcfc #000000 #000000 0 1;
#X floatatom 328 694 5 0 0 0 - - - 0;
#X floatatom 386 691 5 0 0 0 - - - 0;
#X floatatom 431 689 5 0 0 0 - - - 0;
#X obj 359 472 tgl 20 0 empty empty empty 0 -10 0 12 #fcfcfc #000000 #000000 0 1;
#N canvas 476 227 997 728 particle_system 0;
#X obj 103 160 part_head;
#X text 327 187 the velocity domain;
#X text 326 202 a sphere at 0 \, 0.2 \, 0;
#X text 327 221 radius = 0.3;
#X msg 302 247 0 0.2 0 0.3;
#X msg 413 247 0.2 0 0 0.3;
#X obj 107 410 part_render;
#X obj 107 208 part_size 1;
#X msg 197 185 2;
#X obj 107 284 part_color;
#X msg 130 230 1 0 0;
#X obj 107 341 part_source 5;
#X msg 142 258 0 1 0;
#X msg 167 184 1;
#X obj 107 311 part_velocity sphere 0 0.02 0 0.03;
#X obj 107 372 part_killold 100;
#X obj 105 564 pix_texture;
#X floatatom 198 603 5 0 0 0 - - - 0;
#X obj 198 625 / 100;
#X obj 106 646 cube 0.1, f 12;
#X msg 190 715 draw line;
#X msg 197 738 draw fill;
#X msg 203 759 draw point;
#X obj 112 124 separator;
#X obj 40 33 inlet;
#X text 433 310 <domain>: one of "point" \, "line" \, "triangle" \, "plane" \, "box" \, "sphere" \, "cylinder" \, "cone" \, "blob" \, "disc" \, "rectangle";
#X text 432 351 <arguments>: up to 9 floats \, defining the specified domain (like "x y z" for "point" \, "x1 y1 z1 x2 y2 z2" for "line" \, "x y z r" for "sphere" \, ...). The meaning of the arguments depends -of course- on the domain.;
#X msg 548 105 symbol sphere;
#X msg 536 229 0 0.1 0 0.1;
#X msg 535 203 0.1 -0.1 0 0.05;
#X text 535 187 arguments;
#X obj 560 704 rotateXYZ 0 0 90;
#X obj 586 553 metro 11;
#X obj 586 466 tgl 20 0 empty empty empty 0 -10 0 12 #fcfcfc #000000 #000000 0 1;
#N canvas 117 666 450 300 movement 0;
#X obj 39 113 i;
#X obj 81 112 + 1;
#X obj 36 230 outlet;
#X obj 28 29 inlet;
#X connect 0 0 1 0;
#X connect 0 0 2 0;
#X connect 1 0 0 1;
#X connect 3 0 0 0;
#X restore 591 597 pd movement;
#N canvas 117 666 450 300 movement 0;
#X obj 39 113 i;
#X obj 81 112 + 1;
#X obj 36 230 outlet;
#X obj 28 29 inlet;
#X connect 0 0 1 0;
#X connect 0 0 2 0;
#X connect 1 0 0 1;
#X connect 3 0 0 0;
#X restore 625 623 pd movement;
#N canvas 117 666 450 300 movement 0;
#X obj 39 113 i;
#X obj 81 112 + 1;
#X obj 36 230 outlet;
#X obj 28 29 inlet;
#X connect 0 0 1 0;
#X connect 0 0 2 0;
#X connect 1 0 0 1;
#X connect 3 0 0 0;
#X restore 660 656 pd movement;
#X floatatom 685 519 5 0 0 0 - - - 0;
#X msg 561 136 symbol cone;
#X obj 889 295 i;
#X obj 931 294 + 1;
#X obj 877 168 bng 20 250 50 0 empty empty empty 0 -10 0 12 #fcfcfc #000000 #000000;
#X floatatom 888 321 5 0 0 0 - - - 0;
#X obj 888 345 % 3;
#X floatatom 888 376 5 0 0 0 - - - 0;
#X obj 888 400 sel 0 1 2, f 24;
#X obj 869 446 bng 20 250 50 0 empty empty empty 0 -10 0 12 #fcfcfc #000000 #000000;
#X obj 932 469 bng 20 250 50 0 empty empty empty 0 -10 0 12 #fcfcfc #000000 #000000;
#X obj 997 464 bng 20 250 50 0 empty empty empty 0 -10 0 12 #fcfcfc #000000 #000000;
#X obj 869 99 inlet;
#X obj 191 35 inlet;
#X obj 150 81 spigot;
#X msg 291 453 open textures/3.png;
#X msg 283 482 open textures/2.png;
#X msg 282 512 open textures/1.png;
#X obj 104 475 pix_image textures/1.png;
#X connect 0 0 7 0;
#X connect 4 0 14 2;
#X connect 5 0 14 2;
#X connect 6 0 55 0;
#X connect 7 0 9 0;
#X connect 8 0 7 1;
#X connect 9 0 14 0;
#X connect 10 0 9 1;
#X connect 11 0 15 0;
#X connect 12 0 9 2;
#X connect 13 0 7 1;
#X connect 14 0 11 0;
#X connect 15 0 6 0;
#X connect 16 0 31 0;
#X connect 17 0 18 0;
#X connect 18 0 19 1;
#X connect 20 0 19 0;
#X connect 21 0 19 0;
#X connect 22 0 19 0;
#X connect 23 0 0 0;
#X connect 24 0 51 0;
#X connect 27 0 14 1;
#X connect 28 0 14 2;
#X connect 31 0 19 0;
#X connect 32 0 34 0;
#X connect 32 0 35 0;
#X connect 32 0 36 0;
#X connect 33 0 32 0;
#X connect 34 0 31 1;
#X connect 35 0 31 2;
#X connect 36 0 31 3;
#X connect 37 0 32 1;
#X connect 38 0 14 1;
#X connect 39 0 40 0;
#X connect 39 0 42 0;
#X connect 40 0 39 1;
#X connect 41 0 39 0;
#X connect 42 0 43 0;
#X connect 43 0 44 0;
#X connect 44 0 45 0;
#X connect 45 0 46 0;
#X connect 45 1 47 0;
#X connect 45 2 48 0;
#X connect 46 0 52 0;
#X connect 47 0 53 0;
#X connect 48 0 54 0;
#X connect 49 0 41 0;
#X connect 50 0 51 1;
#X connect 51 0 23 0;
#X connect 52 0 53 0;
#X connect 52 0 55 0;
#X connect 53 0 55 0;
#X connect 54 0 55 0;
#X connect 55 0 16 0;
#X restore 123 1157 pd particle_system;
#X obj 155 1039 rotateXYZ 0 0 90;
#X obj 713 405 tgl 20 0 empty empty empty 0 -10 0 12 #fcfcfc #000000 #000000 0 1;
#X obj 615 747 tgl 20 0 empty empty empty 0 -10 0 12 #fcfcfc #000000 #000000 0 1;
#X floatatom 712 762 5 0 0 0 - - - 0;
#N canvas 225 340 667 458 movement_effect 0;
#X obj 42 173 outlet;
#X obj 43 117 inlet;
#N canvas 565 255 787 662 togglefx 0;
#X obj 89 290 outlet;
#X obj 36 37 inlet;
#X obj 121 172 spigot 1;
#X obj 32 245 spigot 0;
#X msg 127 94 0 1;
#X msg 165 94 1 0;
#X obj 122 125 unpack 0 0;
#X obj 124 37 inlet;
#X obj 189 297 outlet;
#X obj 237 27 inlet;
#X obj 299 58 loadbang;
#X obj 124 68 route 0 1;
#X connect 1 0 3 0;
#X connect 1 0 2 0;
#X connect 2 0 8 0;
#X connect 3 0 0 0;
#X connect 4 0 6 0;
#X connect 5 0 6 0;
#X connect 6 0 3 1;
#X connect 6 1 2 1;
#X connect 7 0 11 0;
#X connect 9 0 0 0;
#X connect 10 0 4 0;
#X connect 11 0 4 0;
#X connect 11 1 5 0;
#X restore 43 143 pd togglefx;
#X obj 95 57 inlet;
#X floatatom 322 130 3 0 100 2 lo_threshold - - 0;
#X obj 321 146 / 100;
#X obj 278 172 pix_movement2;
#X floatatom 376 151 3 0 100 2 threshold - - 0;
#X obj 375 167 / 100;
#X obj 277 64 pix_2grey;
#X connect 1 0 2 0;
#X connect 2 0 0 0;
#X connect 2 1 9 0;
#X connect 3 0 2 1;
#X connect 4 0 5 0;
#X connect 5 0 6 1;
#X connect 6 0 2 2;
#X connect 7 0 8 0;
#X connect 8 0 6 2;
#X connect 9 0 6 0;
#X restore 590 429 pd movement_effect;
#N canvas 425 264 544 372 lumaofset_effect 0;
#X obj 42 173 outlet;
#X obj 43 117 inlet;
#N canvas 565 255 787 662 togglefx 0;
#X obj 89 290 outlet;
#X obj 36 37 inlet;
#X obj 121 172 spigot 1;
#X obj 32 245 spigot 0;
#X msg 127 94 0 1;
#X msg 165 94 1 0;
#X obj 122 125 unpack 0 0;
#X obj 124 37 inlet;
#X obj 189 297 outlet;
#X obj 237 27 inlet;
#X obj 299 58 loadbang;
#X obj 124 68 route 0 1;
#X connect 1 0 3 0;
#X connect 1 0 2 0;
#X connect 2 0 8 0;
#X connect 3 0 0 0;
#X connect 4 0 6 0;
#X connect 5 0 6 0;
#X connect 6 0 3 1;
#X connect 6 1 2 1;
#X connect 7 0 11 0;
#X connect 9 0 0 0;
#X connect 10 0 4 0;
#X connect 11 0 4 0;
#X connect 11 1 5 0;
#X restore 43 143 pd togglefx;
#X obj 95 57 inlet;
#X obj 157 43 inlet;
#X obj 201 171 pix_lumaoffset;
#X floatatom 246 113 5 0 0 2 offset - - 0;
#X floatatom 294 116 5 0 0 2 gap - - 0;
#X obj 283 133 tgl 15 0 empty empty empty 0 -6 0 8 #fcfcfc #000000 #000000 0 1;
#X msg 283 151 smooth \$1;
#X msg 215 150 fill \$1;
#X obj 215 132 tgl 15 0 empty empty empty 0 -6 0 8 #fcfcfc #000000 #000000 0 1;
#X obj 210 45 inlet;
#X obj 266 44 inlet;
#X connect 1 0 2 0;
#X connect 2 0 0 0;
#X connect 2 1 5 0;
#X connect 3 0 2 1;
#X connect 4 0 11 0;
#X connect 5 0 2 2;
#X connect 6 0 5 1;
#X connect 7 0 5 2;
#X connect 8 0 9 0;
#X connect 9 0 5 0;
#X connect 10 0 5 0;
#X connect 11 0 10 0;
#X connect 12 0 6 0;
#X connect 13 0 7 0;
#X restore 576 786 pd lumaofset_effect;
#X obj 646 741 tgl 20 0 empty empty empty 0 -10 0 12 #fcfcfc #000000 #000000 0 1;
#X obj 604 1035 tgl 20 0 empty empty empty 0 -10 0 12 #fcfcfc #000000 #000000 0 1;
#N canvas 743 479 450 300 gain_effect 0;
#X obj 42 173 outlet;
#X obj 43 117 inlet;
#N canvas 569 279 787 662 togglefx 0;
#X obj 89 290 outlet;
#X obj 36 37 inlet;
#X obj 121 172 spigot 1;
#X obj 32 245 spigot 0;
#X msg 127 94 0 1;
#X msg 165 94 1 0;
#X obj 122 125 unpack 0 0;
#X obj 124 37 inlet;
#X obj 189 297 outlet;
#X obj 237 27 inlet;
#X obj 299 58 loadbang;
#X obj 124 68 route 0 1;
#X connect 1 0 3 0;
#X connect 1 0 2 0;
#X connect 2 0 8 0;
#X connect 3 0 0 0;
#X connect 4 0 6 0;
#X connect 5 0 6 0;
#X connect 6 0 3 1;
#X connect 6 1 2 1;
#X connect 7 0 11 0;
#X connect 9 0 0 0;
#X connect 10 0 4 0;
#X connect 11 0 4 0;
#X connect 11 1 5 0;
#X restore 43 143 pd togglefx;
#X floatatom 151 76 5 0 0 0 - - - 0;
#X obj 95 57 inlet;
#X obj 157 43 inlet;
#X obj 142 177 pix_gain;
#X msg 267 124 saturate \$1;
#X obj 272 94 tgl 18 0 empty empty empty 0 -9 0 10 #fcfcfc #000000 #000000 0 1;
#X connect 1 0 2 0;
#X connect 2 0 0 0;
#X connect 2 1 6 0;
#X connect 3 0 6 1;
#X connect 4 0 2 1;
#X connect 5 0 3 0;
#X connect 6 0 2 2;
#X connect 7 0 6 0;
#X connect 8 0 7 0;
#X restore 565 1074 pd gain_effect;
#X obj 183 1125 tgl 20 0 empty empty empty 0 -10 0 12 #fcfcfc #000000 #000000 0 1;
#X obj 474 656 bng 20 250 50 0 empty empty empty 0 -10 0 12 #fcfcfc #000000 #000000;
#X obj 516 659 bng 20 250 50 0 empty empty empty 0 -10 0 12 #fcfcfc #000000 #000000;
#X obj 260 1129 bng 20 250 50 0 empty empty empty 0 -10 0 12 #fcfcfc #000000 #000000;
#X obj 65 407 i;
#X floatatom 58 423 5 0 0 0 - - - 0;
#X obj 105 407 + 1;
#X obj 20 321 outlet;
#X obj 158 431 loadbang;
#X msg 158 456 1;
#X obj 439 600 line;
#X floatatom 439 625 5 0 0 0 - - - 0;
#X msg 480 580 0 5000;
#X msg 437 556 50 5000;
#X obj 219 813 bng 20 250 50 0 empty empty empty 0 -10 0 12 #fcfcfc #000000 #000000;
#X obj 200 889 random 300;
#X obj 231 926 bng 20 250 50 0 empty empty empty 0 -10 0 12 #fcfcfc #000000 #000000;
#X obj 230 983 random 300;
#X obj 293 901 bng 20 250 50 0 empty empty empty 0 -10 0 12 #fcfcfc #000000 #000000;
#X obj 292 946 random 300;
#X obj 681 73 random 100;
#X obj 681 123 sel 1;
#X obj 681 48 r clock;
#X obj 681 98 > 95;
#X obj 637 566 tgl 20 0 empty empty empty 0 -10 0 12 #fcfcfc #000000 #000000 0 1;
#X obj 785 51 i;
#X obj 827 50 + 1;
#X obj 112 614 separator;
#X floatatom 691 963 5 0 0 0 - - - 0;
#X obj 177 629 separator;
#X floatatom 705 550 5 0 0 0 - - - 0;
#X obj 47 1115 sphere;
#X msg 35 577 draw line;
#X obj 276 18 inlet;
#X obj 322 18 inlet;
#X obj 368 18 inlet;
#X obj 414 18 inlet;
#X obj 461 20 inlet;
#X obj 273 48 bng 20 250 50 0 empty empty empty 0 -10 0 12 #fcfcfc #000000 #000000;
#X floatatom 322 133 5 0 0 0 - - - 0;
#X floatatom 368 134 5 0 0 0 - - - 0;
#X obj 274 204 random 100;
#X obj 274 254 sel 1;
#X obj 274 229 > 95;
#X floatatom 614 676 5 0 0 0 - - - 0;
#X floatatom 660 677 5 0 0 0 - - - 0;
#X obj 660 701 * 900;
#X obj 685 1002 * 20;
#X obj 685 1027 - 10;
#X connect 0 0 2 0;
#X connect 1 0 4 0;
#X connect 1 1 54 0;
#X connect 1 1 76 0;
#X connect 2 0 1 0;
#X connect 3 0 14 0;
#X connect 3 0 32 0;
#X connect 4 0 15 0;
#X connect 4 1 5 0;
#X connect 5 0 15 0;
#X connect 6 0 18 0;
#X connect 6 1 7 0;
#X connect 7 0 18 1;
#X connect 8 0 20 0;
#X connect 8 1 9 0;
#X connect 9 0 20 1;
#X connect 10 0 11 0;
#X connect 12 0 11 1;
#X connect 13 0 11 2;
#X connect 14 0 0 0;
#X connect 15 0 6 0;
#X connect 16 0 0 0;
#X connect 17 0 8 0;
#X connect 20 0 42 0;
#X connect 21 0 12 0;
#X connect 22 0 13 0;
#X connect 23 0 21 0;
#X connect 24 0 22 0;
#X connect 25 0 27 2;
#X connect 26 0 27 0;
#X connect 27 0 29 0;
#X connect 28 0 27 1;
#X connect 29 0 51 0;
#X connect 30 0 43 0;
#X connect 32 0 31 2;
#X connect 33 0 31 3;
#X connect 34 0 31 4;
#X connect 35 0 31 5;
#X connect 36 0 31 1;
#X connect 38 0 37 0;
#X connect 38 0 78 0;
#X connect 39 0 42 1;
#X connect 40 0 43 1;
#X connect 41 0 43 3;
#X connect 42 0 30 0;
#X connect 43 0 46 0;
#X connect 44 0 43 2;
#X connect 45 0 46 1;
#X connect 46 0 10 0;
#X connect 47 0 37 1;
#X connect 48 0 31 6;
#X connect 49 0 31 7;
#X connect 50 0 37 2;
#X connect 51 0 52 0;
#X connect 51 0 53 0;
#X connect 52 0 27 1;
#X connect 53 0 51 1;
#X connect 55 0 56 0;
#X connect 56 0 25 0;
#X connect 57 0 58 0;
#X connect 58 0 35 0;
#X connect 59 0 57 0;
#X connect 60 0 57 0;
#X connect 61 0 62 0;
#X connect 61 0 63 0;
#X connect 61 0 65 0;
#X connect 62 0 38 1;
#X connect 63 0 64 0;
#X connect 64 0 38 2;
#X connect 65 0 66 0;
#X connect 66 0 38 3;
#X connect 67 0 70 0;
#X connect 69 0 67 0;
#X connect 70 0 68 0;
#X connect 71 0 30 1;
#X connect 72 0 73 0;
#X connect 73 0 72 1;
#X connect 74 0 31 0;
#X connect 75 0 94 0;
#X connect 76 0 38 0;
#X connect 76 0 31 0;
#X connect 77 0 30 2;
#X connect 79 0 78 0;
#X connect 80 0 85 0;
#X connect 81 0 86 0;
#X connect 82 0 87 0;
#X connect 83 0 91 0;
#X connect 84 0 92 0;
#X connect 85 0 88 0;
#X connect 86 0 33 0;
#X connect 87 0 34 0;
#X connect 88 0 90 0;
#X connect 89 0 61 0;
#X connect 90 0 89 0;
#X connect 91 0 75 0;
#X connect 92 0 93 0;
#X connect 93 0 41 0;
#X connect 94 0 95 0;
#X connect 95 0 46 2;
#X restore 494 105 pd visuals;
#X f 20;
#X obj 133 252 pdcontrol;
#X msg 133 224 dir;
#X obj 133 197 bng 15 250 50 0 empty empty empty 17 7 0 10 #fcfcfc #000000 #000000;
#X obj 172 199 loadbang;
#X obj 24 307 playdir2~;
#X msg 132 279 \$1/sounds/kicks;
#X obj 25 349 *~ 1.5;
#N canvas 218 27 1220 920 audio 1;
#X msg 583 -124 1;
#X msg 595 -100 0;
#X text 611 -124 freeze;
#X text 627 -100 unfreeze;
#X obj 395 -77 else/pvoc.freeze~;
#X obj 397 -274 hsl 128 15 20 44100 1 0 empty empty empty -2 -8 0 10 #dcdcdc #000000 #000000 0 1;
#X obj 394 -245 nbx 8 14 -1e+37 1e+37 0 0 empty empty empty 0 -8 0 10 #dcdcdc #000000 #000000 0 256;
#X text 407 -280 frequency in Hz;
#X obj 394 -219 else/stepnoise~ 400;
#X obj 582 -248 random 100;
#X obj 582 -223 > 80;
#X obj 582 -173 bng 20 250 50 0 empty empty empty 0 -10 0 12 #fcfcfc #000000 #000000;
#X obj 615 -174 bng 20 250 50 0 empty empty empty 0 -10 0 12 #fcfcfc #000000 #000000;
#X obj 583 -273 metro 200;
#X obj 582 -300 tgl 20 0 empty empty empty 0 -10 0 12 #fcfcfc #000000 #000000 0 1;
#X obj 582 -198 sel 1;
#X floatatom 657 -318 5 0 0 0 - - - 0;
#X obj 490 145 hsl 128 15 10 44100 1 0 empty empty empty -2 -8 0 10 #dcdcdc #000000 #000000 0 1;
#X obj 487 169 nbx 8 14 -1e+37 1e+37 0 0 empty empty empty 0 -8 0 10 #dcdcdc #000000 #000000 0 256;
#X obj 394 193 else/downsample~;
#X floatatom 534 12 8 1 10000 0 - - - 0;
#X obj 537 -9 hsl 128 15 0 1 0 0 empty empty empty -2 -8 0 10 #dcdcdc #000000 #000000 0 1;
#X floatatom 603 44 8 1 10000 0 - - - 0;
#X obj 606 23 hsl 128 15 0 1 0 0 empty empty empty -2 -8 0 10 #dcdcdc #000000 #000000 0 1;
#X text 544 -9 bit crushing (0-1);
#X text 621 23 decimation (0-1);
#X obj 534 32 else/f2s~;
#X obj 603 65 else/f2s~;
#X obj 395 101 else/crush~;
#X obj 120 581 else/out~;
#X floatatom 434 379 8 0 0 0 - - - 0;
#X text 381 380 (MIDI);
#X obj 434 351 sigmund~ -hop 4096 pitch env evenness quality;
#X obj 259 491 bonk~;
#X obj 259 516 bng 20 250 50 0 empty empty empty 0 -10 0 12 #fcfcfc #000000 #000000;
#X msg 297 455 thresh 0.5 9;
#X obj 258 547 outlet;
#X obj 430 548 outlet;
#X floatatom 532 377 8 0 0 0 - - - 0;
#X floatatom 642 377 8 0 0 0 - - - 0;
#X floatatom 737 379 8 0 0 0 - - - 0;
#X obj 534 550 outlet;
#X obj 639 550 outlet;
#X obj 741 548 outlet;
#N canvas 281 187 630 372 spectrolog 0;
#N canvas 556 61 872 789 FFT_Analyse 0;
#X obj 101 102 inlet~;
#X obj 101 332 *~;
#X obj 132 331 *~;
#X obj 101 356 +~;
#X obj 102 377 powtodb~;
#N canvas 0 22 346 535 init_input_window 0;
#X obj 73 217 / 10;
#X obj 55 278 line 0 0.1;
#X msg 119 246 0;
#X obj 54 176 t f f b;
#X obj 54 239 pack;
#X obj 55 301 t f f;
#X obj 54 152 - 1;
#X obj 74 114 t f f;
#X obj 55 359 * 3.14159;
#X obj 55 381 sin;
#X msg 55 401 \$1 \$1;
#X obj 55 423 *;
#X text 119 334 0...0.99;
#X text 128 359 0...pi;
#X text 79 423 hanning;
#X msg 55 88 4096;
#X obj 100 88 f 4096;
#X obj 99 60 bng 15 250 50 0 empty empty empty 0 -6 0 8 #fcfcfc #000000 #000000;
#X obj 99 39 loadbang;
#X obj 74 333 / 4096;
#X obj 55 448 tabwrite \$0-window;
#X text 86 381 half-sine;
#X connect 0 0 4 1;
#X connect 1 0 5 0;
#X connect 2 0 1 0;
#X connect 3 0 4 0;
#X connect 3 1 0 0;
#X connect 3 2 2 0;
#X connect 4 0 1 0;
#X connect 5 0 19 0;
#X connect 5 1 20 1;
#X connect 6 0 3 0;
#X connect 7 0 6 0;
#X connect 7 1 19 1;
#X connect 8 0 9 0;
#X connect 9 0 10 0;
#X connect 10 0 11 0;
#X connect 11 0 20 0;
#X connect 15 0 7 0;
#X connect 16 0 7 0;
#X connect 17 0 16 0;
#X connect 18 0 17 0;
#X connect 19 0 8 0;
#X restore 161 276 pd init_input_window;
#N canvas 0 22 450 300 (subpatch) 0;
#X array \$0-lin_scope 2048 float 0;
#A color 0;
#A width 1;
#X coords 0 100 2047 0 200 140 1;
#X restore 110 621 graph;
#N canvas 0 22 822 328 init_norm 0;
#X obj 43 230 outlet;
#X obj 43 187 - 100;
#X floatatom 43 208 9 0 0 0 - - - 0;
#X text 108 169 leistung - techn. dB;
#X msg 43 69 4096;
#X obj 80 68 f 4096;
#X obj 80 47 bng 15 250 50 0 empty empty empty 0 -6 0 8 #fcfcfc #000000 #000000;
#X obj 80 26 loadbang;
#X obj 43 167 rmstodb;
#X obj 43 110 / 4;
#X text 74 103 faktor 2 wegen hanning;
#X text 74 114 weiterer faktor 2 \, weil wir nur die;
#X text 73 124 erste haelfte des konjungiert komplexen spektrum sehen;
#X text 108 135 bzw. bearbeiten \, somit nur die haelfte der spektralen energie;
#X connect 1 0 2 0;
#X connect 2 0 0 0;
#X connect 4 0 9 0;
#X connect 5 0 9 0;
#X connect 6 0 5 0;
#X connect 7 0 6 0;
#X connect 8 0 1 0;
#X connect 9 0 8 0;
#X restore 153 421 pd init_norm;
#X obj 100 231 *~;
#X obj 102 443 -~ 60.206;
#X obj 113 517 *~ 0.98;
#X obj 100 539 +~;
#X obj 101 471 *~ 0.02;
#X msg 314 481 1 \$1;
#X obj 314 502 -;
#X obj 314 458 clip 0 1;
#X obj 314 437 / 100;
#X floatatom 314 413 5 0.5 100 0 - - - 0;
#X obj 333 366 loadbang;
#X obj 100 277 fft~;
#X obj 463 557 line 0 0.1;
#X obj 463 602 / 2;
#X obj 463 622 mtof;
#X msg 463 536 6 \, 273 26.7;
#X obj 463 580 t f f;
#X obj 494 602 - 6;
#X obj 463 642 / 44100;
#X obj 463 663 * 4096;
#X msg 656 633 6;
#X obj 656 653 / 2;
#X obj 656 673 mtof;
#X floatatom 656 693 9 0 0 0 - - - 0;
#X text 723 694 Hz;
#X obj 754 654 / 2;
#X obj 754 673 mtof;
#X floatatom 754 693 9 0 0 0 - - - 0;
#X text 822 693 Hz;
#X msg 754 634 273;
#X obj 656 612 t b b;
#X obj 463 498 tgl 15 0 empty empty empty 0 -6 0 8 #fcfcfc #000000 #000000 0 1;
#X obj 463 458 loadbang;
#X msg 463 478 1;
#X obj 656 592 loadbang;
#X obj 468 245 loadbang;
#X obj 703 102 inlet;
#X obj 130 253 table \$0-window 4096;
#X obj 137 214 tabreceive~ \$0-window;
#X text 353 403 temporal lowpass;
#X text 355 415 parameter between 0 .. 100 %;
#X text 23 23 spectrum~;
#X text 120 23 draws the power of a spectrum in a logarithmic scale;
#X text 118 36 (by Thomas Musil);
#X obj 113 496 tabreceive~ \$0-lin_scope;
#X obj 100 564 tabsend~ \$0-lin_scope;
#X obj 463 685 tabread4 \$0-lin_scope;
#X obj 468 267 f \$0;
#X text 553 536 transformation to log scale;
#X msg 333 385 100;
#X obj 314 341 max 0.5;
#X obj 314 319 min 100;
#X obj 440 107 inlet;
#X text 96 81 audio sig;
#X text 700 81 ON/OFF;
#X text 427 86 (0 .. 100);
#X text 408 72 temporal lowpass;
#X obj 533 244 bng 15 250 50 0 empty empty empty 0 -6 0 8 #fcfcfc #000000 #000000;
#X obj 463 735 tabwrite \$0-s;
#X msg 468 296 \; \$1-s xticks 0 12 2;
#X msg 491 330 \; \$1-s yticks 0 5 2;
#X obj 462 516 metro 100;
#X obj 704 166 switch~ 4096 2;
#X obj 463 711 clip 0 100;
#X obj 773 101 loadbang;
#X msg 773 123 1;
#X connect 0 0 8 0;
#X connect 1 0 3 0;
#X connect 2 0 3 1;
#X connect 3 0 4 0;
#X connect 4 0 9 0;
#X connect 7 0 9 1;
#X connect 8 0 19 0;
#X connect 9 0 12 0;
#X connect 10 0 11 1;
#X connect 11 0 53 0;
#X connect 12 0 11 0;
#X connect 13 0 14 0;
#X connect 14 0 10 1;
#X connect 15 0 13 0;
#X connect 15 0 12 1;
#X connect 16 0 15 0;
#X connect 17 0 16 0;
#X connect 18 0 57 0;
#X connect 19 0 1 0;
#X connect 19 0 1 1;
#X connect 19 1 2 0;
#X connect 19 1 2 1;
#X connect 20 0 24 0;
#X connect 21 0 22 0;
#X connect 22 0 26 0;
#X connect 23 0 20 0;
#X connect 24 0 21 0;
#X connect 24 1 25 0;
#X connect 25 0 66 1;
#X connect 26 0 27 0;
#X connect 27 0 54 0;
#X connect 28 0 29 0;
#X connect 29 0 30 0;
#X connect 30 0 31 0;
#X connect 33 0 34 0;
#X connect 34 0 35 0;
#X connect 37 0 33 0;
#X connect 38 0 28 0;
#X connect 38 1 37 0;
#X connect 39 0 69 0;
#X connect 40 0 41 0;
#X connect 41 0 39 0;
#X connect 42 0 38 0;
#X connect 43 0 55 0;
#X connect 44 0 70 0;
#X connect 46 0 8 1;
#X connect 52 0 10 0;
#X connect 54 0 71 0;
#X connect 55 0 67 0;
#X connect 55 0 68 0;
#X connect 57 0 17 0;
#X connect 58 0 17 0;
#X connect 59 0 58 0;
#X connect 60 0 59 0;
#X connect 65 0 55 0;
#X connect 69 0 23 0;
#X connect 71 0 66 0;
#X connect 72 0 73 0;
#X connect 73 0 70 0;
#X restore 17 320 pd FFT_Analyse;
#X obj 63 299 inlet;
#X obj 17 299 inlet~;
#X obj 110 299 inlet;
#N canvas 0 22 450 300 (subpatch) 0;
#X array \$0-s 268 float 0;
#A color 0;
#A width 1;
#X coords 0 100 267 0 267 140 1;
#X xticks 0 12 2;
#X yticks 0 5 2;
#X restore 23 27 graph;
#X obj 297 42 cnv 15 1 1 empty empty -10 0 0 0 10 #fcfcfc #000000 0;
#X obj 297 154 cnv 15 1 1 empty empty -90 0 0 0 10 #fcfcfc #000000 0;
#X obj 297 98 cnv 15 1 1 empty empty -50 0 0 0 10 #fcfcfc #000000 0;
#X obj 297 70 cnv 15 1 1 empty empty -30 0 0 0 10 #fcfcfc #000000 0;
#X obj 297 126 cnv 15 1 1 empty empty -70 0 0 0 10 #fcfcfc #000000 0;
#X obj 18 171 cnv 15 1 1 empty empty 10 0 5 0 10 #fcfcfc #000000 0;
#X obj 66 171 cnv 15 1 1 empty empty 40 0 5 0 10 #fcfcfc #000000 0;
#X obj 115 171 cnv 15 1 1 empty empty 160 0 5 0 10 #fcfcfc #000000 0;
#X obj 162 171 cnv 15 1 1 empty empty 640 0 5 0 10 #fcfcfc #000000 0;
#X obj 210 171 cnv 15 1 1 empty empty 2k56 0 5 0 10 #fcfcfc #000000 0;
#X obj 258 171 cnv 15 1 1 empty empty 10k2 0 5 0 10 #fcfcfc #000000 0;
#X obj 138 184 cnv 15 1 1 empty empty 320 0 5 0 10 #fcfcfc #000000 0;
#X obj 282 184 cnv 15 1 1 empty empty 20k5 0 5 0 10 #fcfcfc #000000 0;
#X obj 42 181 cnv 15 1 1 empty empty 20 0 9 0 10 #fcfcfc #000000 0;
#X obj 90 184 cnv 15 1 1 empty empty 80 0 5 0 10 #fcfcfc #000000 0;
#X obj 186 184 cnv 15 1 1 empty empty 1k28 0 5 0 10 #fcfcfc #000000 0;
#X obj 234 184 cnv 15 1 1 empty empty 5k12 0 5 0 10 #fcfcfc #000000 0;
#X obj 46 168 cnv 15 1 1 empty empty | 0 7 0 10 #fcfcfc #000000 0;
#X obj 94 168 cnv 15 1 1 empty empty | 0 7 0 10 #fcfcfc #000000 0;
#X obj 142 168 cnv 15 1 1 empty empty | 0 7 0 10 #fcfcfc #000000 0;
#X obj 190 168 cnv 15 1 1 empty empty | 0 7 0 10 #fcfcfc #000000 0;
#X obj 238 168 cnv 15 1 1 empty empty | 0 7 0 10 #fcfcfc #000000 0;
#X obj 286 168 cnv 15 1 1 empty empty | 0 7 0 10 #fcfcfc #000000 0;
#X connect 1 0 0 1;
#X connect 2 0 0 0;
#X connect 3 0 0 2;
#X coords 0 -1 1 1 330 210 1 0 0;
#X restore 339 621 pd spectrolog;
#X obj 395 231 *~ 0.99;
#X obj 490 237 loadbang;
#X connect 0 0 4 1;
#X connect 1 0 4 1;
#X connect 4 0 28 0;
#X connect 5 0 6 0;
#X connect 6 0 8 0;
#X connect 8 0 4 0;
#X connect 9 0 10 0;
#X connect 10 0 15 0;
#X connect 11 0 1 0;
#X connect 12 0 0 0;
#X connect 13 0 9 0;
#X connect 14 0 13 0;
#X connect 15 0 11 0;
#X connect 15 1 12 0;
#X connect 16 0 13 1;
#X connect 17 0 18 0;
#X connect 18 0 19 1;
#X connect 19 0 45 0;
#X connect 20 0 26 0;
#X connect 21 0 20 0;
#X connect 22 0 27 0;
#X connect 23 0 22 0;
#X connect 26 0 28 1;
#X connect 27 0 28 2;
#X connect 28 0 19 0;
#X connect 30 0 37 0;
#X connect 32 0 30 0;
#X connect 32 1 38 0;
#X connect 32 2 39 0;
#X connect 32 3 40 0;
#X connect 33 0 34 0;
#X connect 34 0 36 0;
#X connect 35 0 33 0;
#X connect 38 0 41 0;
#X connect 39 0 42 0;
#X connect 40 0 43 0;
#X connect 45 0 32 0;
#X connect 45 0 33 0;
#X connect 45 0 44 0;
#X connect 45 0 29 0;
#X connect 46 0 35 0;
#X restore 494 33 pd audio;
#X f 20;
#X connect 4 0 5 0;
#X connect 5 0 4 0;
#X connect 6 0 4 1;
#X connect 7 0 4 0;
#X connect 8 0 4 1;
#X connect 10 0 15 0;
#X connect 11 0 10 0;
#X connect 12 0 11 0;
#X connect 13 0 12 0;
#X connect 14 0 16 0;
#X connect 15 0 14 1;
#X connect 17 0 9 0;
#X connect 17 1 9 1;
#X connect 17 2 9 2;
#X connect 17 3 9 3;
#X connect 17 4 9 4;
