#N canvas 0 27 1920 995 12;
#X obj 583 321 b;
#X floatatom 671 323 5 0 1000 0 - - - 0;
#X floatatom 715 323 5 0 1000 0 - - - 0;
#X floatatom 759 323 5 0 1 0 - - - 0;
#X floatatom 803 323 5 0 1000 0 - - - 0;
#X obj 584 353 else/adsr~ 50 100 0.5 500, f 37;
#X obj 83 568 *~;
#X obj 446 279 hsl 128 15 0 1 0 0 empty empty empty -2 -8 0 10 #dcdcdc #000000 #000000 0 1;
#X floatatom 443 301 11 0 0 0 - - - 0;
#X text 457 276 select channels;
#X obj 443 325 else/f2s~;
#X obj 82 351 else/xselect2~ 5, f 63;
#X obj 442 41 inlet;
#X obj 85 38 inlet;
#X obj 83 593 outlet~;
#X obj 667 49 inlet;
#X obj 714 48 inlet;
#X obj 760 48 inlet;
#X obj 806 47 inlet;
#X obj 137 36 inlet;
#X obj 84 66 f;
#X obj 79 199 else/gbman~;
#X obj 154 223 else/lincong~;
#X obj 227 196 else/standard~;
#X obj 301 223 else/latoocarfian~;
#X obj 374 259 else/ikeda~;
#X connect 0 0 5 0;
#X connect 1 0 5 2;
#X connect 2 0 5 3;
#X connect 3 0 5 4;
#X connect 4 0 5 5;
#X connect 5 0 6 1;
#X connect 6 0 14 0;
#X connect 7 0 8 0;
#X connect 8 0 10 0;
#X connect 10 0 11 5;
#X connect 11 0 6 0;
#X connect 12 0 7 0;
#X connect 13 0 20 0;
#X connect 15 0 1 0;
#X connect 16 0 2 0;
#X connect 17 0 3 0;
#X connect 18 0 4 0;
#X connect 19 0 0 0;
#X connect 20 0 0 0;
#X connect 20 0 21 0;
#X connect 20 0 22 0;
#X connect 20 0 23 0;
#X connect 20 0 24 0;
#X connect 20 0 25 0;
#X connect 21 0 11 0;
#X connect 22 0 11 1;
#X connect 23 0 11 2;
#X connect 24 0 11 3;
#X connect 25 0 11 4;
