#N canvas 927 39 863 774 12;
#X floatatom 43 113 5 0 0 0 - - - 0;
#X obj 45 280 lop~ 80;
#X obj 44 304 lop~ 80;
#X obj 43 69 mtof;
#X floatatom 42 49 5 0 0 0 - - - 0;
#X obj 95 104 bng 15 250 50 0 empty empty empty 17 7 0 10 #fcfcfc #000000 #000000;
#X obj 48 23 inlet;
#X obj 46 442 outlet~;
#X obj 159 245 nbx 5 14 -1e+37 1e+37 0 0 empty empty empty 0 -8 0 10 #dcdcdc #000000 #000000 0 256;
#X obj 162 223 hsl 128 15 0 5 0 0 empty empty empty -2 -8 0 10 #dcdcdc #000000 #000000 0 1;
#X obj 159 266 else/float2sig~ 50;
#X msg 158 192 4;
#X obj 176 88 loadbang;
#X obj 116 133 b;
#X obj 162 43 inlet;
#X floatatom 182 134 5 0 1000 0 - - - 0;
#X floatatom 226 134 5 0 1000 0 - - - 0;
#X floatatom 270 134 5 0 1 0 - - - 0;
#X floatatom 314 134 5 0 1000 0 - - - 0;
#X obj 95 164 else/adsr~ 50 100 0.5 500, f 37;
#X obj 44 258 *~;
#X obj 44 329 else/drive~;
#X obj 43 135 else/tri~;
#X obj 44 354 *~ 0.9;
#X connect 0 0 22 0;
#X connect 1 0 2 0;
#X connect 2 0 21 0;
#X connect 3 0 0 0;
#X connect 3 0 5 0;
#X connect 4 0 3 0;
#X connect 4 0 0 0;
#X connect 5 0 13 0;
#X connect 6 0 4 0;
#X connect 8 0 10 0;
#X connect 9 0 8 0;
#X connect 10 0 21 1;
#X connect 11 0 9 0;
#X connect 12 0 11 0;
#X connect 13 0 19 0;
#X connect 14 0 9 0;
#X connect 15 0 19 2;
#X connect 16 0 19 3;
#X connect 17 0 19 4;
#X connect 18 0 19 5;
#X connect 19 0 20 1;
#X connect 20 0 1 0;
#X connect 21 0 23 0;
#X connect 22 0 20 0;
#X connect 23 0 7 0;
