#N canvas 375 47 1012 717 12;
#X obj 273 227 bng 15 250 50 0 empty empty empty 17 7 0 10 #fcfcfc #000000 #000000;
#X floatatom 423 194 5 0 0 0 - - - 0;
#X floatatom 426 275 5 0 0 0 - - - 0;
#X floatatom 440 350 5 0 0 0 - - - 0;
#X text 403 127 generate the sequence;
#X text 470 192 iterations of random notes to add: more iterations creates more random notes;
#X text 471 273 random max: the maximum value used in the random number generation;
#X text 481 350 seq length: the length of sequence;
#X text 470 416 randseq creates a list of numbers and - hyphen for rests;
#X text 686 121 generate a random sequence for mseq;
#X floatatom 75 415 5 0 0 0 - - - 0;
#X msg 122 329 11 12 13 14 - - - - 2 - - - 3 - -;
#X obj 136 398 bng 15 250 50 0 empty empty empty 17 7 0 10 #fcfcfc #000000 #000000;
#X obj 54 33 inlet;
#X obj 75 362 mseq;
#X obj 382 372 randseq;
#X obj 75 439 outlet;
#X obj 130 33 inlet;
#X obj 227 38 loadbang;
#X obj 540 79 random 999;
#X obj 648 75 random 96;
#X obj 130 58 b;
#X obj 271 561 outlet;
#X obj 252 131 pipe 100;
#X obj 464 20 t b b b b b;
#X msg 94 148 -;
#X obj 456 90 random 5;
#X listbox 419 488 81 0 0 0 - - - 0;
#X connect 0 0 15 0;
#X connect 1 0 15 1;
#X connect 2 0 15 2;
#X connect 3 0 15 3;
#X connect 10 0 16 0;
#X connect 11 0 14 1;
#X connect 13 0 14 0;
#X connect 14 0 10 0;
#X connect 14 0 12 0;
#X connect 15 0 14 1;
#X connect 15 0 22 0;
#X connect 15 0 27 0;
#X connect 17 0 21 0;
#X connect 18 0 23 0;
#X connect 19 0 2 0;
#X connect 20 0 3 0;
#X connect 21 0 24 0;
#X connect 23 0 0 0;
#X connect 24 0 0 0;
#X connect 24 1 26 0;
#X connect 24 2 19 0;
#X connect 24 3 20 0;
#X connect 24 4 25 0;
#X connect 25 0 14 1;
#X connect 26 0 1 0;
