#N canvas 0 503 450 300 12;
#X obj 39 165 sel 1;
#X obj 39 190 outlet;
#X obj 39 29 inlet;
#X obj 39 115 random 100;
#X obj 39 140 > \$1;
#X connect 0 0 1 0;
#X connect 2 0 3 0;
#X connect 3 0 4 0;
#X connect 4 0 0 0;
